STARTFONT 2.1
COMMENT
COMMENT Converted from OpenType font "ComicShannsMonoNerdFont-Regular.otf" by "otf2bdf 3.0".
COMMENT
FONT -FreeType-ComicShannsMono Nerd Font-Medium-R-Normal--27-120-160-160-P-195-ISO10646-1
SIZE 12 160 160
FONTBOUNDINGBOX 30 46 -1 -15
STARTPROPERTIES 19
FOUNDRY "FreeType"
FAMILY_NAME "ComicShannsMono Nerd Font"
WEIGHT_NAME "Medium"
SLANT "R"
SETWIDTH_NAME "Normal"
ADD_STYLE_NAME ""
PIXEL_SIZE 27
POINT_SIZE 120
RESOLUTION_X 160
RESOLUTION_Y 160
SPACING "P"
AVERAGE_WIDTH 190
CHARSET_REGISTRY "ISO10646"
CHARSET_ENCODING "1"
FONT_ASCENT 22
FONT_DESCENT 9
COPYRIGHT "MIT License    Copyright (c) 2018 Shannon Miwa  Copyright (c) 2023 Jesus Gonzalez    Permission is hereby granted, free of charge, to any person obtaining a copy  of this software and associated documentation files (the "Software"), to deal  in the Software without restriction, including without limitation the rights  to use, copy, modify, merge, publish, distribute, sublicense, and/or sell  copies of the Software, and to permit persons to whom the Software is  furnished to do so, subject to the following conditions:    The above copyright notice and this permission notice shall be included in all  copies or substantial portions of the Software.    THE SOFTWARE IS PROVIDED "AS IS", WITHOUT WARRANTY OF ANY KIND, EXPRESS OR  IMPLIED, INCLUDING BUT NOT LIMITED TO THE WARRANTIES OF MERCHANTABILITY,  FITNESS FOR A PARTICULAR PURPOSE AND NONINFRINGEMENT. IN NO EVENT SHALL THE  AUTHORS OR COPYRIGHT HOLDERS BE LIABLE FOR ANY CLAIM, DAMAGES OR OTHER  LIABILITY, WHETHER IN AN ACTION OF CONTRACT, TORT OR OTHERWISE, ARISING FROM,  OUT OF OR IN CONNECTION WITH THE SOFTWARE OR THE USE OR OTHER DEALINGS IN THE  SOFTWARE."
_OTF_FONTFILE "ComicShannsMonoNerdFont-Regular.otf"
_OTF_PSNAME "ComicShannsMonoNF-Regular"
ENDPROPERTIES
CHARS 3007
STARTCHAR 0020
ENCODING 32
SWIDTH 562 0
DWIDTH 15 0
BBX 0 0 0 0
BITMAP
ENDCHAR
STARTCHAR 0021
ENCODING 33
SWIDTH 562 0
DWIDTH 15 0
BBX 4 21 5 -1
BITMAP
20
70
70
70
70
70
70
70
70
70
70
70
70
70
00
00
00
70
F0
70
60
ENDCHAR
STARTCHAR 0022
ENCODING 34
SWIDTH 562 0
DWIDTH 15 0
BBX 7 9 4 11
BITMAP
CC
EE
EE
EE
EE
EE
EE
CC
CC
ENDCHAR
STARTCHAR 0023
ENCODING 35
SWIDTH 562 0
DWIDTH 15 0
BBX 13 18 1 0
BITMAP
0C20
0E70
0C70
0C70
0C60
7FF8
7FF8
18E0
18E0
18C0
38C0
FFF0
FFF0
31C0
71C0
7180
7180
6180
ENDCHAR
STARTCHAR 0024
ENCODING 36
SWIDTH 562 0
DWIDTH 15 0
BBX 13 23 1 -3
BITMAP
0300
0300
0380
1FE0
3F70
7300
6300
6300
7B00
3F80
1FE0
03F0
0370
0338
0338
0330
E370
73E0
7FC0
1F00
0300
0300
0200
ENDCHAR
STARTCHAR 0025
ENCODING 37
SWIDTH 562 0
DWIDTH 15 0
BBX 13 19 1 -1
BITMAP
7830
FC70
CC60
CCE0
CCC0
FD80
7980
0300
0700
0600
0C00
0CE0
19F0
3998
3118
7198
61F0
E0F0
4000
ENDCHAR
STARTCHAR 0026
ENCODING 38
SWIDTH 562 0
DWIDTH 15 0
BBX 13 19 1 -1
BITMAP
0F00
1F80
39C0
30C0
38C0
19C0
1F80
0F00
3E00
7E00
6318
E3B8
E1F0
C0E0
C0E0
E0F0
73F0
7F30
1E10
ENDCHAR
STARTCHAR 0027
ENCODING 39
SWIDTH 562 0
DWIDTH 15 0
BBX 3 8 6 11
BITMAP
E0
E0
E0
E0
E0
E0
E0
C0
ENDCHAR
STARTCHAR 0028
ENCODING 40
SWIDTH 562 0
DWIDTH 15 0
BBX 7 23 4 -3
BITMAP
0E
1E
38
70
60
60
E0
E0
C0
C0
C0
C0
C0
C0
C0
E0
E0
60
70
70
38
1E
0E
ENDCHAR
STARTCHAR 0029
ENCODING 41
SWIDTH 562 0
DWIDTH 15 0
BBX 7 23 4 -3
BITMAP
C0
F0
38
18
1C
0C
0C
0E
0E
0E
0E
0E
0E
0E
0E
0E
0C
1C
1C
38
38
F0
E0
ENDCHAR
STARTCHAR 002A
ENCODING 42
SWIDTH 562 0
DWIDTH 15 0
BBX 13 12 1 3
BITMAP
18C0
18C0
1DC0
0D80
0F00
FFF0
FFF8
7F00
0D80
1DC0
18C0
18C0
ENDCHAR
STARTCHAR 002B
ENCODING 43
SWIDTH 562 0
DWIDTH 15 0
BBX 12 12 1 1
BITMAP
0600
0700
0600
0600
0600
FFF0
7FF0
0600
0600
0600
0600
0600
ENDCHAR
STARTCHAR 002C
ENCODING 44
SWIDTH 562 0
DWIDTH 15 0
BBX 5 9 4 -5
BITMAP
18
18
18
38
30
70
70
60
E0
ENDCHAR
STARTCHAR 002D
ENCODING 45
SWIDTH 562 0
DWIDTH 15 0
BBX 8 2 3 6
BITMAP
7F
FF
ENDCHAR
STARTCHAR 002E
ENCODING 46
SWIDTH 562 0
DWIDTH 15 0
BBX 4 3 5 1
BITMAP
70
F0
70
ENDCHAR
STARTCHAR 002F
ENCODING 47
SWIDTH 562 0
DWIDTH 15 0
BBX 12 20 1 -2
BITMAP
0030
0030
0070
0070
00E0
00C0
01C0
0180
0380
0700
0600
0E00
0C00
1C00
1800
3800
7000
7000
E000
E000
ENDCHAR
STARTCHAR 0030
ENCODING 48
SWIDTH 562 0
DWIDTH 15 0
BBX 11 18 2 0
BITMAP
1F00
3FC0
71C0
E0E0
E1E0
C1E0
C360
C360
C660
CE60
DC60
D860
F060
E060
E0E0
E1C0
7FC0
1F00
ENDCHAR
STARTCHAR 0031
ENCODING 49
SWIDTH 562 0
DWIDTH 15 0
BBX 12 18 1 0
BITMAP
0700
0F00
3F00
7B00
3300
0300
0700
0700
0700
0700
0700
0700
0700
0700
0700
0700
FFF0
7FF0
ENDCHAR
STARTCHAR 0032
ENCODING 50
SWIDTH 562 0
DWIDTH 15 0
BBX 11 18 2 0
BITMAP
1F00
7FC0
F1C0
E0E0
40E0
00E0
00E0
01C0
0780
1F00
3C00
7000
E000
E000
C000
C000
FFE0
FFE0
ENDCHAR
STARTCHAR 0033
ENCODING 51
SWIDTH 562 0
DWIDTH 15 0
BBX 11 19 2 0
BITMAP
1F00
7FC0
71C0
E0E0
40E0
00E0
00E0
03C0
1F80
1F80
0FC0
00E0
0060
0060
C060
E0E0
F1E0
7FC0
1F00
ENDCHAR
STARTCHAR 0034
ENCODING 52
SWIDTH 562 0
DWIDTH 15 0
BBX 12 18 1 1
BITMAP
01C0
03C0
03C0
06C0
0EC0
1CC0
18C0
38C0
70C0
60E0
FFF0
7FF0
00E0
00E0
00E0
00E0
00E0
0060
ENDCHAR
STARTCHAR 0035
ENCODING 53
SWIDTH 562 0
DWIDTH 15 0
BBX 11 18 2 0
BITMAP
FFE0
FFE0
C000
C000
C000
CF80
FFC0
F9E0
E0E0
0060
0060
0060
0060
00E0
C0E0
E1C0
7F80
3F00
ENDCHAR
STARTCHAR 0036
ENCODING 54
SWIDTH 562 0
DWIDTH 15 0
BBX 12 19 1 0
BITMAP
0080
07C0
1F80
3C00
3800
7000
6000
6FC0
7FE0
7870
E030
E030
6030
6030
6030
7070
38E0
1FC0
0F80
ENDCHAR
STARTCHAR 0037
ENCODING 55
SWIDTH 562 0
DWIDTH 15 0
BBX 12 18 2 0
BITMAP
FFE0
FFF0
8060
00E0
00C0
0180
0380
0300
0700
0600
0C00
1C00
1800
3800
3000
7000
6000
E000
ENDCHAR
STARTCHAR 0038
ENCODING 56
SWIDTH 562 0
DWIDTH 15 0
BBX 12 18 1 0
BITMAP
1F80
3FC0
70E0
6060
6060
7060
38C0
1F80
1FC0
38E0
6070
E030
C030
C030
6070
70F0
3FE0
1F80
ENDCHAR
STARTCHAR 0039
ENCODING 57
SWIDTH 562 0
DWIDTH 15 0
BBX 12 19 1 -1
BITMAP
0F80
3FC0
38E0
7070
6030
E030
E030
6030
6030
7070
3FF0
1FB0
0030
0060
00E0
01C0
0F80
3F00
1800
ENDCHAR
STARTCHAR 003A
ENCODING 58
SWIDTH 562 0
DWIDTH 15 0
BBX 3 11 6 1
BITMAP
E0
E0
E0
E0
00
00
00
E0
E0
E0
40
ENDCHAR
STARTCHAR 003B
ENCODING 59
SWIDTH 562 0
DWIDTH 15 0
BBX 4 16 5 -5
BITMAP
70
70
70
00
00
00
00
70
70
70
E0
E0
E0
E0
C0
C0
ENDCHAR
STARTCHAR 003C
ENCODING 60
SWIDTH 562 0
DWIDTH 15 0
BBX 13 18 1 0
BITMAP
0010
0078
00F0
03E0
0780
0F00
1E00
3C00
F000
F000
7800
1C00
0F00
0780
03C0
01E0
00F0
0078
ENDCHAR
STARTCHAR 003D
ENCODING 61
SWIDTH 562 0
DWIDTH 15 0
BBX 11 7 2 4
BITMAP
FFE0
FFE0
0000
0000
0000
FFE0
FFE0
ENDCHAR
STARTCHAR 003E
ENCODING 62
SWIDTH 562 0
DWIDTH 15 0
BBX 12 18 2 0
BITMAP
C000
F000
7800
3C00
1E00
0F00
0780
03C0
00F0
00F0
01E0
03C0
0780
1E00
3C00
7800
F000
C000
ENDCHAR
STARTCHAR 003F
ENCODING 63
SWIDTH 562 0
DWIDTH 15 0
BBX 10 18 3 0
BITMAP
3E00
7F80
E380
C1C0
C1C0
01C0
03C0
0780
0F00
1C00
1C00
1800
0800
0000
0000
3C00
3C00
3C00
ENDCHAR
STARTCHAR 0040
ENCODING 64
SWIDTH 562 0
DWIDTH 15 0
BBX 13 20 1 -3
BITMAP
0FC0
1FE0
3870
3030
6030
6030
E798
CF98
D818
D8D8
D9D8
D9D8
DFF0
CF70
E000
6030
7070
38E0
3FE0
0F80
ENDCHAR
STARTCHAR 0041
ENCODING 65
SWIDTH 562 0
DWIDTH 15 0
BBX 13 18 1 0
BITMAP
0180
01C0
03C0
07C0
06C0
0CC0
0CC0
0C60
1860
1860
3FE0
7FF0
7030
6030
6030
E038
C038
C018
ENDCHAR
STARTCHAR 0042
ENCODING 66
SWIDTH 562 0
DWIDTH 15 0
BBX 12 18 1 0
BITMAP
7F00
FFC0
E1C0
E0E0
E060
C060
C0E0
C0C0
FF80
FFC0
E1E0
E070
E030
E070
E0E0
E3E0
FF80
FE00
ENDCHAR
STARTCHAR 0043
ENCODING 67
SWIDTH 562 0
DWIDTH 15 0
BBX 13 19 1 0
BITMAP
0010
03F8
07F8
0E38
1C38
3810
3000
7000
6000
E000
E000
E000
C000
E000
E000
F038
78F0
3FE0
1F80
ENDCHAR
STARTCHAR 0044
ENCODING 68
SWIDTH 562 0
DWIDTH 15 0
BBX 13 18 1 0
BITMAP
F000
FE00
DF80
C3C0
C1E0
C0E0
C070
C030
C038
E038
E018
E018
E038
E038
E030
F0F0
FFE0
3F80
ENDCHAR
STARTCHAR 0045
ENCODING 69
SWIDTH 562 0
DWIDTH 15 0
BBX 12 18 1 0
BITMAP
FFF0
FFF0
E000
E000
E000
C000
C000
C1F0
FFF0
FFC0
E000
E000
E000
E000
E000
E010
FFF0
7FF0
ENDCHAR
STARTCHAR 0046
ENCODING 70
SWIDTH 562 0
DWIDTH 15 0
BBX 12 19 1 -1
BITMAP
FFF0
FFF0
E000
E000
C000
C000
C000
C000
FFE0
FFE0
C000
E000
E000
E000
E000
E000
E000
E000
4000
ENDCHAR
STARTCHAR 0047
ENCODING 71
SWIDTH 562 0
DWIDTH 15 0
BBX 13 19 1 0
BITMAP
03E0
07F8
0E38
1C00
3800
3000
7000
6000
6000
E3F8
EFF8
CC30
E030
E070
E060
70E0
79C0
3F80
1F00
ENDCHAR
STARTCHAR 0048
ENCODING 72
SWIDTH 562 0
DWIDTH 15 0
BBX 12 18 1 0
BITMAP
6030
6030
E030
E030
E030
E030
E030
E070
FFF0
FFB0
E030
E030
E030
E030
E030
E030
E030
E070
ENDCHAR
STARTCHAR 0049
ENCODING 73
SWIDTH 562 0
DWIDTH 15 0
BBX 12 18 1 0
BITMAP
FFF0
FFF0
0700
0700
0700
0700
0700
0700
0700
0700
0700
0700
0700
0700
0600
0600
FFF0
FFF0
ENDCHAR
STARTCHAR 004A
ENCODING 74
SWIDTH 562 0
DWIDTH 15 0
BBX 13 18 1 0
BITMAP
7FF8
7FF8
0180
0180
0180
0180
0180
0180
0180
0180
0180
C180
C180
E180
6380
3F00
3F00
0E00
ENDCHAR
STARTCHAR 004B
ENCODING 75
SWIDTH 562 0
DWIDTH 15 0
BBX 12 19 1 -1
BITMAP
C020
E060
E0E0
E3C0
E780
CF00
DE00
FC00
F800
F800
DC00
DE00
EF00
E780
E1C0
E0E0
E070
E030
4010
ENDCHAR
STARTCHAR 004C
ENCODING 76
SWIDTH 562 0
DWIDTH 15 0
BBX 12 18 1 0
BITMAP
6000
6000
6000
6000
6000
6000
6000
6000
6000
6000
6000
6000
6000
E000
E000
E030
FFF0
FFE0
ENDCHAR
STARTCHAR 004D
ENCODING 77
SWIDTH 562 0
DWIDTH 15 0
BBX 13 18 1 0
BITMAP
1060
78F0
78F0
78F0
78B0
79B0
79B0
5DB0
DDB0
CDB0
CDB0
CDB0
CDB8
CD38
CF38
C738
C718
C718
ENDCHAR
STARTCHAR 004E
ENCODING 78
SWIDTH 562 0
DWIDTH 15 0
BBX 12 18 1 0
BITMAP
4000
F030
F030
F030
F830
D830
DC30
CC30
CE30
C630
C730
C3B0
C3B0
C1F0
C0F0
C0F0
C070
C070
ENDCHAR
STARTCHAR 004F
ENCODING 79
SWIDTH 562 0
DWIDTH 15 0
BBX 12 18 1 0
BITMAP
0F80
1FE0
38E0
7070
6030
6030
E030
E030
E030
E030
E030
E030
E030
E070
6070
71E0
3FC0
1F80
ENDCHAR
STARTCHAR 0050
ENCODING 80
SWIDTH 562 0
DWIDTH 15 0
BBX 12 18 1 0
BITMAP
7F80
FFC0
E0E0
E070
E030
E030
E030
E070
6060
60E0
7FC0
7F00
6000
6000
6000
6000
6000
6000
ENDCHAR
STARTCHAR 0051
ENCODING 81
SWIDTH 562 0
DWIDTH 15 0
BBX 13 23 1 -5
BITMAP
0780
1FE0
38E0
7070
6030
6030
E030
E030
E030
E030
E030
E030
E230
6730
7370
7BE0
3FE0
0FC0
00E0
0060
0070
0038
0010
ENDCHAR
STARTCHAR 0052
ENCODING 82
SWIDTH 562 0
DWIDTH 15 0
BBX 12 18 1 0
BITMAP
7800
FF00
EFC0
61E0
6070
6030
6030
6030
60F0
7FE0
7E00
7E00
6700
63C0
61E0
60F0
6070
6030
ENDCHAR
STARTCHAR 0053
ENCODING 83
SWIDTH 562 0
DWIDTH 15 0
BBX 13 19 1 0
BITMAP
07F0
1FF0
3800
7000
6000
6000
7000
3F00
1FE0
03F0
0070
0038
0038
0038
0030
C070
F1E0
7FC0
1F00
ENDCHAR
STARTCHAR 0054
ENCODING 84
SWIDTH 562 0
DWIDTH 15 0
BBX 13 18 1 0
BITMAP
FFF0
FFF8
0700
0700
0700
0700
0700
0700
0700
0700
0700
0700
0700
0700
0700
0700
0700
0300
ENDCHAR
STARTCHAR 0055
ENCODING 85
SWIDTH 562 0
DWIDTH 15 0
BBX 13 18 1 0
BITMAP
C018
C018
C018
C018
C018
C018
C018
E018
E018
E018
E038
E038
E038
E030
7070
78E0
3FC0
0F80
ENDCHAR
STARTCHAR 0056
ENCODING 86
SWIDTH 562 0
DWIDTH 15 0
BBX 13 18 1 0
BITMAP
8018
C018
C038
E030
6030
6070
7060
3060
30E0
38C0
18C0
19C0
1D80
0D80
0F80
0F00
0700
0700
ENDCHAR
STARTCHAR 0057
ENCODING 87
SWIDTH 562 0
DWIDTH 15 0
BBX 13 18 1 0
BITMAP
C318
C718
C718
C718
C518
CD98
CD98
CD98
CDB0
CDB0
EDB0
6DB0
69B0
79F0
78F0
78F0
78E0
78E0
ENDCHAR
STARTCHAR 0058
ENCODING 88
SWIDTH 562 0
DWIDTH 15 0
BBX 13 19 1 -1
BITMAP
4010
E030
7070
7060
38E0
1CC0
1DC0
0F80
0700
0700
0F80
1D80
19C0
38C0
30E0
7070
E070
C038
4010
ENDCHAR
STARTCHAR 0059
ENCODING 89
SWIDTH 562 0
DWIDTH 15 0
BBX 13 19 1 -1
BITMAP
4010
E038
E038
6070
7070
30E0
38E0
1DC0
1DC0
0F80
0F80
0700
0700
0E00
0E00
1C00
1C00
1800
1800
ENDCHAR
STARTCHAR 005A
ENCODING 90
SWIDTH 562 0
DWIDTH 15 0
BBX 13 18 1 0
BITMAP
7FF0
7FF0
0060
00E0
01C0
0180
0380
0700
0600
0E00
1C00
1800
3800
7000
7000
E000
FFF8
FFF8
ENDCHAR
STARTCHAR 005B
ENCODING 91
SWIDTH 562 0
DWIDTH 15 0
BBX 9 23 3 -2
BITMAP
7F80
FF80
E000
E000
E000
E000
E000
E000
E000
E000
E000
E000
E000
E000
E000
E000
E000
E000
E000
E000
E000
FF80
FF80
ENDCHAR
STARTCHAR 005C
ENCODING 92
SWIDTH 562 0
DWIDTH 15 0
BBX 12 21 1 -2
BITMAP
C000
E000
E000
7000
3000
3800
1800
1C00
0E00
0600
0700
0300
0380
0180
01C0
00E0
00E0
0070
0070
0030
0010
ENDCHAR
STARTCHAR 005D
ENCODING 93
SWIDTH 562 0
DWIDTH 15 0
BBX 9 23 3 -2
BITMAP
FF80
FF80
0380
0380
0180
0180
0180
0180
0180
0180
0180
0180
0180
0180
0180
0180
0180
0180
0180
0180
0180
FF80
FF80
ENDCHAR
STARTCHAR 005E
ENCODING 94
SWIDTH 562 0
DWIDTH 15 0
BBX 13 9 1 15
BITMAP
0200
0700
0F80
1F80
3DC0
78E0
7070
E038
C010
ENDCHAR
STARTCHAR 005F
ENCODING 95
SWIDTH 562 0
DWIDTH 15 0
BBX 12 2 1 -2
BITMAP
FFF0
FFF0
ENDCHAR
STARTCHAR 0060
ENCODING 96
SWIDTH 562 0
DWIDTH 15 0
BBX 6 7 4 15
BITMAP
C0
E0
E0
70
38
1C
0C
ENDCHAR
STARTCHAR 0061
ENCODING 97
SWIDTH 562 0
DWIDTH 15 0
BBX 11 13 2 0
BITMAP
0F80
3FC0
78E0
70E0
E0E0
C0E0
C0E0
C0E0
C0E0
E1E0
F3E0
7F60
1E60
ENDCHAR
STARTCHAR 0062
ENCODING 98
SWIDTH 562 0
DWIDTH 15 0
BBX 11 19 2 0
BITMAP
C000
C000
C000
C000
C000
C000
CF00
FFC0
F1E0
C0E0
C060
C060
C060
C060
C060
C0E0
E1C0
FFC0
DF00
ENDCHAR
STARTCHAR 0063
ENCODING 99
SWIDTH 562 0
DWIDTH 15 0
BBX 11 14 2 0
BITMAP
0F80
1FC0
39C0
70E0
60E0
E000
C000
C000
C000
C000
E0E0
71E0
7FC0
1F00
ENDCHAR
STARTCHAR 0064
ENCODING 100
SWIDTH 562 0
DWIDTH 15 0
BBX 12 19 2 0
BITMAP
0060
0060
0060
0060
0060
0060
1F60
7FE0
F1E0
E0E0
C060
C060
C060
C060
C060
E0E0
71E0
3FF0
1E60
ENDCHAR
STARTCHAR 0065
ENCODING 101
SWIDTH 562 0
DWIDTH 15 0
BBX 11 13 2 0
BITMAP
0F00
3FC0
71C0
60E0
E1C0
CFC0
FF00
F800
C000
E060
71E0
7FC0
1F80
ENDCHAR
STARTCHAR 0066
ENCODING 102
SWIDTH 562 0
DWIDTH 15 0
BBX 11 19 2 0
BITMAP
03E0
0FE0
1F00
1C00
1800
3800
3800
FFC0
FFC0
1800
1800
1800
1800
1800
1800
1800
1800
FFC0
FF80
ENDCHAR
STARTCHAR 0067
ENCODING 103
SWIDTH 562 0
DWIDTH 15 0
BBX 11 20 2 -7
BITMAP
0FC0
3FC0
7860
6060
E060
C060
C060
C060
C0E0
E0E0
73E0
7F60
3E60
00E0
00C0
00C0
01C0
C780
FF00
7C00
ENDCHAR
STARTCHAR 0068
ENCODING 104
SWIDTH 562 0
DWIDTH 15 0
BBX 11 19 2 0
BITMAP
E000
E000
E000
E000
E000
E000
E780
EFC0
FDC0
F0E0
E0E0
E0E0
E0E0
E0E0
E0E0
E0E0
E0E0
E0E0
C0E0
ENDCHAR
STARTCHAR 0069
ENCODING 105
SWIDTH 562 0
DWIDTH 15 0
BBX 11 18 2 0
BITMAP
0400
0E00
1E00
0E00
0000
0000
7E00
7E00
0600
0600
0600
0600
0600
0600
0600
0600
FFE0
FFE0
ENDCHAR
STARTCHAR 006A
ENCODING 106
SWIDTH 562 0
DWIDTH 15 0
BBX 10 25 2 -7
BITMAP
0380
03C0
0380
0380
0000
0000
FF80
7F80
0180
0180
0180
0180
0180
0180
0180
0180
0180
0180
0180
0180
0380
0780
1F00
FE00
F800
ENDCHAR
STARTCHAR 006B
ENCODING 107
SWIDTH 562 0
DWIDTH 15 0
BBX 11 20 2 -1
BITMAP
E000
E000
E000
E000
E000
E000
E0C0
E1C0
E380
E700
EE00
FC00
FE00
F700
E380
E380
E1C0
E0E0
E060
4020
ENDCHAR
STARTCHAR 006C
ENCODING 108
SWIDTH 562 0
DWIDTH 15 0
BBX 12 19 1 0
BITMAP
3F00
7F00
0700
0700
0700
0700
0700
0700
0700
0700
0700
0700
0700
0700
0700
0700
0700
FFF0
7FF0
ENDCHAR
STARTCHAR 006D
ENCODING 109
SWIDTH 562 0
DWIDTH 15 0
BBX 12 13 1 0
BITMAP
EC70
FEF0
F7B0
E730
E730
C730
C730
C630
C630
C630
E630
E630
C630
ENDCHAR
STARTCHAR 006E
ENCODING 110
SWIDTH 562 0
DWIDTH 15 0
BBX 11 13 2 0
BITMAP
E780
FFC0
FDC0
F0C0
E0C0
C0C0
C0E0
C0E0
C0E0
C0E0
C060
E060
C060
ENDCHAR
STARTCHAR 006F
ENCODING 111
SWIDTH 562 0
DWIDTH 15 0
BBX 12 14 1 -1
BITMAP
0F80
1FC0
38E0
7060
6070
6070
6070
E070
6070
6070
7060
3DE0
1FC0
0F00
ENDCHAR
STARTCHAR 0070
ENCODING 112
SWIDTH 562 0
DWIDTH 15 0
BBX 11 21 2 -7
BITMAP
C000
CF00
FFC0
F1C0
C0E0
C0E0
C0E0
C0E0
C0E0
C0E0
C0C0
C1C0
FF80
FF00
C000
C000
C000
E000
E000
E000
C000
ENDCHAR
STARTCHAR 0071
ENCODING 113
SWIDTH 562 0
DWIDTH 15 0
BBX 11 20 2 -7
BITMAP
0F80
3FE0
78E0
70E0
E0E0
C0E0
C0E0
C0E0
E0E0
E0E0
70E0
7FE0
1FE0
00E0
00C0
00C0
00C0
00C0
00C0
00C0
ENDCHAR
STARTCHAR 0072
ENCODING 114
SWIDTH 562 0
DWIDTH 15 0
BBX 11 13 2 0
BITMAP
63C0
6FE0
7CE0
78E0
F040
E000
E000
E000
E000
E000
E000
6000
6000
ENDCHAR
STARTCHAR 0073
ENCODING 115
SWIDTH 562 0
DWIDTH 15 0
BBX 11 13 2 0
BITMAP
07C0
3FC0
78C0
60C0
E000
7E00
1FC0
01E0
0060
C0E0
E3C0
FF80
3E00
ENDCHAR
STARTCHAR 0074
ENCODING 116
SWIDTH 562 0
DWIDTH 15 0
BBX 11 18 2 0
BITMAP
3000
3000
3000
3000
3000
FFC0
FFC0
3000
3000
3000
3000
3000
3000
3000
3000
3840
1FE0
0FC0
ENDCHAR
STARTCHAR 0075
ENCODING 117
SWIDTH 562 0
DWIDTH 15 0
BBX 11 13 2 0
BITMAP
C060
C0E0
C0E0
C0E0
C0E0
C0E0
C0E0
C0E0
C0E0
E0E0
E3E0
7FE0
3C60
ENDCHAR
STARTCHAR 0076
ENCODING 118
SWIDTH 562 0
DWIDTH 15 0
BBX 12 14 1 -1
BITMAP
0010
E030
E030
7070
7070
3060
38E0
18C0
1DC0
0D80
0F80
0700
0700
0200
ENDCHAR
STARTCHAR 0077
ENCODING 119
SWIDTH 562 0
DWIDTH 15 0
BBX 13 13 1 0
BITMAP
C718
C718
C718
C718
ED38
EDB0
6DB0
6DB0
69B0
69B0
39E0
38E0
30C0
ENDCHAR
STARTCHAR 0078
ENCODING 120
SWIDTH 562 0
DWIDTH 15 0
BBX 12 13 1 0
BITMAP
6030
7070
78E0
3DC0
1D80
0F80
0700
0F80
1DC0
39E0
70E0
E070
C030
ENDCHAR
STARTCHAR 0079
ENCODING 121
SWIDTH 562 0
DWIDTH 15 0
BBX 13 21 1 -8
BITMAP
4010
E038
E038
6070
7070
3060
38E0
38C0
1DC0
1D80
0F80
0F00
0700
0600
0E00
0C00
1C00
1800
3800
3000
3000
ENDCHAR
STARTCHAR 007A
ENCODING 122
SWIDTH 562 0
DWIDTH 15 0
BBX 11 12 2 0
BITMAP
FFE0
FFE0
01C0
0180
0780
0F00
1E00
3800
7000
E000
FFE0
FFE0
ENDCHAR
STARTCHAR 007B
ENCODING 123
SWIDTH 562 0
DWIDTH 15 0
BBX 11 23 2 -2
BITMAP
01E0
07E0
0E00
0C00
0C00
0C00
0C00
0E00
0600
0600
7E00
F800
FC00
0E00
0600
0600
0E00
0C00
0C00
0C00
0E00
0FE0
03E0
ENDCHAR
STARTCHAR 007C
ENCODING 124
SWIDTH 562 0
DWIDTH 15 0
BBX 3 26 6 -5
BITMAP
60
60
60
60
60
60
60
60
60
60
60
60
60
60
60
60
60
E0
E0
E0
E0
E0
E0
E0
E0
40
ENDCHAR
STARTCHAR 007D
ENCODING 125
SWIDTH 562 0
DWIDTH 15 0
BBX 11 23 2 -2
BITMAP
F800
FC00
0E00
0600
0600
0E00
0C00
0C00
1C00
0E00
07E0
03E0
0FC0
1C00
0C00
0E00
0E00
0600
0600
0600
0E00
FC00
F000
ENDCHAR
STARTCHAR 007E
ENCODING 126
SWIDTH 562 0
DWIDTH 15 0
BBX 13 7 1 6
BITMAP
1C00
3C18
7E30
6730
C3E0
C3E0
0080
ENDCHAR
STARTCHAR 00A1
ENCODING 161
SWIDTH 562 0
DWIDTH 15 0
BBX 4 21 4 -1
BITMAP
20
F0
F0
70
00
00
00
60
60
60
60
60
60
60
60
60
60
60
60
60
40
ENDCHAR
STARTCHAR 00A2
ENCODING 162
SWIDTH 562 0
DWIDTH 15 0
BBX 12 23 1 -2
BITMAP
0300
0300
0300
0300
0300
07C0
1FE0
3FF0
3B70
7300
6300
E300
E300
E300
E300
E330
7B70
3FF0
1FC0
0300
0300
0300
0200
ENDCHAR
STARTCHAR 00A3
ENCODING 163
SWIDTH 562 0
DWIDTH 15 0
BBX 13 19 1 0
BITMAP
0F80
3FC0
38E0
7060
7070
7060
7000
3800
3800
1800
7FC0
FFC0
1800
3800
3800
7000
7F18
7FF8
61F0
ENDCHAR
STARTCHAR 00A4
ENCODING 164
SWIDTH 562 0
DWIDTH 15 0
BBX 13 14 1 2
BITMAP
C018
E038
7FF0
3FE0
38E0
3060
3060
3060
38E0
3FE0
7FF0
E330
C038
8010
ENDCHAR
STARTCHAR 00A5
ENCODING 165
SWIDTH 562 0
DWIDTH 15 0
BBX 12 17 1 0
BITMAP
C030
E030
E070
7070
70E0
38C0
19C0
1D80
0F80
7FF0
7FF0
0700
7FF0
7FF0
0700
0700
0700
ENDCHAR
STARTCHAR 00A6
ENCODING 166
SWIDTH 562 0
DWIDTH 15 0
BBX 3 19 6 0
BITMAP
E0
E0
E0
E0
E0
E0
E0
C0
00
00
00
C0
E0
E0
E0
E0
E0
E0
E0
ENDCHAR
STARTCHAR 00A8
ENCODING 168
SWIDTH 562 0
DWIDTH 15 0
BBX 8 3 3 16
BITMAP
E7
E7
62
ENDCHAR
STARTCHAR 00AB
ENCODING 171
SWIDTH 562 0
DWIDTH 15 0
BBX 13 12 1 2
BITMAP
0218
0E38
1C70
39E0
F3C0
E700
E700
73C0
38E0
1E70
0E38
0218
ENDCHAR
STARTCHAR 00AC
ENCODING 172
SWIDTH 562 0
DWIDTH 15 0
BBX 13 7 1 4
BITMAP
FFF8
7FF8
0038
0038
0038
0038
0030
ENDCHAR
STARTCHAR 00AF
ENCODING 175
SWIDTH 562 0
DWIDTH 15 0
BBX 11 2 2 15
BITMAP
FFE0
FFE0
ENDCHAR
STARTCHAR 00B0
ENCODING 176
SWIDTH 562 0
DWIDTH 15 0
BBX 6 7 4 13
BITMAP
30
FC
CC
CC
CC
FC
30
ENDCHAR
STARTCHAR 00B1
ENCODING 177
SWIDTH 562 0
DWIDTH 15 0
BBX 12 14 1 0
BITMAP
0700
0600
0600
0600
FFF0
7FF0
0600
0600
0600
0600
0000
0000
FFF0
7FF0
ENDCHAR
STARTCHAR 00B4
ENCODING 180
SWIDTH 562 0
DWIDTH 15 0
BBX 6 7 4 15
BITMAP
08
1C
1C
38
70
E0
C0
ENDCHAR
STARTCHAR 00B8
ENCODING 184
SWIDTH 562 0
DWIDTH 15 0
BBX 7 8 4 -7
BITMAP
10
30
18
0C
46
C6
7C
10
ENDCHAR
STARTCHAR 00BB
ENCODING 187
SWIDTH 562 0
DWIDTH 15 0
BBX 13 12 0 2
BITMAP
8600
E700
73C0
38E0
1E70
0E38
0E38
1C70
39E0
F380
E700
8200
ENDCHAR
STARTCHAR 00BC
ENCODING 188
SWIDTH 562 0
DWIDTH 15 0
BBX 12 20 1 0
BITMAP
0700
0F00
1B00
0300
0300
0300
0300
3FE0
0040
7FF0
FFF0
0000
0780
0F80
1D80
1980
3FE0
3FE0
0180
0180
ENDCHAR
STARTCHAR 00BF
ENCODING 191
SWIDTH 562 0
DWIDTH 15 0
BBX 10 18 3 0
BITMAP
3C00
3C00
3C00
0800
0000
0800
1800
1C00
1C00
0E00
0780
03C0
01C0
C1C0
C1C0
E380
7F80
3E00
ENDCHAR
STARTCHAR 00C0
ENCODING 192
SWIDTH 562 0
DWIDTH 15 0
BBX 13 26 1 0
BITMAP
0C00
0C00
0E00
0700
0380
0180
0080
0000
0180
01C0
03C0
07C0
06C0
0CC0
0CC0
0C60
1860
1860
3FE0
7FF0
7030
6030
6030
E038
C038
C018
ENDCHAR
STARTCHAR 00C1
ENCODING 193
SWIDTH 562 0
DWIDTH 15 0
BBX 13 26 1 0
BITMAP
0180
0180
0380
0700
0E00
0C00
0800
0000
0180
01C0
03C0
07C0
06C0
0CC0
0CC0
0C60
1860
1860
3FE0
7FF0
7030
6030
6030
E038
C038
C018
ENDCHAR
STARTCHAR 00C2
ENCODING 194
SWIDTH 562 0
DWIDTH 15 0
BBX 13 28 1 0
BITMAP
0700
0700
0D80
1DC0
18C0
3060
7060
6030
0010
0000
0180
01C0
03C0
07C0
06C0
0CC0
0CC0
0C60
1860
1860
3FE0
7FF0
7030
6030
6030
E038
C038
C018
ENDCHAR
STARTCHAR 00C3
ENCODING 195
SWIDTH 562 0
DWIDTH 15 0
BBX 13 24 1 0
BITMAP
1C20
1E60
37E0
33C0
21C0
0000
0000
0180
03C0
03C0
06C0
06C0
0CC0
0CE0
1860
1860
3FE0
7FF0
7030
6030
6030
E038
C038
C018
ENDCHAR
STARTCHAR 00C4
ENCODING 196
SWIDTH 562 0
DWIDTH 15 0
BBX 13 23 1 0
BITMAP
1CC0
1DC0
18C0
0000
0000
0180
03C0
03C0
06C0
06C0
0CC0
0CE0
1C60
1860
1860
3FE0
7FF0
7030
6030
6030
E038
C038
C018
ENDCHAR
STARTCHAR 00C5
ENCODING 197
SWIDTH 562 0
DWIDTH 15 0
BBX 13 25 1 0
BITMAP
0780
0D80
0880
0C80
0F80
0000
0000
0180
01C0
03C0
06C0
06C0
0CC0
0CE0
0C60
1860
1860
3FE0
7FF0
7030
6030
6030
E038
C038
C018
ENDCHAR
STARTCHAR 00C6
ENCODING 198
SWIDTH 562 0
DWIDTH 15 0
BBX 14 19 0 -1
BITMAP
0400
0FF0
0FF0
1E00
1E00
1600
1600
3600
37F8
27F8
7E00
7E00
6300
6300
C300
C300
C3FC
C1FC
0080
ENDCHAR
STARTCHAR 00C7
ENCODING 199
SWIDTH 562 0
DWIDTH 15 0
BBX 13 25 1 -6
BITMAP
0010
03F8
07F8
0E38
1C38
3810
3000
7000
6000
E000
E000
E000
C000
E000
E000
F038
78F0
3FE0
1F80
0700
0380
00C0
18C0
1F80
0F00
ENDCHAR
STARTCHAR 00C8
ENCODING 200
SWIDTH 562 0
DWIDTH 15 0
BBX 12 27 1 0
BITMAP
1C00
1C00
0E00
0700
0380
0180
0000
0000
0000
FFF0
FFF0
E000
E000
E000
C000
C000
C1F0
FFF0
FFC0
E000
E000
E000
E000
E000
E010
FFF0
7FF0
ENDCHAR
STARTCHAR 00C9
ENCODING 201
SWIDTH 562 0
DWIDTH 15 0
BBX 12 27 1 0
BITMAP
0180
0380
0700
0700
0E00
1C00
0000
0000
0000
FFF0
FFF0
E000
E000
E000
C000
C000
C1F0
FFF0
FFC0
E000
E000
E000
E000
E000
E010
FFF0
7FF0
ENDCHAR
STARTCHAR 00CA
ENCODING 202
SWIDTH 562 0
DWIDTH 15 0
BBX 12 29 1 0
BITMAP
0600
0F00
0F80
1980
38C0
30E0
7060
6030
0000
0000
0000
FFF0
FFF0
E000
E000
E000
C000
C000
C1F0
FFF0
FFC0
E000
E000
E000
E000
E000
E010
FFF0
7FF0
ENDCHAR
STARTCHAR 00CB
ENCODING 203
SWIDTH 562 0
DWIDTH 15 0
BBX 12 23 1 0
BITMAP
39C0
39C0
1880
0000
0000
FFF0
FFF0
E000
E000
E000
C000
C000
C1F0
FFF0
FFC0
E000
E000
E000
E000
E000
E010
FFF0
7FF0
ENDCHAR
STARTCHAR 00CC
ENCODING 204
SWIDTH 562 0
DWIDTH 15 0
BBX 12 27 1 0
BITMAP
0800
1C00
0E00
0E00
0700
0380
0180
0000
0000
FFF0
FFF0
0700
0700
0700
0700
0700
0700
0700
0700
0700
0700
0700
0700
0600
0600
FFF0
FFF0
ENDCHAR
STARTCHAR 00CD
ENCODING 205
SWIDTH 562 0
DWIDTH 15 0
BBX 12 27 1 0
BITMAP
0080
0180
0380
0700
0E00
1C00
1800
0000
0000
FFF0
FFF0
0700
0700
0700
0700
0700
0700
0700
0700
0700
0700
0700
0700
0600
0600
FFF0
FFF0
ENDCHAR
STARTCHAR 00CE
ENCODING 206
SWIDTH 562 0
DWIDTH 15 0
BBX 12 29 1 0
BITMAP
0600
0700
0F00
1D80
18C0
38C0
7060
6070
6030
0000
0000
FFF0
FFF0
0700
0700
0700
0700
0700
0700
0700
0700
0700
0700
0700
0700
0600
0600
FFF0
FFF0
ENDCHAR
STARTCHAR 00CF
ENCODING 207
SWIDTH 562 0
DWIDTH 15 0
BBX 12 23 1 0
BITMAP
19C0
39C0
19C0
0000
0000
FFF0
FFF0
0700
0700
0700
0700
0700
0700
0700
0700
0700
0700
0700
0700
0600
0600
FFF0
FFF0
ENDCHAR
STARTCHAR 00D1
ENCODING 209
SWIDTH 562 0
DWIDTH 15 0
BBX 12 25 1 -1
BITMAP
1C20
3E60
37E0
33C0
2180
0000
0000
6010
F030
F030
F030
D830
D830
DC30
CE30
CE30
C730
C330
C3B0
C1B0
C1F0
C0F0
C0F0
C070
C070
ENDCHAR
STARTCHAR 00D2
ENCODING 210
SWIDTH 562 0
DWIDTH 15 0
BBX 12 26 1 0
BITMAP
1C00
0E00
0E00
0700
0380
0180
0000
0000
0F80
1FE0
38E0
7070
6030
6030
E030
E030
E030
E030
E030
E030
E030
E070
6070
71E0
3FC0
1F80
ENDCHAR
STARTCHAR 00D3
ENCODING 211
SWIDTH 562 0
DWIDTH 15 0
BBX 12 26 1 0
BITMAP
0180
0380
0700
0600
0E00
1C00
0000
0000
0F80
1FE0
38E0
7070
6030
6030
E030
E030
E030
E030
E030
E030
E030
E070
6070
71E0
3FC0
1F80
ENDCHAR
STARTCHAR 00D4
ENCODING 212
SWIDTH 562 0
DWIDTH 15 0
BBX 12 29 1 0
BITMAP
0200
0700
0F00
0D80
19C0
38C0
3060
7070
6030
0000
0000
0F80
1FE0
38E0
7070
6030
6030
E030
E030
E030
E030
E030
E030
E030
E070
6070
71E0
3FC0
1F80
ENDCHAR
STARTCHAR 00D5
ENCODING 213
SWIDTH 562 0
DWIDTH 15 0
BBX 12 25 1 0
BITMAP
1C20
1E60
37E0
33C0
23C0
0000
0000
0F80
1FE0
38E0
7070
6030
6030
E030
E030
E030
E030
E030
E030
E030
E070
6070
71E0
3FC0
1F80
ENDCHAR
STARTCHAR 00D6
ENCODING 214
SWIDTH 562 0
DWIDTH 15 0
BBX 12 23 1 0
BITMAP
19C0
3DC0
18C0
0000
0000
0F80
1FE0
38E0
7070
6030
6030
E030
E030
E030
E030
E030
E030
E030
E070
6070
71E0
3FC0
1F80
ENDCHAR
STARTCHAR 00D7
ENCODING 215
SWIDTH 562 0
DWIDTH 15 0
BBX 11 10 2 1
BITMAP
C060
E0E0
71C0
3F80
1E00
1F00
3B80
71C0
E0E0
C060
ENDCHAR
STARTCHAR 00D9
ENCODING 217
SWIDTH 562 0
DWIDTH 15 0
BBX 13 27 1 0
BITMAP
0800
1C00
0E00
0700
0300
0180
0080
0000
0000
C018
C018
C018
C018
C018
C018
C018
E018
E018
E018
E038
E038
E038
E030
7070
78E0
3FC0
0F80
ENDCHAR
STARTCHAR 00DA
ENCODING 218
SWIDTH 562 0
DWIDTH 15 0
BBX 13 27 1 0
BITMAP
0080
0180
0380
0700
0600
0C00
0800
0000
0000
C018
C018
C018
C018
C018
C018
C018
E018
E018
E018
E038
E038
E038
E030
7070
78E0
3FC0
0F80
ENDCHAR
STARTCHAR 00DB
ENCODING 219
SWIDTH 562 0
DWIDTH 15 0
BBX 13 29 1 0
BITMAP
0700
0700
0D80
1DC0
18C0
3060
7070
6030
0000
0000
0000
C018
C018
C018
C018
C018
C018
C018
E018
E018
E018
E038
E038
E038
E030
7070
78E0
3FC0
0F80
ENDCHAR
STARTCHAR 00DC
ENCODING 220
SWIDTH 562 0
DWIDTH 15 0
BBX 13 23 1 0
BITMAP
18C0
1DC0
18C0
0000
0000
C018
C018
C018
C018
C018
C018
C018
E018
E018
E018
E038
E038
E038
E030
7070
78E0
3FC0
0F80
ENDCHAR
STARTCHAR 00DD
ENCODING 221
SWIDTH 562 0
DWIDTH 15 0
BBX 13 27 1 -1
BITMAP
0180
0380
0300
0700
0E00
1C00
0000
0000
4010
E038
E038
6070
7070
30E0
38E0
1DC0
1DC0
0F80
0F80
0700
0700
0E00
0E00
1C00
1C00
1800
1800
ENDCHAR
STARTCHAR 00DE
ENCODING 222
SWIDTH 562 0
DWIDTH 15 0
BBX 12 20 1 0
BITMAP
E000
E000
6000
6000
FFC0
FFE0
E060
E070
E030
E030
E030
E070
60E0
7BC0
7F80
6600
6000
6000
6000
6000
ENDCHAR
STARTCHAR 00E0
ENCODING 224
SWIDTH 562 0
DWIDTH 15 0
BBX 11 21 2 0
BITMAP
1000
1800
1C00
0E00
0700
0300
0100
0000
0F80
3FC0
78E0
70E0
E0E0
C0E0
C0E0
C0E0
C0E0
E1E0
F3E0
7F60
1E60
ENDCHAR
STARTCHAR 00E1
ENCODING 225
SWIDTH 562 0
DWIDTH 15 0
BBX 11 21 2 0
BITMAP
0100
0380
0700
0E00
1C00
1800
1000
0000
0F80
3FC0
78E0
70E0
E0E0
C0E0
C0E0
C0E0
C0E0
E1E0
F3E0
7F60
1E60
ENDCHAR
STARTCHAR 00E2
ENCODING 226
SWIDTH 562 0
DWIDTH 15 0
BBX 11 23 2 0
BITMAP
0400
0E00
1F00
1B00
3180
71C0
E0C0
C060
C060
0000
0F80
3FC0
78E0
70E0
E0E0
C0E0
C0E0
C0E0
C0E0
E1E0
F3E0
7F60
1E60
ENDCHAR
STARTCHAR 00E3
ENCODING 227
SWIDTH 562 0
DWIDTH 15 0
BBX 11 19 2 0
BITMAP
3840
3CC0
6EC0
6780
4380
0000
0F80
3FC0
78E0
70E0
E0E0
C0E0
C0E0
C0E0
C0E0
E1E0
F3E0
7F60
1E60
ENDCHAR
STARTCHAR 00E4
ENCODING 228
SWIDTH 562 0
DWIDTH 15 0
BBX 11 17 2 0
BITMAP
3B80
3B80
3180
0000
0F80
3FC0
78E0
70E0
E0E0
C0E0
C0E0
C0E0
C0E0
E1E0
F3E0
7F60
1E60
ENDCHAR
STARTCHAR 00E5
ENCODING 229
SWIDTH 562 0
DWIDTH 15 0
BBX 11 19 2 0
BITMAP
1F00
1900
1100
1B00
0E00
0000
0F80
3FC0
78E0
70E0
E0E0
C0E0
C0E0
C0E0
C0E0
E1E0
F3E0
7F60
1E60
ENDCHAR
STARTCHAR 00E6
ENCODING 230
SWIDTH 562 0
DWIDTH 15 0
BBX 14 14 0 -1
BITMAP
1E70
3FF8
738C
638C
430C
C378
C3F0
C3C0
C300
C704
6F8C
7DFC
3970
0100
ENDCHAR
STARTCHAR 00E7
ENCODING 231
SWIDTH 562 0
DWIDTH 15 0
BBX 11 20 2 -7
BITMAP
0F80
3FC0
79C0
70E0
E0C0
E000
C000
C000
C000
E040
E0E0
7FC0
3F80
0E00
0600
0300
1180
3180
1F00
0400
ENDCHAR
STARTCHAR 00E8
ENCODING 232
SWIDTH 562 0
DWIDTH 15 0
BBX 11 21 2 0
BITMAP
1000
1800
1C00
0E00
0700
0300
0100
0000
0F00
3FC0
71C0
60E0
E1C0
CFC0
FF00
F800
C000
E060
71E0
7FC0
1F80
ENDCHAR
STARTCHAR 00E9
ENCODING 233
SWIDTH 562 0
DWIDTH 15 0
BBX 11 21 2 0
BITMAP
0100
0380
0700
0E00
1C00
1800
1000
0000
0F00
3FC0
71C0
60E0
E1C0
CFC0
FF00
F800
C000
E060
71E0
7FC0
1F80
ENDCHAR
STARTCHAR 00EA
ENCODING 234
SWIDTH 562 0
DWIDTH 15 0
BBX 11 23 2 0
BITMAP
0400
0E00
1F00
1B00
3180
71C0
E0C0
C060
C060
0000
0F00
3FC0
71C0
60E0
E1C0
CFC0
FF00
F800
C000
E060
71E0
7FC0
1F80
ENDCHAR
STARTCHAR 00EB
ENCODING 235
SWIDTH 562 0
DWIDTH 15 0
BBX 11 17 2 0
BITMAP
3B80
3B80
3180
0000
0F00
3FC0
71C0
60E0
E1C0
CFC0
FF00
F800
C000
E060
71E0
7FC0
1F80
ENDCHAR
STARTCHAR 00EC
ENCODING 236
SWIDTH 562 0
DWIDTH 15 0
BBX 11 22 2 0
BITMAP
2000
7000
3800
3800
1C00
0E00
0600
0000
0000
7E00
7E00
0600
0600
0600
0E00
0E00
0E00
0E00
0E00
0E00
FFE0
FFE0
ENDCHAR
STARTCHAR 00ED
ENCODING 237
SWIDTH 562 0
DWIDTH 15 0
BBX 11 22 2 0
BITMAP
0100
0380
0700
0700
0E00
1C00
1800
0000
0000
7E00
7E00
0600
0600
0600
0E00
0E00
0E00
0E00
0E00
0E00
FFE0
FFE0
ENDCHAR
STARTCHAR 00EE
ENCODING 238
SWIDTH 562 0
DWIDTH 15 0
BBX 12 24 1 0
BITMAP
0600
0E00
0F00
1D80
3980
30C0
70E0
E060
C030
0000
0000
3F00
3F00
0300
0300
0300
0300
0300
0300
0300
0300
0300
7FF0
7FF0
ENDCHAR
STARTCHAR 00EF
ENCODING 239
SWIDTH 562 0
DWIDTH 15 0
BBX 11 17 2 0
BITMAP
7380
7380
3100
0000
7E00
7E00
0600
0600
0600
0E00
0E00
0E00
0E00
0E00
0E00
FFE0
FFE0
ENDCHAR
STARTCHAR 00F1
ENCODING 241
SWIDTH 562 0
DWIDTH 15 0
BBX 11 19 2 0
BITMAP
3840
7CC0
6FC0
6780
4300
0000
CF80
FF80
FDC0
F0C0
E0C0
C0C0
C0C0
C0C0
C0E0
C0E0
C0E0
C0E0
C060
ENDCHAR
STARTCHAR 00F2
ENCODING 242
SWIDTH 562 0
DWIDTH 15 0
BBX 12 22 1 -1
BITMAP
0800
1C00
0E00
0E00
0700
0380
0180
0000
0F80
1FC0
38E0
7060
6070
6070
6070
E070
6070
6070
7060
3DE0
1FC0
0F00
ENDCHAR
STARTCHAR 00F3
ENCODING 243
SWIDTH 562 0
DWIDTH 15 0
BBX 12 22 1 -1
BITMAP
0080
0180
0380
0700
0E00
1C00
1800
0000
0F80
1FC0
38E0
7060
6070
6070
6070
E070
6070
6070
7060
3DE0
1FC0
0F00
ENDCHAR
STARTCHAR 00F4
ENCODING 244
SWIDTH 562 0
DWIDTH 15 0
BBX 12 24 1 -1
BITMAP
0600
0700
0F00
1D80
18C0
30C0
7060
6070
6030
0000
0F80
1FC0
38E0
7060
6070
6070
6070
E070
6070
6070
7060
3DE0
1FC0
0F00
ENDCHAR
STARTCHAR 00F5
ENCODING 245
SWIDTH 562 0
DWIDTH 15 0
BBX 12 20 1 -1
BITMAP
1C20
3E60
36E0
33C0
2180
0000
0F80
1FC0
38E0
7060
6070
6070
6070
E070
6070
6070
7060
3DE0
1FC0
0F00
ENDCHAR
STARTCHAR 00F6
ENCODING 246
SWIDTH 562 0
DWIDTH 15 0
BBX 12 18 1 -1
BITMAP
19C0
39C0
19C0
0000
0F80
1FC0
38E0
7060
6070
6070
6070
E070
6070
6070
7060
3DE0
1FC0
0F00
ENDCHAR
STARTCHAR 00F7
ENCODING 247
SWIDTH 562 0
DWIDTH 15 0
BBX 12 12 1 1
BITMAP
0700
0700
0700
0000
0000
FFF0
7FF0
0000
0000
0700
0700
0600
ENDCHAR
STARTCHAR 00F9
ENCODING 249
SWIDTH 562 0
DWIDTH 15 0
BBX 11 21 2 0
BITMAP
1800
1800
1C00
0E00
0700
0300
0000
0000
C060
C0E0
C0E0
C0E0
C0E0
C0E0
C0E0
C0E0
C0E0
E0E0
E3E0
7FE0
3C60
ENDCHAR
STARTCHAR 00FA
ENCODING 250
SWIDTH 562 0
DWIDTH 15 0
BBX 11 21 2 0
BITMAP
0300
0700
0700
0E00
1C00
3800
0000
0000
C060
C0E0
C0E0
C0E0
C0E0
C0E0
C0E0
C0E0
C0E0
E0E0
E3E0
7FE0
3C60
ENDCHAR
STARTCHAR 00FB
ENCODING 251
SWIDTH 562 0
DWIDTH 15 0
BBX 11 23 2 0
BITMAP
0E00
0E00
1B00
3B80
7180
60C0
E0C0
C060
0000
0000
C060
C0E0
C0E0
C0E0
C0E0
C0E0
C0E0
C0E0
C0E0
E0E0
E3E0
7FE0
3C60
ENDCHAR
STARTCHAR 00FC
ENCODING 252
SWIDTH 562 0
DWIDTH 15 0
BBX 11 17 2 0
BITMAP
3B80
3B80
3180
0000
C060
C0E0
C0E0
C0E0
C0E0
C0E0
C0E0
C0E0
C0E0
E0E0
E3E0
7FE0
3C60
ENDCHAR
STARTCHAR 00FD
ENCODING 253
SWIDTH 562 0
DWIDTH 15 0
BBX 13 29 1 -8
BITMAP
0080
01C0
0380
0700
0E00
0C00
0800
0000
4010
E038
E038
6070
7070
3060
38E0
38C0
1DC0
1D80
0F80
0F00
0700
0600
0E00
0C00
1C00
1800
3800
3000
3000
ENDCHAR
STARTCHAR 00FE
ENCODING 254
SWIDTH 562 0
DWIDTH 15 0
BBX 11 27 2 -7
BITMAP
C000
C000
C000
C000
C000
C000
C000
CF00
FFC0
F1C0
C0E0
C0E0
C0E0
C0E0
C0E0
C0E0
C0C0
C1C0
FF80
FF00
C000
C000
C000
E000
E000
E000
4000
ENDCHAR
STARTCHAR 00FF
ENCODING 255
SWIDTH 562 0
DWIDTH 15 0
BBX 13 25 1 -8
BITMAP
1CC0
1DC0
18C0
0000
0010
E038
E038
6030
7070
7060
38E0
38C0
1DC0
1D80
0F80
0F00
0700
0600
0E00
0C00
1C00
1800
3800
3000
3000
ENDCHAR
STARTCHAR 0100
ENCODING 256
SWIDTH 562 0
DWIDTH 15 0
BBX 13 22 1 0
BITMAP
7FF0
7FF0
0000
0000
0180
03C0
03C0
06C0
06C0
0CC0
0CE0
1C60
1860
1860
3FE0
7FF0
7030
6030
6030
E038
C038
C018
ENDCHAR
STARTCHAR 0101
ENCODING 257
SWIDTH 562 0
DWIDTH 15 0
BBX 11 16 2 0
BITMAP
FFE0
FFE0
0000
0F80
3FC0
78E0
70E0
E0E0
C0E0
C0E0
C0E0
C0E0
E1E0
F3E0
7F60
1E60
ENDCHAR
STARTCHAR 0102
ENCODING 258
SWIDTH 562 0
DWIDTH 15 0
BBX 13 24 1 0
BITMAP
2030
7870
3FE0
1F80
0000
0000
0180
01C0
03C0
07C0
06C0
0CC0
0CC0
0C60
1860
1860
3FE0
7FF0
7030
6030
6030
E038
C038
C018
ENDCHAR
STARTCHAR 0103
ENCODING 259
SWIDTH 562 0
DWIDTH 15 0
BBX 11 18 2 0
BITMAP
C060
F0E0
7FC0
1F00
0000
0F80
3FC0
78E0
70E0
E0E0
C0E0
C0E0
C0E0
C0E0
E1E0
F3E0
7F60
1E60
ENDCHAR
STARTCHAR 0104
ENCODING 260
SWIDTH 562 0
DWIDTH 15 0
BBX 15 25 1 -7
BITMAP
0180
01C0
03C0
07C0
06C0
0CC0
0CC0
0C60
1860
1860
3FE0
7FF0
7030
6030
6030
E038
C038
C018
0030
0060
0060
0060
0066
007E
003C
ENDCHAR
STARTCHAR 0105
ENCODING 261
SWIDTH 562 0
DWIDTH 15 0
BBX 13 19 2 -6
BITMAP
0F80
3FC0
78E0
70E0
E0E0
C0E0
C0E0
C0E0
C0E0
E1E0
F3E0
7F60
1EE0
01C0
0180
0180
01C8
01F8
00F8
ENDCHAR
STARTCHAR 0106
ENCODING 262
SWIDTH 562 0
DWIDTH 15 0
BBX 13 27 1 0
BITMAP
0080
0180
0380
0700
0600
0C00
1C00
0000
0010
03F8
07F8
0E38
1C38
3810
3000
7000
6000
E000
E000
E000
C000
E000
E000
F038
78F0
3FE0
1F80
ENDCHAR
STARTCHAR 0107
ENCODING 263
SWIDTH 562 0
DWIDTH 15 0
BBX 11 22 2 0
BITMAP
0100
0300
0700
0E00
1C00
1800
3000
0000
0F80
1FC0
39C0
70E0
60E0
E000
C000
C000
C000
C000
E0E0
71E0
7FC0
1F00
ENDCHAR
STARTCHAR 0108
ENCODING 264
SWIDTH 562 0
DWIDTH 15 0
BBX 13 29 1 0
BITMAP
0300
0300
0780
0EC0
1CC0
1860
3870
7030
6018
0000
0010
03F8
07F8
0E38
1C38
3810
3000
7000
6000
E000
E000
E000
C000
E000
E000
F038
78F0
3FE0
1F80
ENDCHAR
STARTCHAR 0109
ENCODING 265
SWIDTH 562 0
DWIDTH 15 0
BBX 11 24 2 0
BITMAP
0400
0E00
1E00
1B00
3180
7180
E0C0
C0E0
C060
0000
0F80
1FC0
39C0
70E0
60E0
E000
C000
C000
C000
C000
E0E0
71E0
7FC0
1F00
ENDCHAR
STARTCHAR 010A
ENCODING 266
SWIDTH 562 0
DWIDTH 15 0
BBX 13 24 1 0
BITMAP
0700
0F80
0F80
0700
0000
0010
03F8
07F8
0E38
1C38
3810
3000
7000
6000
E000
E000
E000
C000
E000
E000
F038
78F0
3FE0
1F80
ENDCHAR
STARTCHAR 010B
ENCODING 267
SWIDTH 562 0
DWIDTH 15 0
BBX 11 19 2 0
BITMAP
0E00
1F00
1E00
0E00
0000
0F80
1FC0
39C0
70E0
60E0
E000
C000
C000
C000
C000
E0E0
71E0
7FC0
1F00
ENDCHAR
STARTCHAR 010C
ENCODING 268
SWIDTH 562 0
DWIDTH 15 0
BBX 13 25 1 0
BITMAP
0700
0F80
3DC0
78F0
6030
0000
0010
03F8
07F8
0E38
1C38
3810
3000
7000
6000
E000
E000
E000
C000
E000
E000
F038
78F0
3FE0
1F80
ENDCHAR
STARTCHAR 010D
ENCODING 269
SWIDTH 562 0
DWIDTH 15 0
BBX 11 20 2 0
BITMAP
0E00
1F00
7B80
F1E0
C060
0000
0F80
1FC0
39C0
70E0
60E0
E000
C000
C000
C000
C000
E0E0
71E0
7FC0
1F00
ENDCHAR
STARTCHAR 010E
ENCODING 270
SWIDTH 562 0
DWIDTH 15 0
BBX 13 25 1 0
BITMAP
0700
0F80
1DC0
78F0
6030
0000
0000
F000
FE00
DF80
C3C0
C1E0
C0E0
C070
C030
C038
E038
E018
E018
E038
E038
E030
F0F0
FFE0
3F80
ENDCHAR
STARTCHAR 010F
ENCODING 271
SWIDTH 562 0
DWIDTH 15 0
BBX 12 19 2 0
BITMAP
0E60
1F60
7BE0
F0E0
C060
0060
1F60
7FE0
F1E0
E0E0
C060
C060
C060
C060
C060
E0E0
71E0
3FF0
1E60
ENDCHAR
STARTCHAR 0112
ENCODING 274
SWIDTH 562 0
DWIDTH 15 0
BBX 12 22 1 0
BITMAP
7FF0
7FE0
0000
0000
FFF0
FFF0
E000
E000
E000
C000
C000
C1F0
FFF0
FFC0
E000
E000
E000
E000
E000
E010
FFF0
7FF0
ENDCHAR
STARTCHAR 0113
ENCODING 275
SWIDTH 562 0
DWIDTH 15 0
BBX 11 16 2 0
BITMAP
FFE0
FFE0
0000
0F00
3FC0
71C0
60E0
E1C0
CFC0
FF00
F800
C000
E060
71E0
7FC0
1F80
ENDCHAR
STARTCHAR 0114
ENCODING 276
SWIDTH 562 0
DWIDTH 15 0
BBX 12 24 1 0
BITMAP
6020
70E0
3FE0
0F80
0000
0000
FFF0
FFF0
E000
E000
E000
C000
C000
C1F0
FFF0
FFC0
E000
E000
E000
E000
E000
E010
FFF0
7FF0
ENDCHAR
STARTCHAR 0115
ENCODING 277
SWIDTH 562 0
DWIDTH 15 0
BBX 11 18 2 0
BITMAP
C060
F0E0
7FC0
1F00
0000
0F00
3FC0
71C0
60E0
E1C0
CFC0
FF00
F800
C000
E060
71E0
7FC0
1F80
ENDCHAR
STARTCHAR 0116
ENCODING 278
SWIDTH 562 0
DWIDTH 15 0
BBX 12 25 1 0
BITMAP
0700
0F00
0F00
0F00
0000
0000
0000
FFF0
FFF0
E000
E000
E000
C000
C000
C1F0
FFF0
FFC0
E000
E000
E000
E000
E000
E010
FFF0
7FF0
ENDCHAR
STARTCHAR 0117
ENCODING 279
SWIDTH 562 0
DWIDTH 15 0
BBX 11 18 2 1
BITMAP
0E00
1F00
1F00
0E00
0000
0F00
3FC0
71C0
60E0
E1C0
CFC0
FF00
F800
C000
E060
71E0
7FC0
1F80
ENDCHAR
STARTCHAR 0118
ENCODING 280
SWIDTH 562 0
DWIDTH 15 0
BBX 12 24 1 -6
BITMAP
FFF0
FFF0
E000
E000
E000
C000
C000
C1F0
FFF0
FFC0
E000
E000
E000
E000
E000
E000
FFF0
7FF0
0E00
0C00
0C00
0C40
0FC0
0780
ENDCHAR
STARTCHAR 0119
ENCODING 281
SWIDTH 562 0
DWIDTH 15 0
BBX 11 19 2 -6
BITMAP
0F00
3FC0
71C0
60E0
E1C0
CFC0
FF00
F800
C000
E060
71E0
7FC0
1F80
1800
1800
1800
1880
1F80
0F00
ENDCHAR
STARTCHAR 011A
ENCODING 282
SWIDTH 562 0
DWIDTH 15 0
BBX 12 26 1 0
BITMAP
0600
0F00
1FC0
79E0
7070
0000
0000
0000
FFF0
FFF0
E000
E000
E000
C000
C000
C1F0
FFF0
FFC0
E000
E000
E000
E000
E000
E010
FFF0
7FF0
ENDCHAR
STARTCHAR 011B
ENCODING 283
SWIDTH 562 0
DWIDTH 15 0
BBX 11 20 2 0
BITMAP
0400
0E00
1F00
7BC0
F1E0
C060
0000
0F00
3FC0
71C0
60E0
E1C0
CFC0
FF00
F800
C000
E060
71E0
7FC0
1F80
ENDCHAR
STARTCHAR 011C
ENCODING 284
SWIDTH 562 0
DWIDTH 15 0
BBX 13 29 1 0
BITMAP
0700
0700
0D80
1DC0
38C0
3060
7070
6030
0000
0000
03E0
07F8
0E38
1C00
3800
3000
7000
6000
6000
E3F8
EFF8
CC30
E030
E070
E060
70E0
79C0
3F80
1F00
ENDCHAR
STARTCHAR 011D
ENCODING 285
SWIDTH 562 0
DWIDTH 15 0
BBX 11 30 2 -7
BITMAP
0C00
0E00
1F00
3B00
3180
60C0
E0C0
C060
8000
0000
0FC0
3FC0
7860
6060
E060
C060
C060
C060
C0E0
E0E0
73E0
7F60
3E60
00E0
00C0
00C0
01C0
C780
FF00
7C00
ENDCHAR
STARTCHAR 011E
ENCODING 286
SWIDTH 562 0
DWIDTH 15 0
BBX 13 24 1 0
BITMAP
6030
7870
1FE0
0780
0000
03E0
07F8
0E38
1C00
3800
3000
7000
6000
6000
E3F8
EFF8
CC30
E030
E070
E060
70E0
79C0
3F80
1F00
ENDCHAR
STARTCHAR 011F
ENCODING 287
SWIDTH 562 0
DWIDTH 15 0
BBX 11 25 2 -7
BITMAP
C060
F1E0
3FC0
0F00
0000
0FC0
3FC0
7860
6060
E060
C060
C060
C060
C0E0
E0E0
73E0
7F60
3E60
00E0
00C0
00C0
01C0
C780
FF00
7C00
ENDCHAR
STARTCHAR 0120
ENCODING 288
SWIDTH 562 0
DWIDTH 15 0
BBX 13 25 1 0
BITMAP
0700
0F80
0F80
0700
0000
0000
03E0
07F8
0E38
1C00
3800
3000
7000
6000
6000
E3F8
EFF8
CC30
E030
E070
E060
70E0
79C0
3F80
1F00
ENDCHAR
STARTCHAR 0121
ENCODING 289
SWIDTH 562 0
DWIDTH 15 0
BBX 11 26 2 -7
BITMAP
0E00
1E00
1F00
1E00
0000
0000
0FC0
3FC0
7860
6060
E060
C060
C060
C060
C0E0
E0E0
73E0
7F60
3E60
00E0
00C0
00C0
01C0
C780
FF00
7C00
ENDCHAR
STARTCHAR 0122
ENCODING 290
SWIDTH 562 0
DWIDTH 15 0
BBX 13 33 1 -14
BITMAP
03E0
07F8
0E38
1C00
3800
3000
7000
6000
6000
E3F8
EFF8
CC30
E030
E070
E060
70E0
79C0
3F80
1F00
0000
0000
0000
0000
0000
0300
0300
0700
0700
0600
0E00
0E00
1C00
0800
ENDCHAR
STARTCHAR 0123
ENCODING 291
SWIDTH 562 0
DWIDTH 15 0
BBX 11 33 2 -7
BITMAP
0180
0180
0380
0380
0300
0700
0700
0E00
0600
0000
0000
0000
0000
0FC0
3FC0
7860
6060
E060
C060
C060
C060
C0E0
E0E0
73E0
7F60
3E60
00E0
00C0
00C0
01C0
C780
FF00
7C00
ENDCHAR
STARTCHAR 0124
ENCODING 292
SWIDTH 562 0
DWIDTH 15 0
BBX 12 29 1 0
BITMAP
0200
0700
0F00
0D80
19C0
38C0
7060
6060
6030
0000
0000
6030
6030
E030
E030
E030
E030
E030
E070
FFF0
FFB0
E030
E030
E030
E030
E030
E030
E030
E070
ENDCHAR
STARTCHAR 0125
ENCODING 293
SWIDTH 562 0
DWIDTH 15 0
BBX 11 31 2 0
BITMAP
0E00
1E00
1B00
3380
7180
60C0
E0E0
C060
0000
0000
0000
0000
E000
E000
E000
E000
E000
E000
E780
EFC0
FDC0
F0E0
E0E0
E0E0
E0E0
E0E0
E0E0
E0E0
E0E0
E0E0
C0E0
ENDCHAR
STARTCHAR 0128
ENCODING 296
SWIDTH 562 0
DWIDTH 15 0
BBX 12 25 1 0
BITMAP
1C20
3E60
37E0
33C0
2180
0000
0000
FFF0
FFF0
0700
0700
0700
0700
0700
0700
0700
0700
0700
0700
0700
0700
0600
0600
FFF0
FFF0
ENDCHAR
STARTCHAR 0129
ENCODING 297
SWIDTH 562 0
DWIDTH 15 0
BBX 11 19 2 0
BITMAP
3840
7CC0
6DC0
6780
4300
0000
0000
7E00
7E00
0600
0600
0E00
0E00
0E00
0E00
0E00
0E00
FFE0
FFE0
ENDCHAR
STARTCHAR 012A
ENCODING 298
SWIDTH 562 0
DWIDTH 15 0
BBX 12 22 1 0
BITMAP
7FF0
7FF0
0000
0000
FFF0
FFF0
0700
0700
0700
0700
0700
0700
0700
0700
0700
0700
0700
0700
0600
0600
FFF0
FFF0
ENDCHAR
STARTCHAR 012B
ENCODING 299
SWIDTH 562 0
DWIDTH 15 0
BBX 11 17 2 0
BITMAP
FFE0
FFE0
0000
0000
7E00
7E00
0600
0600
0600
0E00
0E00
0E00
0E00
0E00
0E00
FFE0
FFE0
ENDCHAR
STARTCHAR 012C
ENCODING 300
SWIDTH 562 0
DWIDTH 15 0
BBX 12 24 1 0
BITMAP
6020
70E0
3FE0
0F80
0000
0000
FFF0
FFF0
0700
0700
0700
0700
0700
0700
0700
0700
0700
0700
0700
0700
0600
0600
FFF0
FFF0
ENDCHAR
STARTCHAR 012D
ENCODING 301
SWIDTH 562 0
DWIDTH 15 0
BBX 11 19 2 0
BITMAP
4040
E1C0
FF80
7F00
0000
0000
7E00
7E00
0600
0600
0600
0E00
0E00
0E00
0E00
0E00
0E00
FFE0
FFE0
ENDCHAR
STARTCHAR 012E
ENCODING 302
SWIDTH 562 0
DWIDTH 15 0
BBX 12 25 1 -7
BITMAP
FFF0
FFF0
0700
0700
0700
0700
0700
0700
0700
0700
0700
0700
0700
0700
0600
0600
FFF0
FFF0
0E00
0C00
0C00
0C00
0EC0
0FC0
0780
ENDCHAR
STARTCHAR 012F
ENCODING 303
SWIDTH 562 0
DWIDTH 15 0
BBX 11 25 2 -7
BITMAP
0400
0E00
1E00
0E00
0000
0000
7E00
7E00
0600
0600
0600
0600
0600
0600
0600
0600
FFE0
FFE0
1C00
1800
1800
1800
1D80
1F80
0F00
ENDCHAR
STARTCHAR 0130
ENCODING 304
SWIDTH 562 0
DWIDTH 15 0
BBX 12 24 1 0
BITMAP
0700
0F00
0F00
0600
0000
0000
FFF0
FFF0
0700
0700
0700
0700
0700
0700
0700
0700
0700
0700
0700
0700
0600
0600
FFF0
FFF0
ENDCHAR
STARTCHAR 0131
ENCODING 305
SWIDTH 562 0
DWIDTH 15 0
BBX 11 12 2 0
BITMAP
7E00
7E00
0600
0600
0600
0600
0600
0600
0600
0600
FFE0
FFE0
ENDCHAR
STARTCHAR 0134
ENCODING 308
SWIDTH 562 0
DWIDTH 15 0
BBX 13 29 1 0
BITMAP
0600
0700
0F80
1D80
18C0
38E0
7060
6030
6030
0000
0000
7FF8
7FF8
0180
0180
0180
0180
0180
0180
0180
0180
0180
C180
C180
E180
6380
3F00
3F00
0E00
ENDCHAR
STARTCHAR 0135
ENCODING 309
SWIDTH 562 0
DWIDTH 15 0
BBX 12 30 2 -7
BITMAP
0200
0700
0F80
1D80
18C0
38C0
7060
6070
6030
0000
0000
7F80
7F80
0180
0180
0180
0180
0180
0180
0180
0180
0180
0180
0180
0180
0380
0780
1F00
FE00
F800
ENDCHAR
STARTCHAR 0136
ENCODING 310
SWIDTH 562 0
DWIDTH 15 0
BBX 12 33 1 -15
BITMAP
C020
E060
E0E0
E3C0
E780
CF00
DE00
FC00
F800
F800
DC00
DE00
EF00
E780
E1C0
E0E0
E070
E030
4010
0000
0000
0000
0000
0000
0700
0700
0600
0E00
0E00
0C00
1C00
1C00
1800
ENDCHAR
STARTCHAR 0137
ENCODING 311
SWIDTH 562 0
DWIDTH 15 0
BBX 11 34 2 -15
BITMAP
E000
E000
E000
E000
E000
E000
E0C0
E1C0
E380
E700
EE00
FC00
FE00
F700
E380
E380
E1C0
E0E0
E060
4020
0000
0000
0000
0000
0000
0700
0600
0600
0E00
0E00
1C00
1C00
3800
1800
ENDCHAR
STARTCHAR 0139
ENCODING 313
SWIDTH 562 0
DWIDTH 15 0
BBX 12 27 1 0
BITMAP
0080
0180
0380
0700
0E00
0C00
1800
0000
0000
6000
6000
6000
6000
6000
6000
6000
6000
6000
6000
6000
6000
6000
E000
E000
E030
FFF0
FFE0
ENDCHAR
STARTCHAR 013A
ENCODING 314
SWIDTH 562 0
DWIDTH 15 0
BBX 12 29 1 0
BITMAP
0180
0380
0380
0700
0E00
1C00
0000
0000
0000
0000
3F00
7F00
0700
0700
0700
0700
0700
0700
0700
0700
0700
0700
0700
0700
0700
0700
0700
FFF0
7FF0
ENDCHAR
STARTCHAR 013B
ENCODING 315
SWIDTH 562 0
DWIDTH 15 0
BBX 12 33 1 -15
BITMAP
6000
6000
6000
6000
6000
6000
6000
6000
6000
6000
6000
6000
6000
E000
E000
E030
FFF0
FFE0
0000
0000
0000
0000
0000
0000
0380
0380
0300
0700
0700
0600
0E00
0C00
0800
ENDCHAR
STARTCHAR 013C
ENCODING 316
SWIDTH 562 0
DWIDTH 15 0
BBX 12 34 1 -15
BITMAP
3F00
7F00
0700
0700
0700
0700
0700
0700
0700
0700
0700
0700
0700
0700
0700
0700
0700
FFF0
7FF0
0000
0000
0000
0000
0000
0000
0180
0380
0300
0300
0700
0700
0E00
0E00
0C00
ENDCHAR
STARTCHAR 0143
ENCODING 323
SWIDTH 562 0
DWIDTH 15 0
BBX 12 26 1 0
BITMAP
0180
0380
0700
0700
0E00
1C00
0000
0000
4000
F030
F030
F030
F830
D830
DC30
CC30
CE30
C630
C730
C3B0
C3B0
C1F0
C0F0
C0F0
C070
C070
ENDCHAR
STARTCHAR 0144
ENCODING 324
SWIDTH 562 0
DWIDTH 15 0
BBX 11 21 2 0
BITMAP
0300
0700
0700
0E00
1C00
3800
1000
0000
CF80
FF80
FDC0
F0C0
E0C0
C0C0
C0C0
C0C0
C0E0
C0E0
C0E0
C0E0
C060
ENDCHAR
STARTCHAR 0145
ENCODING 325
SWIDTH 562 0
DWIDTH 15 0
BBX 12 33 1 -15
BITMAP
4000
F030
F030
F030
F830
D830
DC30
CC30
CE30
C630
C730
C3B0
C3B0
C1F0
C0F0
C0F0
C070
C070
0000
0000
0000
0000
0000
0000
0180
0380
0380
0300
0700
0700
0E00
0E00
0C00
ENDCHAR
STARTCHAR 0146
ENCODING 326
SWIDTH 562 0
DWIDTH 15 0
BBX 11 27 2 -14
BITMAP
CF80
FF80
FDC0
F0C0
E0C0
C0C0
C0C0
C0C0
C0E0
C0E0
C0E0
C0E0
C060
0000
0000
0000
0000
0000
0200
0700
0700
0600
0600
0E00
0E00
1C00
1C00
ENDCHAR
STARTCHAR 0147
ENCODING 327
SWIDTH 562 0
DWIDTH 15 0
BBX 12 25 1 0
BITMAP
0700
0F80
1FC0
78F0
6070
0000
0000
4000
F030
F030
F030
F830
D830
DC30
CC30
CE30
C630
C730
C3B0
C3B0
C1F0
C0F0
C0F0
C070
C070
ENDCHAR
STARTCHAR 0148
ENCODING 328
SWIDTH 562 0
DWIDTH 15 0
BBX 11 20 2 0
BITMAP
0C00
1E00
3F80
73C0
E0E0
8040
0000
CF80
FF80
FDC0
F0C0
E0C0
C0C0
C0C0
C0C0
C0E0
C0E0
C0E0
C0E0
C060
ENDCHAR
STARTCHAR 014C
ENCODING 332
SWIDTH 562 0
DWIDTH 15 0
BBX 12 22 1 0
BITMAP
7FF0
7FF0
0000
0000
0F80
1FE0
38E0
7070
6030
6030
E030
E030
E030
E030
E030
E030
E030
E070
6070
71E0
3FC0
1F80
ENDCHAR
STARTCHAR 014D
ENCODING 333
SWIDTH 562 0
DWIDTH 15 0
BBX 12 17 1 -1
BITMAP
7FF0
7FE0
0000
0F80
1FC0
38E0
7060
6070
6070
6070
E070
6070
6070
7060
3DE0
1FC0
0F00
ENDCHAR
STARTCHAR 014E
ENCODING 334
SWIDTH 562 0
DWIDTH 15 0
BBX 12 24 1 0
BITMAP
6030
7070
3FE0
0F80
0000
0000
0F80
1FE0
38E0
7070
6030
6030
E030
E030
E030
E030
E030
E030
E030
E070
6070
71E0
3FC0
1F80
ENDCHAR
STARTCHAR 014F
ENCODING 335
SWIDTH 562 0
DWIDTH 15 0
BBX 12 19 1 -1
BITMAP
6020
70E0
3FE0
0F80
0000
0F80
1FC0
38E0
7060
6070
6070
6070
E070
6070
6070
7060
3DE0
1FC0
0F00
ENDCHAR
STARTCHAR 0150
ENCODING 336
SWIDTH 562 0
DWIDTH 15 0
BBX 12 26 1 0
BITMAP
0EC0
0EE0
1DC0
1B80
3B00
3200
0000
0000
0F80
1FE0
38E0
7070
6030
6030
E030
E030
E030
E030
E030
E030
E030
E070
6070
71E0
3FC0
1F80
ENDCHAR
STARTCHAR 0151
ENCODING 337
SWIDTH 562 0
DWIDTH 15 0
BBX 12 22 1 -1
BITMAP
0400
0EC0
0DC0
1DC0
1B80
3300
3600
0000
0F80
1FC0
38E0
7060
6070
6070
6070
E070
6070
6070
7060
3DE0
1FC0
0F00
ENDCHAR
STARTCHAR 0152
ENCODING 338
SWIDTH 562 0
DWIDTH 15 0
BBX 14 18 0 -1
BITMAP
0600
1FFC
31FC
6180
6180
6180
C180
C18C
C1FC
C1E0
C180
C180
C180
C180
E180
6180
7FFC
3FFC
ENDCHAR
STARTCHAR 0153
ENCODING 339
SWIDTH 562 0
DWIDTH 15 0
BBX 15 13 0 0
BITMAP
1C70
3EF8
638C
638C
C10C
C33C
C3F0
C3C0
C300
4306
638E
7FFC
1CF8
ENDCHAR
STARTCHAR 0154
ENCODING 340
SWIDTH 562 0
DWIDTH 15 0
BBX 12 27 1 0
BITMAP
0080
0180
0380
0700
0700
0E00
0C00
0000
0000
7800
FF00
EFC0
61E0
6070
6030
6030
6030
60F0
7FE0
7E00
7E00
6700
63C0
61E0
60F0
6070
6030
ENDCHAR
STARTCHAR 0155
ENCODING 341
SWIDTH 562 0
DWIDTH 15 0
BBX 11 21 2 0
BITMAP
0300
0700
0700
0E00
1C00
1800
0000
0000
63C0
6FE0
7CE0
78E0
F040
E000
E000
E000
E000
E000
E000
6000
6000
ENDCHAR
STARTCHAR 0156
ENCODING 342
SWIDTH 562 0
DWIDTH 15 0
BBX 12 33 1 -15
BITMAP
7800
FF00
EFC0
61E0
6070
6030
6030
6030
60F0
7FE0
7E00
7E00
6700
63C0
61E0
60F0
6070
6030
0000
0000
0000
0000
0000
0040
00C0
00C0
01C0
01C0
0180
0380
0380
0700
0200
ENDCHAR
STARTCHAR 0157
ENCODING 343
SWIDTH 562 0
DWIDTH 15 0
BBX 11 28 2 -15
BITMAP
63C0
6FE0
7CE0
78E0
F040
E000
E000
E000
E000
E000
E000
6000
6000
0000
0000
0000
0000
0000
0200
0700
0700
0600
0E00
0E00
0C00
1C00
1C00
1000
ENDCHAR
STARTCHAR 0158
ENCODING 344
SWIDTH 562 0
DWIDTH 15 0
BBX 12 25 1 0
BITMAP
0700
0F80
1DC0
78F0
6030
0000
0000
7800
FF00
EFC0
61E0
6070
6030
6030
6030
60F0
7FE0
7E00
7E00
6700
63C0
61E0
60F0
6070
6030
ENDCHAR
STARTCHAR 0159
ENCODING 345
SWIDTH 562 0
DWIDTH 15 0
BBX 11 20 2 0
BITMAP
0E00
1F00
3F80
71C0
E0E0
0000
0000
63C0
6FE0
7CE0
78E0
F040
E000
E000
E000
E000
E000
E000
6000
6000
ENDCHAR
STARTCHAR 015A
ENCODING 346
SWIDTH 562 0
DWIDTH 15 0
BBX 13 27 1 0
BITMAP
0180
0380
0380
0700
0E00
1C00
0000
0000
07F0
1FF0
3800
7000
6000
6000
7000
3F00
1FE0
03F0
0070
0038
0038
0038
0030
C070
F1E0
7FC0
1F00
ENDCHAR
STARTCHAR 015B
ENCODING 347
SWIDTH 562 0
DWIDTH 15 0
BBX 11 21 2 0
BITMAP
0300
0300
0700
0E00
1C00
1800
1000
0000
07C0
3FC0
78C0
60C0
E000
7E00
1FC0
01E0
0060
C0E0
E3C0
FF80
3E00
ENDCHAR
STARTCHAR 015C
ENCODING 348
SWIDTH 562 0
DWIDTH 15 0
BBX 13 29 1 0
BITMAP
0700
0F00
0D80
19C0
38C0
3060
7060
6030
0000
0000
07F0
1FF0
3800
7000
6000
6000
7000
3F00
1FE0
03F0
0070
0038
0038
0038
0030
C070
F1E0
7FC0
1F00
ENDCHAR
STARTCHAR 015D
ENCODING 349
SWIDTH 562 0
DWIDTH 15 0
BBX 11 23 2 0
BITMAP
0400
0E00
1F00
1B00
3180
71C0
E0C0
C060
C060
0000
07C0
3FC0
78C0
60C0
E000
7E00
1FC0
01E0
0060
C0E0
E3C0
FF80
3E00
ENDCHAR
STARTCHAR 015E
ENCODING 350
SWIDTH 562 0
DWIDTH 15 0
BBX 13 25 1 -6
BITMAP
07F0
1FF0
3800
7000
6000
6000
7000
3F00
1FE0
03F0
0070
0038
0038
0038
0030
C070
F1E0
7FC0
1F00
0700
0380
00C0
18C0
1F80
0F00
ENDCHAR
STARTCHAR 015F
ENCODING 351
SWIDTH 562 0
DWIDTH 15 0
BBX 11 19 2 -6
BITMAP
07C0
3FC0
78C0
60C0
E000
7E00
1FC0
01E0
0060
C0E0
E3C0
FF80
3E00
0E00
0300
0180
3180
3F00
1E00
ENDCHAR
STARTCHAR 0160
ENCODING 352
SWIDTH 562 0
DWIDTH 15 0
BBX 13 26 1 0
BITMAP
0700
0F80
1FC0
78E0
7070
0000
0000
07F0
1FF0
3800
7000
6000
6000
7000
3F00
1FE0
03F0
0070
0038
0038
0038
0030
C070
F1E0
7FC0
1F00
ENDCHAR
STARTCHAR 0161
ENCODING 353
SWIDTH 562 0
DWIDTH 15 0
BBX 11 20 2 0
BITMAP
0400
0E00
3F00
7BC0
E0E0
C060
0000
07C0
3FC0
78C0
60C0
E000
7E00
1FC0
01E0
0060
C0E0
E3C0
FF80
3E00
ENDCHAR
STARTCHAR 0164
ENCODING 356
SWIDTH 562 0
DWIDTH 15 0
BBX 13 26 1 0
BITMAP
0200
0700
1F80
3DE0
70F0
6030
0000
0000
FFF0
FFF8
0700
0700
0700
0700
0700
0700
0700
0700
0700
0700
0700
0700
0700
0700
0700
0300
ENDCHAR
STARTCHAR 0165
ENCODING 357
SWIDTH 562 0
DWIDTH 15 0
BBX 11 20 2 0
BITMAP
0E00
3F00
7F80
F1C0
F0E0
3000
3000
FFC0
FFC0
3000
3000
3000
3000
3000
3000
3000
3000
3840
1FE0
0FC0
ENDCHAR
STARTCHAR 0168
ENCODING 360
SWIDTH 562 0
DWIDTH 15 0
BBX 13 25 1 0
BITMAP
1C20
1E60
3760
33C0
21C0
0000
0000
C018
C018
C018
C018
C018
C018
C018
E018
E018
E018
E038
E038
E038
E030
7070
78E0
3FC0
0F80
ENDCHAR
STARTCHAR 0169
ENCODING 361
SWIDTH 562 0
DWIDTH 15 0
BBX 11 19 2 0
BITMAP
3840
3CC0
6FC0
6780
4380
0000
C060
C0E0
C0E0
C0E0
C0E0
C0E0
C0E0
C0E0
C0E0
E0E0
E3E0
7FE0
3C60
ENDCHAR
STARTCHAR 016A
ENCODING 362
SWIDTH 562 0
DWIDTH 15 0
BBX 13 22 1 0
BITMAP
7FF0
7FF0
0000
0000
C018
C018
C018
C018
C018
C018
C018
E018
E018
E018
E038
E038
E038
E030
7070
78E0
3FC0
0F80
ENDCHAR
STARTCHAR 016B
ENCODING 363
SWIDTH 562 0
DWIDTH 15 0
BBX 11 17 2 0
BITMAP
FFE0
FFE0
0000
0000
C060
C0E0
C0E0
C0E0
C0E0
C0E0
C0E0
C0E0
C0E0
E0E0
E3E0
7FE0
3C60
ENDCHAR
STARTCHAR 016C
ENCODING 364
SWIDTH 562 0
DWIDTH 15 0
BBX 13 24 1 0
BITMAP
6030
7870
3FE0
0F80
0000
0000
C018
C018
C018
C018
C018
C018
C018
E018
E018
E018
E038
E038
E038
E030
7070
78E0
3FC0
0F80
ENDCHAR
STARTCHAR 016D
ENCODING 365
SWIDTH 562 0
DWIDTH 15 0
BBX 11 19 2 0
BITMAP
4060
E0E0
FFC0
3F00
0000
0000
C060
C0E0
C0E0
C0E0
C0E0
C0E0
C0E0
C0E0
C0E0
E0E0
E3E0
7FE0
3C60
ENDCHAR
STARTCHAR 016E
ENCODING 366
SWIDTH 562 0
DWIDTH 15 0
BBX 13 25 1 0
BITMAP
0F80
0C80
0880
0D80
0700
0000
0000
C018
C018
C018
C018
C018
C018
C018
E018
E018
E018
E038
E038
E038
E030
7070
78E0
3FC0
0F80
ENDCHAR
STARTCHAR 016F
ENCODING 367
SWIDTH 562 0
DWIDTH 15 0
BBX 11 20 2 0
BITMAP
0E00
1B00
1100
1B00
1F00
0000
0000
C060
C0E0
C0E0
C0E0
C0E0
C0E0
C0E0
C0E0
C0E0
E0E0
E3E0
7FE0
3C60
ENDCHAR
STARTCHAR 0170
ENCODING 368
SWIDTH 562 0
DWIDTH 15 0
BBX 13 27 1 0
BITMAP
0400
0EE0
0EE0
1DC0
1B80
3B00
3200
0000
0000
C018
C018
C018
C018
C018
C018
C018
E018
E018
E018
E038
E038
E038
E030
7070
78E0
3FC0
0F80
ENDCHAR
STARTCHAR 0171
ENCODING 369
SWIDTH 562 0
DWIDTH 15 0
BBX 11 21 2 0
BITMAP
0D80
1DC0
1B80
3B00
7700
6600
0000
0000
C060
C0E0
C0E0
C0E0
C0E0
C0E0
C0E0
C0E0
C0E0
E0E0
E3E0
7FE0
3C60
ENDCHAR
STARTCHAR 0172
ENCODING 370
SWIDTH 562 0
DWIDTH 15 0
BBX 13 25 1 -7
BITMAP
C018
C018
C018
C018
C018
C018
C018
C018
E018
E018
E038
E038
E038
E030
6030
7070
3FE0
1FC0
0600
0C00
0C00
0C00
0E40
0FC0
0780
ENDCHAR
STARTCHAR 0173
ENCODING 371
SWIDTH 562 0
DWIDTH 15 0
BBX 11 20 2 -7
BITMAP
C060
C0E0
C0E0
C0E0
C0E0
C0E0
C0E0
C0E0
C0E0
E0E0
E3E0
7FE0
3E60
1C00
1800
1800
1800
1D80
1F80
0F00
ENDCHAR
STARTCHAR 0174
ENCODING 372
SWIDTH 562 0
DWIDTH 15 0
BBX 13 28 1 0
BITMAP
0700
0F00
0D80
19C0
38C0
3060
7060
6030
0000
0000
C318
C718
C718
C718
C518
CD98
CD98
CD98
CDB0
CDB0
EDB0
6DB0
69B0
79F0
78F0
78F0
78E0
78E0
ENDCHAR
STARTCHAR 0175
ENCODING 373
SWIDTH 562 0
DWIDTH 15 0
BBX 13 24 1 0
BITMAP
0200
0700
0F00
1D80
18C0
38C0
7060
6070
6030
0000
0000
C718
C718
C718
C718
ED38
EDB0
6DB0
6DB0
69B0
69B0
39E0
38E0
30C0
ENDCHAR
STARTCHAR 0176
ENCODING 374
SWIDTH 562 0
DWIDTH 15 0
BBX 13 29 1 -1
BITMAP
0700
0F00
0D80
19C0
38C0
3060
7070
6030
0000
0000
4010
E038
E038
6070
7070
30E0
38E0
1DC0
1DC0
0F80
0F80
0700
0700
0E00
0E00
1C00
1C00
1800
1800
ENDCHAR
STARTCHAR 0177
ENCODING 375
SWIDTH 562 0
DWIDTH 15 0
BBX 13 31 1 -8
BITMAP
0200
0700
0F80
0D80
18C0
38E0
7060
6030
6030
0000
4010
E038
E038
6070
7070
3060
38E0
38C0
1DC0
1D80
0F80
0F00
0700
0600
0E00
0C00
1C00
1800
3800
3000
3000
ENDCHAR
STARTCHAR 0178
ENCODING 376
SWIDTH 562 0
DWIDTH 15 0
BBX 13 24 1 -1
BITMAP
19C0
3DC0
18C0
0000
0000
C018
E038
E030
6070
7070
38E0
38C0
1DC0
1D80
0F80
0780
0700
0700
0E00
0E00
1C00
1C00
3800
1000
ENDCHAR
STARTCHAR 0179
ENCODING 377
SWIDTH 562 0
DWIDTH 15 0
BBX 13 27 1 0
BITMAP
0180
0180
0380
0700
0E00
1C00
0800
0000
0000
7FF0
7FF0
0060
00E0
01C0
0180
0380
0700
0600
0E00
1C00
1800
3800
7000
7000
E000
FFF8
FFF8
ENDCHAR
STARTCHAR 017A
ENCODING 378
SWIDTH 562 0
DWIDTH 15 0
BBX 11 21 2 0
BITMAP
0100
0300
0700
0E00
1C00
3800
3000
0000
0000
FFE0
FFE0
01C0
0180
0780
0F00
1E00
3800
7000
E000
FFE0
FFE0
ENDCHAR
STARTCHAR 017B
ENCODING 379
SWIDTH 562 0
DWIDTH 15 0
BBX 13 25 1 0
BITMAP
0200
0F00
0F80
0F00
0600
0000
0000
7FF0
7FF0
0060
00E0
01C0
0180
0380
0700
0600
0E00
1C00
1800
3800
7000
7000
E000
FFF8
FFF8
ENDCHAR
STARTCHAR 017C
ENCODING 380
SWIDTH 562 0
DWIDTH 15 0
BBX 11 18 2 0
BITMAP
0E00
1F00
1E00
0E00
0000
0000
FFE0
FFE0
01C0
0180
0780
0F00
1E00
3800
7000
E000
FFE0
FFE0
ENDCHAR
STARTCHAR 017D
ENCODING 381
SWIDTH 562 0
DWIDTH 15 0
BBX 13 26 1 0
BITMAP
0200
0F00
1FC0
3DE0
7070
6030
0000
0000
7FF0
7FF0
0060
00E0
01C0
0180
0380
0700
0600
0E00
1C00
1800
3800
7000
7000
E000
FFF8
FFF8
ENDCHAR
STARTCHAR 017E
ENCODING 382
SWIDTH 562 0
DWIDTH 15 0
BBX 11 19 2 0
BITMAP
0E00
1F00
7B80
F1E0
C060
0000
0000
FFE0
FFE0
01C0
0180
0780
0F00
1E00
3800
7000
E000
FFE0
FFE0
ENDCHAR
STARTCHAR 017F
ENCODING 383
SWIDTH 562 0
DWIDTH 15 0
BBX 11 19 2 0
BITMAP
03C0
0FE0
1F00
1C00
1800
3800
3800
F800
F800
1800
1800
1800
1800
1800
1800
1800
1800
FFC0
FF80
ENDCHAR
STARTCHAR 01BF
ENCODING 447
SWIDTH 562 0
DWIDTH 15 0
BBX 11 21 2 -7
BITMAP
C000
CF80
FFC0
F0E0
C0E0
C0E0
C0E0
C0E0
C1C0
C1C0
C380
CF00
DC00
F800
F000
C000
C000
C000
E000
E000
4000
ENDCHAR
STARTCHAR 01F7
ENCODING 503
SWIDTH 562 0
DWIDTH 15 0
BBX 12 18 1 0
BITMAP
7FC0
FFE0
E070
E030
E030
E070
E070
E0E0
E0C0
61C0
6780
7E00
7C00
7000
6000
6000
6000
6000
ENDCHAR
STARTCHAR 0218
ENCODING 536
SWIDTH 562 0
DWIDTH 15 0
BBX 13 33 1 -14
BITMAP
07F0
1FF0
3800
7000
6000
6000
7000
3F00
1FE0
03F0
0070
0038
0038
0038
0030
C070
F1E0
7FC0
1F00
0000
0000
0000
0000
0000
0380
0300
0300
0700
0700
0E00
0E00
1C00
0C00
ENDCHAR
STARTCHAR 0219
ENCODING 537
SWIDTH 562 0
DWIDTH 15 0
BBX 11 26 2 -14
BITMAP
07C0
3FC0
78C0
60C0
E000
7E00
1FC0
01E0
0060
C0E0
E3C0
FF80
3E00
0000
0000
0000
0000
0200
0700
0700
0600
0E00
0E00
0C00
1C00
1C00
ENDCHAR
STARTCHAR 021A
ENCODING 538
SWIDTH 562 0
DWIDTH 15 0
BBX 13 33 1 -15
BITMAP
FFF0
FFF8
0700
0700
0700
0700
0700
0700
0700
0700
0700
0700
0700
0700
0700
0700
0700
0300
0000
0000
0000
0000
0000
0000
0180
0380
0380
0300
0700
0700
0600
0E00
0C00
ENDCHAR
STARTCHAR 021B
ENCODING 539
SWIDTH 562 0
DWIDTH 15 0
BBX 11 32 2 -14
BITMAP
3000
3000
3000
3000
3000
FFC0
FFC0
3000
3000
3000
3000
3000
3000
3000
3000
3840
1FE0
0FC0
0000
0000
0000
0000
0000
0300
0700
0700
0600
0E00
0E00
0C00
1C00
1800
ENDCHAR
STARTCHAR 0237
ENCODING 567
SWIDTH 562 0
DWIDTH 15 0
BBX 9 19 2 -7
BITMAP
7F80
7F80
0180
0180
0180
0180
0180
0180
0180
0180
0180
0180
0180
0180
0380
0780
1F00
FE00
F800
ENDCHAR
STARTCHAR 02C6
ENCODING 710
SWIDTH 562 0
DWIDTH 15 0
BBX 11 9 2 12
BITMAP
0400
0E00
1F00
3B00
3180
70C0
E0C0
C060
C060
ENDCHAR
STARTCHAR 02C7
ENCODING 711
SWIDTH 562 0
DWIDTH 15 0
BBX 11 5 2 16
BITMAP
0E00
1F00
3F80
F1E0
E0E0
ENDCHAR
STARTCHAR 02D8
ENCODING 728
SWIDTH 562 0
DWIDTH 15 0
BBX 11 4 2 13
BITMAP
C060
E0E0
7FC0
1F00
ENDCHAR
STARTCHAR 02D9
ENCODING 729
SWIDTH 562 0
DWIDTH 15 0
BBX 5 4 5 16
BITMAP
70
F8
F0
70
ENDCHAR
STARTCHAR 02DA
ENCODING 730
SWIDTH 562 0
DWIDTH 15 0
BBX 6 5 4 14
BITMAP
78
EC
CC
CC
78
ENDCHAR
STARTCHAR 02DB
ENCODING 731
SWIDTH 562 0
DWIDTH 15 0
BBX 6 8 5 -7
BITMAP
30
60
C0
C0
C0
E4
FC
78
ENDCHAR
STARTCHAR 02DC
ENCODING 732
SWIDTH 562 0
DWIDTH 15 0
BBX 9 5 3 16
BITMAP
7080
F980
DB80
DF00
8F00
ENDCHAR
STARTCHAR 02DD
ENCODING 733
SWIDTH 562 0
DWIDTH 15 0
BBX 8 6 4 15
BITMAP
33
77
6E
EE
DC
98
ENDCHAR
STARTCHAR 1E80
ENCODING 7808
SWIDTH 562 0
DWIDTH 15 0
BBX 13 26 1 0
BITMAP
1C00
1C00
0E00
0700
0380
0180
0000
0000
C318
C718
C718
C718
C518
CD98
CD98
CD98
CDB0
CDB0
EDB0
6DB0
69B0
79F0
78F0
78F0
78E0
78E0
ENDCHAR
STARTCHAR 1E81
ENCODING 7809
SWIDTH 562 0
DWIDTH 15 0
BBX 13 22 1 0
BITMAP
0800
1C00
0E00
0600
0700
0380
0180
0000
0000
C718
C718
C718
C718
ED38
EDB0
6DB0
6DB0
69B0
69B0
39E0
38E0
30C0
ENDCHAR
STARTCHAR 1E82
ENCODING 7810
SWIDTH 562 0
DWIDTH 15 0
BBX 13 26 1 0
BITMAP
0180
0380
0700
0700
0E00
1C00
0000
0000
C318
C718
C718
C718
C518
CD98
CD98
CD98
CDB0
CDB0
EDB0
6DB0
69B0
79F0
78F0
78F0
78E0
78E0
ENDCHAR
STARTCHAR 1E83
ENCODING 7811
SWIDTH 562 0
DWIDTH 15 0
BBX 13 22 1 0
BITMAP
0080
0180
0380
0700
0E00
0C00
1800
0000
0000
C718
C718
C718
C718
ED38
EDB0
6DB0
6DB0
69B0
69B0
39E0
38E0
30C0
ENDCHAR
STARTCHAR 1E84
ENCODING 7812
SWIDTH 562 0
DWIDTH 15 0
BBX 13 23 1 0
BITMAP
19C0
3DC0
19C0
0000
0000
C718
C718
C718
C718
C518
CD98
CD98
CDB0
CDB0
CDB0
EDB0
6DB0
69B0
79F0
78F0
78F0
78E0
38E0
ENDCHAR
STARTCHAR 1E85
ENCODING 7813
SWIDTH 562 0
DWIDTH 15 0
BBX 13 17 1 0
BITMAP
19C0
3DC0
18C0
0000
0000
C718
C718
C718
C738
EDB0
EDB0
6DB0
69B0
69B0
39E0
38E0
30E0
ENDCHAR
STARTCHAR 1EF2
ENCODING 7922
SWIDTH 562 0
DWIDTH 15 0
BBX 13 27 1 -1
BITMAP
1C00
0E00
0E00
0700
0380
0180
0000
0000
4010
E038
E038
6070
7070
30E0
38E0
1DC0
1DC0
0F80
0F80
0700
0700
0E00
0E00
1C00
1C00
1800
1800
ENDCHAR
STARTCHAR 1EF3
ENCODING 7923
SWIDTH 562 0
DWIDTH 15 0
BBX 13 29 1 -8
BITMAP
0800
0C00
0E00
0700
0380
0180
0080
0000
4010
E038
E038
6070
7070
3060
38E0
38C0
1DC0
1D80
0F80
0F00
0700
0600
0E00
0C00
1C00
1800
3800
3000
3000
ENDCHAR
STARTCHAR 2013
ENCODING 8211
SWIDTH 562 0
DWIDTH 15 0
BBX 9 2 3 6
BITMAP
FF80
FF80
ENDCHAR
STARTCHAR 2014
ENCODING 8212
SWIDTH 562 0
DWIDTH 15 0
BBX 13 2 1 6
BITMAP
FFF8
FFF8
ENDCHAR
STARTCHAR 2018
ENCODING 8216
SWIDTH 562 0
DWIDTH 15 0
BBX 4 6 5 12
BITMAP
C0
E0
E0
70
70
30
ENDCHAR
STARTCHAR 2019
ENCODING 8217
SWIDTH 562 0
DWIDTH 15 0
BBX 4 7 5 11
BITMAP
30
30
70
70
E0
E0
40
ENDCHAR
STARTCHAR 201A
ENCODING 8218
SWIDTH 562 0
DWIDTH 15 0
BBX 4 7 5 12
BITMAP
40
E0
E0
E0
60
70
70
ENDCHAR
STARTCHAR 201C
ENCODING 8220
SWIDTH 562 0
DWIDTH 15 0
BBX 8 8 3 12
BITMAP
0C
0C
EE
E6
77
73
3B
30
ENDCHAR
STARTCHAR 201D
ENCODING 8221
SWIDTH 562 0
DWIDTH 15 0
BBX 9 8 3 11
BITMAP
1800
3B00
3380
7300
7700
E600
4E00
0C00
ENDCHAR
STARTCHAR 2020
ENCODING 8224
SWIDTH 562 0
DWIDTH 15 0
BBX 13 25 1 -4
BITMAP
0300
0300
0300
0300
0300
0300
7FF8
FFF8
0300
0300
0300
0300
0300
0300
0300
0300
0300
0300
0300
0700
0700
0700
0700
0700
0600
ENDCHAR
STARTCHAR 2021
ENCODING 8225
SWIDTH 562 0
DWIDTH 15 0
BBX 13 26 1 -5
BITMAP
0300
0300
0300
0300
0300
0300
07F8
FFF8
FF00
0300
0300
0300
FFF8
FFF8
0300
0300
0300
0300
0300
0700
0700
0700
0700
0700
0700
0200
ENDCHAR
STARTCHAR 2022
ENCODING 8226
SWIDTH 562 0
DWIDTH 15 0
BBX 5 5 5 8
BITMAP
70
F8
F8
F0
60
ENDCHAR
STARTCHAR 2026
ENCODING 8230
SWIDTH 562 0
DWIDTH 15 0
BBX 11 3 2 0
BITMAP
4460
CEE0
CE60
ENDCHAR
STARTCHAR 2039
ENCODING 8249
SWIDTH 562 0
DWIDTH 15 0
BBX 8 12 3 2
BITMAP
02
0F
1C
38
70
E0
E0
70
38
1E
0F
02
ENDCHAR
STARTCHAR 203A
ENCODING 8250
SWIDTH 562 0
DWIDTH 15 0
BBX 7 12 3 2
BITMAP
80
E0
70
38
1E
0E
0E
1C
38
F0
E0
80
ENDCHAR
STARTCHAR 2044
ENCODING 8260
SWIDTH 562 0
DWIDTH 15 0
BBX 12 20 1 -2
BITMAP
0030
0030
0070
0070
00E0
00C0
01C0
0180
0380
0700
0600
0E00
0C00
1C00
1800
3800
7000
7000
E000
E000
ENDCHAR
STARTCHAR 20AC
ENCODING 8364
SWIDTH 562 0
DWIDTH 15 0
BBX 13 18 1 0
BITMAP
01E0
07F0
0E30
1C00
1800
3800
7FE0
FFE0
3000
7000
FFE0
FFE0
7000
3000
3038
1870
1FE0
0780
ENDCHAR
STARTCHAR 2190
ENCODING 8592
SWIDTH 562 0
DWIDTH 15 0
BBX 13 10 1 4
BITMAP
0400
0E00
1C00
7000
FFF0
FFF8
7010
3800
1C00
0400
ENDCHAR
STARTCHAR 2191
ENCODING 8593
SWIDTH 562 0
DWIDTH 15 0
BBX 10 13 2 2
BITMAP
0C00
0E00
1F00
3F00
7D80
ECC0
4C40
0C00
0C00
0C00
0C00
0E00
0C00
ENDCHAR
STARTCHAR 2192
ENCODING 8594
SWIDTH 562 0
DWIDTH 15 0
BBX 13 10 1 4
BITMAP
0300
0380
01C0
0060
FFF8
FFF8
4060
01C0
0380
0300
ENDCHAR
STARTCHAR 2193
ENCODING 8595
SWIDTH 562 0
DWIDTH 15 0
BBX 9 13 3 2
BITMAP
1C00
1C00
1C00
1C00
1C00
0800
C980
C980
6B00
3E00
3E00
1C00
0800
ENDCHAR
STARTCHAR 2200
ENCODING 8704
SWIDTH 562 0
DWIDTH 15 0
BBX 13 18 1 0
BITMAP
C018
E018
E038
6030
6030
6070
7FF0
3FE0
30C0
30C0
3180
3980
1980
1B00
1F00
1E00
1C00
0C00
ENDCHAR
STARTCHAR 2203
ENCODING 8707
SWIDTH 562 0
DWIDTH 15 0
BBX 12 18 1 0
BITMAP
7FF0
FFF0
4030
0030
0030
0030
0030
0030
1FF0
7FF0
7C30
0030
0030
0030
0030
0030
FFF0
FFF0
ENDCHAR
STARTCHAR 2204
ENCODING 8708
SWIDTH 562 0
DWIDTH 15 0
BBX 12 20 1 -1
BITMAP
0030
7FF0
FFF0
4070
00F0
01F0
01B0
03B0
0330
07F0
7FF0
7C30
0C30
1830
3830
3030
7030
FFF0
FFF0
C000
ENDCHAR
STARTCHAR 2212
ENCODING 8722
SWIDTH 562 0
DWIDTH 15 0
BBX 12 2 1 8
BITMAP
FFF0
7FF0
ENDCHAR
STARTCHAR 2264
ENCODING 8804
SWIDTH 562 0
DWIDTH 15 0
BBX 13 17 1 1
BITMAP
0070
01F0
07C0
0F00
3E00
7800
F000
7800
3E00
0F80
03E0
01F0
0030
0000
0000
FFF8
FFF8
ENDCHAR
STARTCHAR 2265
ENCODING 8805
SWIDTH 562 0
DWIDTH 15 0
BBX 13 17 1 1
BITMAP
F000
7C00
1E00
0780
03E0
00F0
0078
00F0
03E0
0F80
3E00
7800
E000
0000
0000
FFF0
FFF0
ENDCHAR
STARTCHAR 23FB
ENCODING 9211
SWIDTH 562 0
DWIDTH 15 0
BBX 22 25 0 -6
BITMAP
003800
007800
007800
007800
007800
007800
1C7870
3C78F0
7C78F8
787878
78783C
F0783C
F0783C
F0781C
F0781C
F0303C
F0003C
78003C
780078
7C00F8
3F01F0
1FFFE0
0FFFC0
07FF80
01FE00
ENDCHAR
STARTCHAR 23FC
ENCODING 9212
SWIDTH 562 0
DWIDTH 15 0
BBX 25 25 0 -6
BITMAP
007F0000
03FFC000
07FFF000
0FFFF800
1FC3FC00
3F007E00
7E083E00
7C3C1F00
783C1F00
F83C0F00
F03C0F80
F03C0F80
F03C0F80
F03C0F80
F83C0F00
F83C0F00
783C1F00
7C1C1F00
3E003E00
3F00FC00
1FFFFC00
0FFFF800
07FFE000
01FFC000
001C0000
ENDCHAR
STARTCHAR 23FD
ENCODING 9213
SWIDTH 562 0
DWIDTH 15 0
BBX 4 25 5 -6
BITMAP
70
F0
F0
F0
F0
F0
F0
F0
F0
F0
F0
F0
F0
F0
F0
F0
F0
F0
F0
F0
F0
F0
F0
F0
60
ENDCHAR
STARTCHAR 23FE
ENCODING 9214
SWIDTH 562 0
DWIDTH 15 0
BBX 17 23 0 -6
BITMAP
060000
0C0000
1C0000
3C0000
3C0000
7C0000
780000
F80000
FC0000
FC0000
FC0000
FC0000
FC0000
FE0000
7E0000
7F0000
7F8000
3F8000
1FC000
1FF000
07F800
03FE00
00FF80
ENDCHAR
STARTCHAR 2500
ENCODING 9472
SWIDTH 562 0
DWIDTH 15 0
BBX 15 3 0 5
BITMAP
FFFE
FFFE
FFFE
ENDCHAR
STARTCHAR 2501
ENCODING 9473
SWIDTH 562 0
DWIDTH 15 0
BBX 15 5 0 4
BITMAP
FFFE
FFFE
FFFE
FFFE
FFFE
ENDCHAR
STARTCHAR 2502
ENCODING 9474
SWIDTH 562 0
DWIDTH 15 0
BBX 2 33 6 -10
BITMAP
C0
C0
C0
C0
C0
C0
C0
C0
C0
C0
C0
C0
C0
C0
C0
C0
C0
C0
C0
C0
C0
C0
C0
C0
C0
C0
C0
C0
C0
C0
C0
C0
C0
ENDCHAR
STARTCHAR 2503
ENCODING 9475
SWIDTH 562 0
DWIDTH 15 0
BBX 4 33 5 -10
BITMAP
F0
F0
F0
F0
F0
F0
F0
F0
F0
F0
F0
F0
F0
F0
F0
F0
F0
F0
F0
F0
F0
F0
F0
F0
F0
F0
F0
F0
F0
F0
F0
F0
F0
ENDCHAR
STARTCHAR 2504
ENCODING 9476
SWIDTH 562 0
DWIDTH 15 0
BBX 13 3 1 5
BITMAP
E778
E778
E778
ENDCHAR
STARTCHAR 2505
ENCODING 9477
SWIDTH 562 0
DWIDTH 15 0
BBX 13 5 1 4
BITMAP
E778
E778
E778
E778
E778
ENDCHAR
STARTCHAR 2506
ENCODING 9478
SWIDTH 562 0
DWIDTH 15 0
BBX 2 29 6 -8
BITMAP
C0
C0
C0
C0
C0
C0
C0
C0
00
00
C0
C0
C0
C0
C0
C0
C0
C0
00
00
00
C0
C0
C0
C0
C0
C0
C0
C0
ENDCHAR
STARTCHAR 2507
ENCODING 9479
SWIDTH 562 0
DWIDTH 15 0
BBX 4 29 5 -8
BITMAP
F0
F0
F0
F0
F0
F0
F0
F0
00
00
F0
F0
F0
F0
F0
F0
F0
F0
00
00
00
F0
F0
F0
F0
F0
F0
F0
F0
ENDCHAR
STARTCHAR 2508
ENCODING 9480
SWIDTH 562 0
DWIDTH 15 0
BBX 13 3 1 5
BITMAP
DD98
DD98
DD98
ENDCHAR
STARTCHAR 2509
ENCODING 9481
SWIDTH 562 0
DWIDTH 15 0
BBX 13 5 1 4
BITMAP
DD98
DD98
DD98
DD98
DD98
ENDCHAR
STARTCHAR 250A
ENCODING 9482
SWIDTH 562 0
DWIDTH 15 0
BBX 2 29 6 -8
BITMAP
C0
C0
C0
C0
C0
00
00
00
C0
C0
C0
C0
C0
00
00
00
C0
C0
C0
C0
C0
00
00
C0
C0
C0
C0
C0
C0
ENDCHAR
STARTCHAR 250B
ENCODING 9483
SWIDTH 562 0
DWIDTH 15 0
BBX 4 29 5 -8
BITMAP
F0
F0
F0
F0
F0
00
00
00
F0
F0
F0
F0
F0
00
00
00
F0
F0
F0
F0
F0
00
00
F0
F0
F0
F0
F0
F0
ENDCHAR
STARTCHAR 250C
ENCODING 9484
SWIDTH 562 0
DWIDTH 15 0
BBX 9 18 6 -10
BITMAP
FF80
FF80
FF80
C000
C000
C000
C000
C000
C000
C000
C000
C000
C000
C000
C000
C000
C000
C000
ENDCHAR
STARTCHAR 250D
ENCODING 9485
SWIDTH 562 0
DWIDTH 15 0
BBX 9 19 6 -10
BITMAP
FF80
FF80
FF80
FF80
FF80
C000
C000
C000
C000
C000
C000
C000
C000
C000
C000
C000
C000
C000
C000
ENDCHAR
STARTCHAR 250E
ENCODING 9486
SWIDTH 562 0
DWIDTH 15 0
BBX 10 18 5 -10
BITMAP
FFC0
FFC0
FFC0
F000
F000
F000
F000
F000
F000
F000
F000
F000
F000
F000
F000
F000
F000
F000
ENDCHAR
STARTCHAR 250F
ENCODING 9487
SWIDTH 562 0
DWIDTH 15 0
BBX 10 19 5 -10
BITMAP
FFC0
FFC0
FFC0
FFC0
FFC0
F000
F000
F000
F000
F000
F000
F000
F000
F000
F000
F000
F000
F000
F000
ENDCHAR
STARTCHAR 2510
ENCODING 9488
SWIDTH 562 0
DWIDTH 15 0
BBX 8 18 0 -10
BITMAP
FF
FF
FF
03
03
03
03
03
03
03
03
03
03
03
03
03
03
03
ENDCHAR
STARTCHAR 2511
ENCODING 9489
SWIDTH 562 0
DWIDTH 15 0
BBX 8 19 0 -10
BITMAP
FF
FF
FF
FF
FF
03
03
03
03
03
03
03
03
03
03
03
03
03
03
ENDCHAR
STARTCHAR 2512
ENCODING 9490
SWIDTH 562 0
DWIDTH 15 0
BBX 9 18 0 -10
BITMAP
FF80
FF80
FF80
0780
0780
0780
0780
0780
0780
0780
0780
0780
0780
0780
0780
0780
0780
0780
ENDCHAR
STARTCHAR 2513
ENCODING 9491
SWIDTH 562 0
DWIDTH 15 0
BBX 9 19 0 -10
BITMAP
FF80
FF80
FF80
FF80
FF80
0780
0780
0780
0780
0780
0780
0780
0780
0780
0780
0780
0780
0780
0780
ENDCHAR
STARTCHAR 2514
ENCODING 9492
SWIDTH 562 0
DWIDTH 15 0
BBX 9 18 6 5
BITMAP
C000
C000
C000
C000
C000
C000
C000
C000
C000
C000
C000
C000
C000
C000
C000
FF80
FF80
FF80
ENDCHAR
STARTCHAR 2515
ENCODING 9493
SWIDTH 562 0
DWIDTH 15 0
BBX 9 19 6 4
BITMAP
C000
C000
C000
C000
C000
C000
C000
C000
C000
C000
C000
C000
C000
C000
FF80
FF80
FF80
FF80
FF80
ENDCHAR
STARTCHAR 2516
ENCODING 9494
SWIDTH 562 0
DWIDTH 15 0
BBX 10 18 5 5
BITMAP
F000
F000
F000
F000
F000
F000
F000
F000
F000
F000
F000
F000
F000
F000
F000
FFC0
FFC0
FFC0
ENDCHAR
STARTCHAR 2517
ENCODING 9495
SWIDTH 562 0
DWIDTH 15 0
BBX 10 19 5 4
BITMAP
F000
F000
F000
F000
F000
F000
F000
F000
F000
F000
F000
F000
F000
F000
FFC0
FFC0
FFC0
FFC0
FFC0
ENDCHAR
STARTCHAR 2518
ENCODING 9496
SWIDTH 562 0
DWIDTH 15 0
BBX 8 18 0 5
BITMAP
03
03
03
03
03
03
03
03
03
03
03
03
03
03
03
FF
FF
FF
ENDCHAR
STARTCHAR 2519
ENCODING 9497
SWIDTH 562 0
DWIDTH 15 0
BBX 8 19 0 4
BITMAP
03
03
03
03
03
03
03
03
03
03
03
03
03
03
FF
FF
FF
FF
FF
ENDCHAR
STARTCHAR 251A
ENCODING 9498
SWIDTH 562 0
DWIDTH 15 0
BBX 9 18 0 5
BITMAP
0780
0780
0780
0780
0780
0780
0780
0780
0780
0780
0780
0780
0780
0780
0780
FF80
FF80
FF80
ENDCHAR
STARTCHAR 251B
ENCODING 9499
SWIDTH 562 0
DWIDTH 15 0
BBX 9 19 0 4
BITMAP
0780
0780
0780
0780
0780
0780
0780
0780
0780
0780
0780
0780
0780
0780
FF80
FF80
FF80
FF80
FF80
ENDCHAR
STARTCHAR 251C
ENCODING 9500
SWIDTH 562 0
DWIDTH 15 0
BBX 9 33 6 -10
BITMAP
C000
C000
C000
C000
C000
C000
C000
C000
C000
C000
C000
C000
C000
C000
C000
FF80
FF80
FF80
C000
C000
C000
C000
C000
C000
C000
C000
C000
C000
C000
C000
C000
C000
C000
ENDCHAR
STARTCHAR 251D
ENCODING 9501
SWIDTH 562 0
DWIDTH 15 0
BBX 9 33 6 -10
BITMAP
C000
C000
C000
C000
C000
C000
C000
C000
C000
C000
C000
C000
C000
C000
FF80
FF80
FF80
FF80
FF80
C000
C000
C000
C000
C000
C000
C000
C000
C000
C000
C000
C000
C000
C000
ENDCHAR
STARTCHAR 251E
ENCODING 9502
SWIDTH 562 0
DWIDTH 15 0
BBX 10 33 5 -10
BITMAP
F000
F000
F000
F000
F000
F000
F000
F000
F000
F000
F000
F000
F000
F000
F000
FFC0
FFC0
FFC0
6000
6000
6000
6000
6000
6000
6000
6000
6000
6000
6000
6000
6000
6000
6000
ENDCHAR
STARTCHAR 251F
ENCODING 9503
SWIDTH 562 0
DWIDTH 15 0
BBX 10 33 5 -10
BITMAP
6000
6000
6000
6000
6000
6000
6000
6000
6000
6000
6000
6000
6000
6000
6000
FFC0
FFC0
FFC0
F000
F000
F000
F000
F000
F000
F000
F000
F000
F000
F000
F000
F000
F000
F000
ENDCHAR
STARTCHAR 2520
ENCODING 9504
SWIDTH 562 0
DWIDTH 15 0
BBX 10 33 5 -10
BITMAP
F000
F000
F000
F000
F000
F000
F000
F000
F000
F000
F000
F000
F000
F000
F000
FFC0
FFC0
FFC0
F000
F000
F000
F000
F000
F000
F000
F000
F000
F000
F000
F000
F000
F000
F000
ENDCHAR
STARTCHAR 2521
ENCODING 9505
SWIDTH 562 0
DWIDTH 15 0
BBX 10 33 5 -10
BITMAP
F000
F000
F000
F000
F000
F000
F000
F000
F000
F000
F000
F000
F000
F000
FFC0
FFC0
FFC0
FFC0
FFC0
6000
6000
6000
6000
6000
6000
6000
6000
6000
6000
6000
6000
6000
6000
ENDCHAR
STARTCHAR 2522
ENCODING 9506
SWIDTH 562 0
DWIDTH 15 0
BBX 10 33 5 -10
BITMAP
6000
6000
6000
6000
6000
6000
6000
6000
6000
6000
6000
6000
6000
6000
FFC0
FFC0
FFC0
FFC0
FFC0
F000
F000
F000
F000
F000
F000
F000
F000
F000
F000
F000
F000
F000
F000
ENDCHAR
STARTCHAR 2523
ENCODING 9507
SWIDTH 562 0
DWIDTH 15 0
BBX 10 33 5 -10
BITMAP
F000
F000
F000
F000
F000
F000
F000
F000
F000
F000
F000
F000
F000
F000
FFC0
FFC0
FFC0
FFC0
FFC0
F000
F000
F000
F000
F000
F000
F000
F000
F000
F000
F000
F000
F000
F000
ENDCHAR
STARTCHAR 2524
ENCODING 9508
SWIDTH 562 0
DWIDTH 15 0
BBX 8 33 0 -10
BITMAP
03
03
03
03
03
03
03
03
03
03
03
03
03
03
03
FF
FF
FF
03
03
03
03
03
03
03
03
03
03
03
03
03
03
03
ENDCHAR
STARTCHAR 2525
ENCODING 9509
SWIDTH 562 0
DWIDTH 15 0
BBX 8 33 0 -10
BITMAP
03
03
03
03
03
03
03
03
03
03
03
03
03
03
FF
FF
FF
FF
FF
03
03
03
03
03
03
03
03
03
03
03
03
03
03
ENDCHAR
STARTCHAR 2526
ENCODING 9510
SWIDTH 562 0
DWIDTH 15 0
BBX 9 33 0 -10
BITMAP
0780
0780
0780
0780
0780
0780
0780
0780
0780
0780
0780
0780
0780
0780
0780
FF80
FF80
FF80
0300
0300
0300
0300
0300
0300
0300
0300
0300
0300
0300
0300
0300
0300
0300
ENDCHAR
STARTCHAR 2527
ENCODING 9511
SWIDTH 562 0
DWIDTH 15 0
BBX 9 33 0 -10
BITMAP
0300
0300
0300
0300
0300
0300
0300
0300
0300
0300
0300
0300
0300
0300
0300
FF80
FF80
FF80
0780
0780
0780
0780
0780
0780
0780
0780
0780
0780
0780
0780
0780
0780
0780
ENDCHAR
STARTCHAR 2528
ENCODING 9512
SWIDTH 562 0
DWIDTH 15 0
BBX 9 33 0 -10
BITMAP
0780
0780
0780
0780
0780
0780
0780
0780
0780
0780
0780
0780
0780
0780
0780
FF80
FF80
FF80
0780
0780
0780
0780
0780
0780
0780
0780
0780
0780
0780
0780
0780
0780
0780
ENDCHAR
STARTCHAR 2529
ENCODING 9513
SWIDTH 562 0
DWIDTH 15 0
BBX 9 33 0 -10
BITMAP
0780
0780
0780
0780
0780
0780
0780
0780
0780
0780
0780
0780
0780
0780
FF80
FF80
FF80
FF80
FF80
0300
0300
0300
0300
0300
0300
0300
0300
0300
0300
0300
0300
0300
0300
ENDCHAR
STARTCHAR 252A
ENCODING 9514
SWIDTH 562 0
DWIDTH 15 0
BBX 9 33 0 -10
BITMAP
0300
0300
0300
0300
0300
0300
0300
0300
0300
0300
0300
0300
0300
0300
FF80
FF80
FF80
FF80
FF80
0780
0780
0780
0780
0780
0780
0780
0780
0780
0780
0780
0780
0780
0780
ENDCHAR
STARTCHAR 252B
ENCODING 9515
SWIDTH 562 0
DWIDTH 15 0
BBX 9 33 0 -10
BITMAP
0780
0780
0780
0780
0780
0780
0780
0780
0780
0780
0780
0780
0780
0780
FF80
FF80
FF80
FF80
FF80
0780
0780
0780
0780
0780
0780
0780
0780
0780
0780
0780
0780
0780
0780
ENDCHAR
STARTCHAR 252C
ENCODING 9516
SWIDTH 562 0
DWIDTH 15 0
BBX 15 18 0 -10
BITMAP
FFFE
FFFE
FFFE
0300
0300
0300
0300
0300
0300
0300
0300
0300
0300
0300
0300
0300
0300
0300
ENDCHAR
STARTCHAR 252D
ENCODING 9517
SWIDTH 562 0
DWIDTH 15 0
BBX 15 19 0 -10
BITMAP
FF00
FFFE
FFFE
FFFE
FF00
0300
0300
0300
0300
0300
0300
0300
0300
0300
0300
0300
0300
0300
0300
ENDCHAR
STARTCHAR 252E
ENCODING 9518
SWIDTH 562 0
DWIDTH 15 0
BBX 15 19 0 -10
BITMAP
03FE
FFFE
FFFE
FFFE
03FE
0300
0300
0300
0300
0300
0300
0300
0300
0300
0300
0300
0300
0300
0300
ENDCHAR
STARTCHAR 252F
ENCODING 9519
SWIDTH 562 0
DWIDTH 15 0
BBX 15 19 0 -10
BITMAP
FFFE
FFFE
FFFE
FFFE
FFFE
0300
0300
0300
0300
0300
0300
0300
0300
0300
0300
0300
0300
0300
0300
ENDCHAR
STARTCHAR 2530
ENCODING 9520
SWIDTH 562 0
DWIDTH 15 0
BBX 15 18 0 -10
BITMAP
FFFE
FFFE
FFFE
0780
0780
0780
0780
0780
0780
0780
0780
0780
0780
0780
0780
0780
0780
0780
ENDCHAR
STARTCHAR 2531
ENCODING 9521
SWIDTH 562 0
DWIDTH 15 0
BBX 15 19 0 -10
BITMAP
FF80
FFFE
FFFE
FFFE
FF80
0780
0780
0780
0780
0780
0780
0780
0780
0780
0780
0780
0780
0780
0780
ENDCHAR
STARTCHAR 2532
ENCODING 9522
SWIDTH 562 0
DWIDTH 15 0
BBX 15 19 0 -10
BITMAP
07FE
FFFE
FFFE
FFFE
07FE
0780
0780
0780
0780
0780
0780
0780
0780
0780
0780
0780
0780
0780
0780
ENDCHAR
STARTCHAR 2533
ENCODING 9523
SWIDTH 562 0
DWIDTH 15 0
BBX 15 19 0 -10
BITMAP
FFFE
FFFE
FFFE
FFFE
FFFE
0780
0780
0780
0780
0780
0780
0780
0780
0780
0780
0780
0780
0780
0780
ENDCHAR
STARTCHAR 2534
ENCODING 9524
SWIDTH 562 0
DWIDTH 15 0
BBX 15 18 0 5
BITMAP
0300
0300
0300
0300
0300
0300
0300
0300
0300
0300
0300
0300
0300
0300
0300
FFFE
FFFE
FFFE
ENDCHAR
STARTCHAR 2535
ENCODING 9525
SWIDTH 562 0
DWIDTH 15 0
BBX 15 19 0 4
BITMAP
0300
0300
0300
0300
0300
0300
0300
0300
0300
0300
0300
0300
0300
0300
FF00
FFFE
FFFE
FFFE
FF00
ENDCHAR
STARTCHAR 2536
ENCODING 9526
SWIDTH 562 0
DWIDTH 15 0
BBX 15 19 0 4
BITMAP
0300
0300
0300
0300
0300
0300
0300
0300
0300
0300
0300
0300
0300
0300
03FE
FFFE
FFFE
FFFE
03FE
ENDCHAR
STARTCHAR 2537
ENCODING 9527
SWIDTH 562 0
DWIDTH 15 0
BBX 15 19 0 4
BITMAP
0300
0300
0300
0300
0300
0300
0300
0300
0300
0300
0300
0300
0300
0300
FFFE
FFFE
FFFE
FFFE
FFFE
ENDCHAR
STARTCHAR 2538
ENCODING 9528
SWIDTH 562 0
DWIDTH 15 0
BBX 15 18 0 5
BITMAP
0780
0780
0780
0780
0780
0780
0780
0780
0780
0780
0780
0780
0780
0780
0780
FFFE
FFFE
FFFE
ENDCHAR
STARTCHAR 2539
ENCODING 9529
SWIDTH 562 0
DWIDTH 15 0
BBX 15 19 0 4
BITMAP
0780
0780
0780
0780
0780
0780
0780
0780
0780
0780
0780
0780
0780
0780
FF80
FFFE
FFFE
FFFE
FF80
ENDCHAR
STARTCHAR 253A
ENCODING 9530
SWIDTH 562 0
DWIDTH 15 0
BBX 15 19 0 4
BITMAP
0780
0780
0780
0780
0780
0780
0780
0780
0780
0780
0780
0780
0780
0780
07FE
FFFE
FFFE
FFFE
07FE
ENDCHAR
STARTCHAR 253B
ENCODING 9531
SWIDTH 562 0
DWIDTH 15 0
BBX 15 19 0 4
BITMAP
0780
0780
0780
0780
0780
0780
0780
0780
0780
0780
0780
0780
0780
0780
FFFE
FFFE
FFFE
FFFE
FFFE
ENDCHAR
STARTCHAR 253C
ENCODING 9532
SWIDTH 562 0
DWIDTH 15 0
BBX 15 33 0 -10
BITMAP
0300
0300
0300
0300
0300
0300
0300
0300
0300
0300
0300
0300
0300
0300
0300
FFFE
FFFE
FFFE
0300
0300
0300
0300
0300
0300
0300
0300
0300
0300
0300
0300
0300
0300
0300
ENDCHAR
STARTCHAR 253D
ENCODING 9533
SWIDTH 562 0
DWIDTH 15 0
BBX 15 33 0 -10
BITMAP
0300
0300
0300
0300
0300
0300
0300
0300
0300
0300
0300
0300
0300
0300
FF00
FFFE
FFFE
FFFE
FF00
0300
0300
0300
0300
0300
0300
0300
0300
0300
0300
0300
0300
0300
0300
ENDCHAR
STARTCHAR 253E
ENCODING 9534
SWIDTH 562 0
DWIDTH 15 0
BBX 15 33 0 -10
BITMAP
0300
0300
0300
0300
0300
0300
0300
0300
0300
0300
0300
0300
0300
0300
03FE
FFFE
FFFE
FFFE
03FE
0300
0300
0300
0300
0300
0300
0300
0300
0300
0300
0300
0300
0300
0300
ENDCHAR
STARTCHAR 253F
ENCODING 9535
SWIDTH 562 0
DWIDTH 15 0
BBX 15 33 0 -10
BITMAP
0300
0300
0300
0300
0300
0300
0300
0300
0300
0300
0300
0300
0300
0300
FFFE
FFFE
FFFE
FFFE
FFFE
0300
0300
0300
0300
0300
0300
0300
0300
0300
0300
0300
0300
0300
0300
ENDCHAR
STARTCHAR 2540
ENCODING 9536
SWIDTH 562 0
DWIDTH 15 0
BBX 15 33 0 -10
BITMAP
0780
0780
0780
0780
0780
0780
0780
0780
0780
0780
0780
0780
0780
0780
0780
FFFE
FFFE
FFFE
0300
0300
0300
0300
0300
0300
0300
0300
0300
0300
0300
0300
0300
0300
0300
ENDCHAR
STARTCHAR 2541
ENCODING 9537
SWIDTH 562 0
DWIDTH 15 0
BBX 15 33 0 -10
BITMAP
0300
0300
0300
0300
0300
0300
0300
0300
0300
0300
0300
0300
0300
0300
0300
FFFE
FFFE
FFFE
0780
0780
0780
0780
0780
0780
0780
0780
0780
0780
0780
0780
0780
0780
0780
ENDCHAR
STARTCHAR 2542
ENCODING 9538
SWIDTH 562 0
DWIDTH 15 0
BBX 15 33 0 -10
BITMAP
0780
0780
0780
0780
0780
0780
0780
0780
0780
0780
0780
0780
0780
0780
0780
FFFE
FFFE
FFFE
0780
0780
0780
0780
0780
0780
0780
0780
0780
0780
0780
0780
0780
0780
0780
ENDCHAR
STARTCHAR 2543
ENCODING 9539
SWIDTH 562 0
DWIDTH 15 0
BBX 15 33 0 -10
BITMAP
0780
0780
0780
0780
0780
0780
0780
0780
0780
0780
0780
0780
0780
0780
FF80
FFFE
FFFE
FFFE
FF80
0300
0300
0300
0300
0300
0300
0300
0300
0300
0300
0300
0300
0300
0300
ENDCHAR
STARTCHAR 2544
ENCODING 9540
SWIDTH 562 0
DWIDTH 15 0
BBX 15 33 0 -10
BITMAP
0780
0780
0780
0780
0780
0780
0780
0780
0780
0780
0780
0780
0780
0780
07FE
FFFE
FFFE
FFFE
07FE
0300
0300
0300
0300
0300
0300
0300
0300
0300
0300
0300
0300
0300
0300
ENDCHAR
STARTCHAR 2545
ENCODING 9541
SWIDTH 562 0
DWIDTH 15 0
BBX 15 33 0 -10
BITMAP
0300
0300
0300
0300
0300
0300
0300
0300
0300
0300
0300
0300
0300
0300
FF80
FFFE
FFFE
FFFE
FF80
0780
0780
0780
0780
0780
0780
0780
0780
0780
0780
0780
0780
0780
0780
ENDCHAR
STARTCHAR 2546
ENCODING 9542
SWIDTH 562 0
DWIDTH 15 0
BBX 15 33 0 -10
BITMAP
0300
0300
0300
0300
0300
0300
0300
0300
0300
0300
0300
0300
0300
0300
07FE
FFFE
FFFE
FFFE
07FE
0780
0780
0780
0780
0780
0780
0780
0780
0780
0780
0780
0780
0780
0780
ENDCHAR
STARTCHAR 2547
ENCODING 9543
SWIDTH 562 0
DWIDTH 15 0
BBX 15 33 0 -10
BITMAP
0780
0780
0780
0780
0780
0780
0780
0780
0780
0780
0780
0780
0780
0780
FFFE
FFFE
FFFE
FFFE
FFFE
0300
0300
0300
0300
0300
0300
0300
0300
0300
0300
0300
0300
0300
0300
ENDCHAR
STARTCHAR 2548
ENCODING 9544
SWIDTH 562 0
DWIDTH 15 0
BBX 15 33 0 -10
BITMAP
0300
0300
0300
0300
0300
0300
0300
0300
0300
0300
0300
0300
0300
0300
FFFE
FFFE
FFFE
FFFE
FFFE
0780
0780
0780
0780
0780
0780
0780
0780
0780
0780
0780
0780
0780
0780
ENDCHAR
STARTCHAR 2549
ENCODING 9545
SWIDTH 562 0
DWIDTH 15 0
BBX 15 33 0 -10
BITMAP
0780
0780
0780
0780
0780
0780
0780
0780
0780
0780
0780
0780
0780
0780
FF80
FFFE
FFFE
FFFE
FF80
0780
0780
0780
0780
0780
0780
0780
0780
0780
0780
0780
0780
0780
0780
ENDCHAR
STARTCHAR 254A
ENCODING 9546
SWIDTH 562 0
DWIDTH 15 0
BBX 15 33 0 -10
BITMAP
0780
0780
0780
0780
0780
0780
0780
0780
0780
0780
0780
0780
0780
0780
07FE
FFFE
FFFE
FFFE
07FE
0780
0780
0780
0780
0780
0780
0780
0780
0780
0780
0780
0780
0780
0780
ENDCHAR
STARTCHAR 254B
ENCODING 9547
SWIDTH 562 0
DWIDTH 15 0
BBX 15 33 0 -10
BITMAP
0780
0780
0780
0780
0780
0780
0780
0780
0780
0780
0780
0780
0780
0780
FFFE
FFFE
FFFE
FFFE
FFFE
0780
0780
0780
0780
0780
0780
0780
0780
0780
0780
0780
0780
0780
0780
ENDCHAR
STARTCHAR 254C
ENCODING 9548
SWIDTH 562 0
DWIDTH 15 0
BBX 13 3 1 5
BITMAP
FDF8
FDF8
FDF8
ENDCHAR
STARTCHAR 254D
ENCODING 9549
SWIDTH 562 0
DWIDTH 15 0
BBX 13 5 1 4
BITMAP
FDF8
FDF8
FDF8
FDF8
FDF8
ENDCHAR
STARTCHAR 254E
ENCODING 9550
SWIDTH 562 0
DWIDTH 15 0
BBX 2 27 6 -7
BITMAP
C0
C0
C0
C0
C0
C0
C0
C0
C0
C0
C0
00
00
00
00
00
C0
C0
C0
C0
C0
C0
C0
C0
C0
C0
C0
ENDCHAR
STARTCHAR 254F
ENCODING 9551
SWIDTH 562 0
DWIDTH 15 0
BBX 4 27 5 -7
BITMAP
F0
F0
F0
F0
F0
F0
F0
F0
F0
F0
F0
00
00
00
00
00
F0
F0
F0
F0
F0
F0
F0
F0
F0
F0
F0
ENDCHAR
STARTCHAR 2550
ENCODING 9552
SWIDTH 562 0
DWIDTH 15 0
BBX 15 7 0 3
BITMAP
FFFE
FFFE
0000
0000
0000
FFFE
FFFE
ENDCHAR
STARTCHAR 2551
ENCODING 9553
SWIDTH 562 0
DWIDTH 15 0
BBX 5 33 5 -10
BITMAP
98
98
98
98
98
98
98
98
98
98
98
98
98
98
98
98
98
98
98
98
98
98
98
98
98
98
98
98
98
98
98
98
98
ENDCHAR
STARTCHAR 2552
ENCODING 9554
SWIDTH 562 0
DWIDTH 15 0
BBX 9 20 6 -10
BITMAP
FF80
FF80
C000
C000
C000
FF80
FF80
C000
C000
C000
C000
C000
C000
C000
C000
C000
C000
C000
C000
C000
ENDCHAR
STARTCHAR 2553
ENCODING 9555
SWIDTH 562 0
DWIDTH 15 0
BBX 10 18 5 -10
BITMAP
FFC0
FFC0
FFC0
9800
9800
9800
9800
9800
9800
9800
9800
9800
9800
9800
9800
9800
9800
9800
ENDCHAR
STARTCHAR 2554
ENCODING 9556
SWIDTH 562 0
DWIDTH 15 0
BBX 10 20 5 -10
BITMAP
FFC0
FFC0
8000
8000
8000
9FC0
9FC0
9800
9800
9800
9800
9800
9800
9800
9800
9800
9800
9800
9800
9800
ENDCHAR
STARTCHAR 2555
ENCODING 9557
SWIDTH 562 0
DWIDTH 15 0
BBX 8 20 0 -10
BITMAP
FF
FF
03
03
03
FF
FF
03
03
03
03
03
03
03
03
03
03
03
03
03
ENDCHAR
STARTCHAR 2556
ENCODING 9558
SWIDTH 562 0
DWIDTH 15 0
BBX 10 18 0 -10
BITMAP
FFC0
FFC0
FFC0
04C0
04C0
04C0
04C0
04C0
04C0
04C0
04C0
04C0
04C0
04C0
04C0
04C0
04C0
04C0
ENDCHAR
STARTCHAR 2557
ENCODING 9559
SWIDTH 562 0
DWIDTH 15 0
BBX 10 20 0 -10
BITMAP
FFC0
FFC0
00C0
00C0
00C0
FCC0
FCC0
04C0
04C0
04C0
04C0
04C0
04C0
04C0
04C0
04C0
04C0
04C0
04C0
04C0
ENDCHAR
STARTCHAR 2558
ENCODING 9560
SWIDTH 562 0
DWIDTH 15 0
BBX 9 20 6 3
BITMAP
C000
C000
C000
C000
C000
C000
C000
C000
C000
C000
C000
C000
C000
FF80
FF80
C000
C000
C000
FF80
FF80
ENDCHAR
STARTCHAR 2559
ENCODING 9561
SWIDTH 562 0
DWIDTH 15 0
BBX 10 18 5 5
BITMAP
9800
9800
9800
9800
9800
9800
9800
9800
9800
9800
9800
9800
9800
9800
9800
FFC0
FFC0
FFC0
ENDCHAR
STARTCHAR 255A
ENCODING 9562
SWIDTH 562 0
DWIDTH 15 0
BBX 10 20 5 3
BITMAP
9800
9800
9800
9800
9800
9800
9800
9800
9800
9800
9800
9800
9800
9FC0
9FC0
8000
8000
8000
FFC0
FFC0
ENDCHAR
STARTCHAR 255B
ENCODING 9563
SWIDTH 562 0
DWIDTH 15 0
BBX 8 20 0 3
BITMAP
03
03
03
03
03
03
03
03
03
03
03
03
03
FF
FF
03
03
03
FF
FF
ENDCHAR
STARTCHAR 255C
ENCODING 9564
SWIDTH 562 0
DWIDTH 15 0
BBX 10 18 0 5
BITMAP
04C0
04C0
04C0
04C0
04C0
04C0
04C0
04C0
04C0
04C0
04C0
04C0
04C0
04C0
04C0
FFC0
FFC0
FFC0
ENDCHAR
STARTCHAR 255D
ENCODING 9565
SWIDTH 562 0
DWIDTH 15 0
BBX 10 20 0 3
BITMAP
04C0
04C0
04C0
04C0
04C0
04C0
04C0
04C0
04C0
04C0
04C0
04C0
04C0
FCC0
FCC0
00C0
00C0
00C0
FFC0
FFC0
ENDCHAR
STARTCHAR 255E
ENCODING 9566
SWIDTH 562 0
DWIDTH 15 0
BBX 9 33 6 -10
BITMAP
C000
C000
C000
C000
C000
C000
C000
C000
C000
C000
C000
C000
C000
FF80
FF80
C000
C000
C000
FF80
FF80
C000
C000
C000
C000
C000
C000
C000
C000
C000
C000
C000
C000
C000
ENDCHAR
STARTCHAR 255F
ENCODING 9567
SWIDTH 562 0
DWIDTH 15 0
BBX 10 33 5 -10
BITMAP
9800
9800
9800
9800
9800
9800
9800
9800
9800
9800
9800
9800
9800
9800
9800
9FC0
9FC0
9FC0
9800
9800
9800
9800
9800
9800
9800
9800
9800
9800
9800
9800
9800
9800
9800
ENDCHAR
STARTCHAR 2560
ENCODING 9568
SWIDTH 562 0
DWIDTH 15 0
BBX 10 33 5 -10
BITMAP
9800
9800
9800
9800
9800
9800
9800
9800
9800
9800
9800
9800
9800
9FC0
9FC0
8000
8000
8000
9FC0
9FC0
9800
9800
9800
9800
9800
9800
9800
9800
9800
9800
9800
9800
9800
ENDCHAR
STARTCHAR 2561
ENCODING 9569
SWIDTH 562 0
DWIDTH 15 0
BBX 8 33 0 -10
BITMAP
03
03
03
03
03
03
03
03
03
03
03
03
03
FF
FF
03
03
03
FF
FF
03
03
03
03
03
03
03
03
03
03
03
03
03
ENDCHAR
STARTCHAR 2562
ENCODING 9570
SWIDTH 562 0
DWIDTH 15 0
BBX 10 33 0 -10
BITMAP
04C0
04C0
04C0
04C0
04C0
04C0
04C0
04C0
04C0
04C0
04C0
04C0
04C0
04C0
04C0
FCC0
FCC0
FCC0
04C0
04C0
04C0
04C0
04C0
04C0
04C0
04C0
04C0
04C0
04C0
04C0
04C0
04C0
04C0
ENDCHAR
STARTCHAR 2563
ENCODING 9571
SWIDTH 562 0
DWIDTH 15 0
BBX 10 33 0 -10
BITMAP
04C0
04C0
04C0
04C0
04C0
04C0
04C0
04C0
04C0
04C0
04C0
04C0
04C0
FCC0
FCC0
00C0
00C0
00C0
FCC0
FCC0
04C0
04C0
04C0
04C0
04C0
04C0
04C0
04C0
04C0
04C0
04C0
04C0
04C0
ENDCHAR
STARTCHAR 2564
ENCODING 9572
SWIDTH 562 0
DWIDTH 15 0
BBX 15 20 0 -10
BITMAP
FFFE
FFFE
0000
0000
0000
FFFE
FFFE
0300
0300
0300
0300
0300
0300
0300
0300
0300
0300
0300
0300
0300
ENDCHAR
STARTCHAR 2565
ENCODING 9573
SWIDTH 562 0
DWIDTH 15 0
BBX 15 18 0 -10
BITMAP
FFFE
FFFE
FFFE
04C0
04C0
04C0
04C0
04C0
04C0
04C0
04C0
04C0
04C0
04C0
04C0
04C0
04C0
04C0
ENDCHAR
STARTCHAR 2566
ENCODING 9574
SWIDTH 562 0
DWIDTH 15 0
BBX 15 20 0 -10
BITMAP
FFFE
FFFE
0000
0000
0000
FCFE
FCFE
04C0
04C0
04C0
04C0
04C0
04C0
04C0
04C0
04C0
04C0
04C0
04C0
04C0
ENDCHAR
STARTCHAR 2567
ENCODING 9575
SWIDTH 562 0
DWIDTH 15 0
BBX 15 20 0 3
BITMAP
0300
0300
0300
0300
0300
0300
0300
0300
0300
0300
0300
0300
0300
FFFE
FFFE
0000
0000
0000
FFFE
FFFE
ENDCHAR
STARTCHAR 2568
ENCODING 9576
SWIDTH 562 0
DWIDTH 15 0
BBX 15 18 0 5
BITMAP
04C0
04C0
04C0
04C0
04C0
04C0
04C0
04C0
04C0
04C0
04C0
04C0
04C0
04C0
04C0
FFFE
FFFE
FFFE
ENDCHAR
STARTCHAR 2569
ENCODING 9577
SWIDTH 562 0
DWIDTH 15 0
BBX 15 20 0 3
BITMAP
04C0
04C0
04C0
04C0
04C0
04C0
04C0
04C0
04C0
04C0
04C0
04C0
04C0
FCFE
FCFE
0000
0000
0000
FFFE
FFFE
ENDCHAR
STARTCHAR 256A
ENCODING 9578
SWIDTH 562 0
DWIDTH 15 0
BBX 15 33 0 -10
BITMAP
0300
0300
0300
0300
0300
0300
0300
0300
0300
0300
0300
0300
0300
FFFE
FFFE
0300
0300
0300
FFFE
FFFE
0300
0300
0300
0300
0300
0300
0300
0300
0300
0300
0300
0300
0300
ENDCHAR
STARTCHAR 256B
ENCODING 9579
SWIDTH 562 0
DWIDTH 15 0
BBX 15 33 0 -10
BITMAP
04C0
04C0
04C0
04C0
04C0
04C0
04C0
04C0
04C0
04C0
04C0
04C0
04C0
04C0
04C0
FFFE
FFFE
FFFE
04C0
04C0
04C0
04C0
04C0
04C0
04C0
04C0
04C0
04C0
04C0
04C0
04C0
04C0
04C0
ENDCHAR
STARTCHAR 256C
ENCODING 9580
SWIDTH 562 0
DWIDTH 15 0
BBX 15 33 0 -10
BITMAP
04C0
04C0
04C0
04C0
04C0
04C0
04C0
04C0
04C0
04C0
04C0
04C0
04C0
FCFE
FCFE
0000
0000
0000
FCFE
FCFE
04C0
04C0
04C0
04C0
04C0
04C0
04C0
04C0
04C0
04C0
04C0
04C0
04C0
ENDCHAR
STARTCHAR 256D
ENCODING 9581
SWIDTH 562 0
DWIDTH 15 0
BBX 9 18 6 -10
BITMAP
1F80
3F80
7F80
6000
C000
C000
C000
C000
C000
C000
C000
C000
C000
C000
C000
C000
C000
C000
ENDCHAR
STARTCHAR 256E
ENCODING 9582
SWIDTH 562 0
DWIDTH 15 0
BBX 8 18 0 -10
BITMAP
FC
FE
FF
03
03
03
03
03
03
03
03
03
03
03
03
03
03
03
ENDCHAR
STARTCHAR 256F
ENCODING 9583
SWIDTH 562 0
DWIDTH 15 0
BBX 8 18 0 5
BITMAP
03
03
03
03
03
03
03
03
03
03
03
03
03
03
03
FE
FE
F0
ENDCHAR
STARTCHAR 2570
ENCODING 9584
SWIDTH 562 0
DWIDTH 15 0
BBX 9 18 6 5
BITMAP
C000
C000
C000
C000
C000
C000
C000
C000
C000
C000
C000
C000
C000
C000
6000
7F80
3F80
0F80
ENDCHAR
STARTCHAR 2571
ENCODING 9585
SWIDTH 562 0
DWIDTH 15 0
BBX 15 33 0 -10
BITMAP
0006
000C
000C
0008
0018
0018
0030
0030
0020
0060
0060
00C0
00C0
0080
0180
0180
0300
0300
0200
0600
0600
0C00
0C00
1800
1800
1800
3000
3000
6000
6000
6000
C000
C000
ENDCHAR
STARTCHAR 2572
ENCODING 9586
SWIDTH 562 0
DWIDTH 15 0
BBX 15 33 0 -10
BITMAP
C000
C000
6000
6000
2000
3000
3000
1800
1800
0800
0C00
0C00
0600
0600
0300
0300
0300
0180
0180
00C0
00C0
00C0
0060
0060
0030
0030
0030
0018
0018
000C
000C
000C
0006
ENDCHAR
STARTCHAR 2573
ENCODING 9587
SWIDTH 562 0
DWIDTH 15 0
BBX 15 33 0 -10
BITMAP
C006
C00C
600C
6008
2018
3018
3030
1830
1820
0860
0C60
0CC0
06C0
0680
0380
0380
0300
0380
0780
06C0
06C0
0CC0
0C60
1860
1830
1830
3030
3018
6018
600C
600C
C00C
C006
ENDCHAR
STARTCHAR 2574
ENCODING 9588
SWIDTH 562 0
DWIDTH 15 0
BBX 7 3 0 5
BITMAP
FE
FE
FE
ENDCHAR
STARTCHAR 2575
ENCODING 9589
SWIDTH 562 0
DWIDTH 15 0
BBX 2 16 6 7
BITMAP
C0
C0
C0
C0
C0
C0
C0
C0
C0
C0
C0
C0
C0
C0
C0
C0
ENDCHAR
STARTCHAR 2576
ENCODING 9590
SWIDTH 562 0
DWIDTH 15 0
BBX 8 3 7 5
BITMAP
FF
FF
FF
ENDCHAR
STARTCHAR 2577
ENCODING 9591
SWIDTH 562 0
DWIDTH 15 0
BBX 2 17 6 -10
BITMAP
C0
C0
C0
C0
C0
C0
C0
C0
C0
C0
C0
C0
C0
C0
C0
C0
C0
ENDCHAR
STARTCHAR 2578
ENCODING 9592
SWIDTH 562 0
DWIDTH 15 0
BBX 7 5 0 4
BITMAP
FE
FE
FE
FE
FE
ENDCHAR
STARTCHAR 2579
ENCODING 9593
SWIDTH 562 0
DWIDTH 15 0
BBX 4 16 5 7
BITMAP
F0
F0
F0
F0
F0
F0
F0
F0
F0
F0
F0
F0
F0
F0
F0
F0
ENDCHAR
STARTCHAR 257A
ENCODING 9594
SWIDTH 562 0
DWIDTH 15 0
BBX 8 5 7 4
BITMAP
FF
FF
FF
FF
FF
ENDCHAR
STARTCHAR 257B
ENCODING 9595
SWIDTH 562 0
DWIDTH 15 0
BBX 4 17 5 -10
BITMAP
F0
F0
F0
F0
F0
F0
F0
F0
F0
F0
F0
F0
F0
F0
F0
F0
F0
ENDCHAR
STARTCHAR 257C
ENCODING 9596
SWIDTH 562 0
DWIDTH 15 0
BBX 15 5 0 4
BITMAP
00FE
FFFE
FFFE
FFFE
00FE
ENDCHAR
STARTCHAR 257D
ENCODING 9597
SWIDTH 562 0
DWIDTH 15 0
BBX 4 33 5 -10
BITMAP
60
60
60
60
60
60
60
60
60
60
60
60
60
60
60
60
F0
F0
F0
F0
F0
F0
F0
F0
F0
F0
F0
F0
F0
F0
F0
F0
F0
ENDCHAR
STARTCHAR 257E
ENCODING 9598
SWIDTH 562 0
DWIDTH 15 0
BBX 15 5 0 4
BITMAP
FF00
FFFE
FFFE
FFFE
FF00
ENDCHAR
STARTCHAR 257F
ENCODING 9599
SWIDTH 562 0
DWIDTH 15 0
BBX 4 33 5 -10
BITMAP
F0
F0
F0
F0
F0
F0
F0
F0
F0
F0
F0
F0
F0
F0
F0
F0
60
60
60
60
60
60
60
60
60
60
60
60
60
60
60
60
60
ENDCHAR
STARTCHAR 2580
ENCODING 9600
SWIDTH 562 0
DWIDTH 15 0
BBX 15 17 0 6
BITMAP
FFFE
FFFE
FFFE
FFFE
FFFE
FFFE
FFFE
FFFE
FFFE
FFFE
FFFE
FFFE
FFFE
FFFE
FFFE
FFFE
FFFE
ENDCHAR
STARTCHAR 2581
ENCODING 9601
SWIDTH 562 0
DWIDTH 15 0
BBX 15 4 0 -9
BITMAP
FFFE
FFFE
FFFE
FFFE
ENDCHAR
STARTCHAR 2582
ENCODING 9602
SWIDTH 562 0
DWIDTH 15 0
BBX 15 8 0 -9
BITMAP
FFFE
FFFE
FFFE
FFFE
FFFE
FFFE
FFFE
FFFE
ENDCHAR
STARTCHAR 2583
ENCODING 9603
SWIDTH 562 0
DWIDTH 15 0
BBX 15 12 0 -9
BITMAP
FFFE
FFFE
FFFE
FFFE
FFFE
FFFE
FFFE
FFFE
FFFE
FFFE
FFFE
FFFE
ENDCHAR
STARTCHAR 2584
ENCODING 9604
SWIDTH 562 0
DWIDTH 15 0
BBX 15 15 0 -9
BITMAP
FFFE
FFFE
FFFE
FFFE
FFFE
FFFE
FFFE
FFFE
FFFE
FFFE
FFFE
FFFE
FFFE
FFFE
FFFE
ENDCHAR
STARTCHAR 2585
ENCODING 9605
SWIDTH 562 0
DWIDTH 15 0
BBX 15 19 0 -9
BITMAP
FFFE
FFFE
FFFE
FFFE
FFFE
FFFE
FFFE
FFFE
FFFE
FFFE
FFFE
FFFE
FFFE
FFFE
FFFE
FFFE
FFFE
FFFE
FFFE
ENDCHAR
STARTCHAR 2586
ENCODING 9606
SWIDTH 562 0
DWIDTH 15 0
BBX 15 23 0 -9
BITMAP
FFFE
FFFE
FFFE
FFFE
FFFE
FFFE
FFFE
FFFE
FFFE
FFFE
FFFE
FFFE
FFFE
FFFE
FFFE
FFFE
FFFE
FFFE
FFFE
FFFE
FFFE
FFFE
FFFE
ENDCHAR
STARTCHAR 2587
ENCODING 9607
SWIDTH 562 0
DWIDTH 15 0
BBX 15 27 0 -9
BITMAP
FFFE
FFFE
FFFE
FFFE
FFFE
FFFE
FFFE
FFFE
FFFE
FFFE
FFFE
FFFE
FFFE
FFFE
FFFE
FFFE
FFFE
FFFE
FFFE
FFFE
FFFE
FFFE
FFFE
FFFE
FFFE
FFFE
FFFE
ENDCHAR
STARTCHAR 2588
ENCODING 9608
SWIDTH 562 0
DWIDTH 15 0
BBX 15 32 0 -9
BITMAP
FFFE
FFFE
FFFE
FFFE
FFFE
FFFE
FFFE
FFFE
FFFE
FFFE
FFFE
FFFE
FFFE
FFFE
FFFE
FFFE
FFFE
FFFE
FFFE
FFFE
FFFE
FFFE
FFFE
FFFE
FFFE
FFFE
FFFE
FFFE
FFFE
FFFE
FFFE
FFFE
ENDCHAR
STARTCHAR 2589
ENCODING 9609
SWIDTH 562 0
DWIDTH 15 0
BBX 13 32 0 -9
BITMAP
FFF8
FFF8
FFF8
FFF8
FFF8
FFF8
FFF8
FFF8
FFF8
FFF8
FFF8
FFF8
FFF8
FFF8
FFF8
FFF8
FFF8
FFF8
FFF8
FFF8
FFF8
FFF8
FFF8
FFF8
FFF8
FFF8
FFF8
FFF8
FFF8
FFF8
FFF8
FFF8
ENDCHAR
STARTCHAR 258A
ENCODING 9610
SWIDTH 562 0
DWIDTH 15 0
BBX 11 32 0 -9
BITMAP
FFE0
FFE0
FFE0
FFE0
FFE0
FFE0
FFE0
FFE0
FFE0
FFE0
FFE0
FFE0
FFE0
FFE0
FFE0
FFE0
FFE0
FFE0
FFE0
FFE0
FFE0
FFE0
FFE0
FFE0
FFE0
FFE0
FFE0
FFE0
FFE0
FFE0
FFE0
FFE0
ENDCHAR
STARTCHAR 258B
ENCODING 9611
SWIDTH 562 0
DWIDTH 15 0
BBX 9 32 0 -9
BITMAP
FF80
FF80
FF80
FF80
FF80
FF80
FF80
FF80
FF80
FF80
FF80
FF80
FF80
FF80
FF80
FF80
FF80
FF80
FF80
FF80
FF80
FF80
FF80
FF80
FF80
FF80
FF80
FF80
FF80
FF80
FF80
FF80
ENDCHAR
STARTCHAR 258C
ENCODING 9612
SWIDTH 562 0
DWIDTH 15 0
BBX 7 32 0 -9
BITMAP
FE
FE
FE
FE
FE
FE
FE
FE
FE
FE
FE
FE
FE
FE
FE
FE
FE
FE
FE
FE
FE
FE
FE
FE
FE
FE
FE
FE
FE
FE
FE
FE
ENDCHAR
STARTCHAR 258D
ENCODING 9613
SWIDTH 562 0
DWIDTH 15 0
BBX 5 32 0 -9
BITMAP
F8
F8
F8
F8
F8
F8
F8
F8
F8
F8
F8
F8
F8
F8
F8
F8
F8
F8
F8
F8
F8
F8
F8
F8
F8
F8
F8
F8
F8
F8
F8
F8
ENDCHAR
STARTCHAR 258E
ENCODING 9614
SWIDTH 562 0
DWIDTH 15 0
BBX 3 32 0 -9
BITMAP
E0
E0
E0
E0
E0
E0
E0
E0
E0
E0
E0
E0
E0
E0
E0
E0
E0
E0
E0
E0
E0
E0
E0
E0
E0
E0
E0
E0
E0
E0
E0
E0
ENDCHAR
STARTCHAR 258F
ENCODING 9615
SWIDTH 562 0
DWIDTH 15 0
BBX 2 32 0 -9
BITMAP
C0
C0
C0
C0
C0
C0
C0
C0
C0
C0
C0
C0
C0
C0
C0
C0
C0
C0
C0
C0
C0
C0
C0
C0
C0
C0
C0
C0
C0
C0
C0
C0
ENDCHAR
STARTCHAR 2590
ENCODING 9616
SWIDTH 562 0
DWIDTH 15 0
BBX 8 32 7 -9
BITMAP
FF
FF
FF
FF
FF
FF
FF
FF
FF
FF
FF
FF
FF
FF
FF
FF
FF
FF
FF
FF
FF
FF
FF
FF
FF
FF
FF
FF
FF
FF
FF
FF
ENDCHAR
STARTCHAR 2591
ENCODING 9617
SWIDTH 562 0
DWIDTH 15 0
BBX 13 32 0 -9
BITMAP
C180
C180
C180
0000
0818
0818
0818
0000
0000
C180
C180
C180
0000
0818
0818
0818
0000
C180
C180
C180
0000
0818
0818
0818
0000
C180
C180
C180
0000
0818
0818
0818
ENDCHAR
STARTCHAR 2592
ENCODING 9618
SWIDTH 562 0
DWIDTH 15 0
BBX 15 32 0 -9
BITMAP
C630
C630
C630
39CE
39CE
39CE
39CE
C630
C630
C630
39CE
39CE
39CE
C630
C630
C630
39CE
39CE
39CE
39CE
C630
C630
C630
39CE
39CE
39CE
C630
C630
C630
39CE
39CE
39CE
ENDCHAR
STARTCHAR 2593
ENCODING 9619
SWIDTH 562 0
DWIDTH 15 0
BBX 15 32 0 -9
BITMAP
3E7E
3E7E
3E7E
FFFE
F7E6
F7E6
F7E6
FFFE
FFFE
3E7E
3E7E
3E7E
FFFE
F7E6
F7E6
F7E6
FFFE
3E7E
3E7E
3E7E
FFFE
F7E6
F7E6
F7E6
FFFE
3E7E
3E7E
3E7E
FFFE
FFFE
F7E6
F7E6
ENDCHAR
STARTCHAR 2594
ENCODING 9620
SWIDTH 562 0
DWIDTH 15 0
BBX 15 5 0 18
BITMAP
FFFE
FFFE
FFFE
FFFE
FFFE
ENDCHAR
STARTCHAR 2595
ENCODING 9621
SWIDTH 562 0
DWIDTH 15 0
BBX 2 32 13 -9
BITMAP
C0
C0
C0
C0
C0
C0
C0
C0
C0
C0
C0
C0
C0
C0
C0
C0
C0
C0
C0
C0
C0
C0
C0
C0
C0
C0
C0
C0
C0
C0
C0
C0
ENDCHAR
STARTCHAR 2596
ENCODING 9622
SWIDTH 562 0
DWIDTH 15 0
BBX 7 15 0 -9
BITMAP
FE
FE
FE
FE
FE
FE
FE
FE
FE
FE
FE
FE
FE
FE
FE
ENDCHAR
STARTCHAR 2597
ENCODING 9623
SWIDTH 562 0
DWIDTH 15 0
BBX 8 15 7 -9
BITMAP
FF
FF
FF
FF
FF
FF
FF
FF
FF
FF
FF
FF
FF
FF
FF
ENDCHAR
STARTCHAR 2598
ENCODING 9624
SWIDTH 562 0
DWIDTH 15 0
BBX 7 17 0 6
BITMAP
FE
FE
FE
FE
FE
FE
FE
FE
FE
FE
FE
FE
FE
FE
FE
FE
FE
ENDCHAR
STARTCHAR 2599
ENCODING 9625
SWIDTH 562 0
DWIDTH 15 0
BBX 15 32 0 -9
BITMAP
FE00
FE00
FE00
FE00
FE00
FE00
FE00
FE00
FE00
FE00
FE00
FE00
FE00
FE00
FE00
FE00
FE00
FFFE
FFFE
FFFE
FFFE
FFFE
FFFE
FFFE
FFFE
FFFE
FFFE
FFFE
FFFE
FFFE
FFFE
FFFE
ENDCHAR
STARTCHAR 259A
ENCODING 9626
SWIDTH 562 0
DWIDTH 15 0
BBX 15 32 0 -9
BITMAP
FE00
FE00
FE00
FE00
FE00
FE00
FE00
FE00
FE00
FE00
FE00
FE00
FE00
FE00
FE00
FE00
FE00
01FE
01FE
01FE
01FE
01FE
01FE
01FE
01FE
01FE
01FE
01FE
01FE
01FE
01FE
01FE
ENDCHAR
STARTCHAR 259B
ENCODING 9627
SWIDTH 562 0
DWIDTH 15 0
BBX 15 32 0 -9
BITMAP
FFFE
FFFE
FFFE
FFFE
FFFE
FFFE
FFFE
FFFE
FFFE
FFFE
FFFE
FFFE
FFFE
FFFE
FFFE
FFFE
FFFE
FE00
FE00
FE00
FE00
FE00
FE00
FE00
FE00
FE00
FE00
FE00
FE00
FE00
FE00
FE00
ENDCHAR
STARTCHAR 259C
ENCODING 9628
SWIDTH 562 0
DWIDTH 15 0
BBX 15 32 0 -9
BITMAP
FFFE
FFFE
FFFE
FFFE
FFFE
FFFE
FFFE
FFFE
FFFE
FFFE
FFFE
FFFE
FFFE
FFFE
FFFE
FFFE
FFFE
01FE
01FE
01FE
01FE
01FE
01FE
01FE
01FE
01FE
01FE
01FE
01FE
01FE
01FE
01FE
ENDCHAR
STARTCHAR 259D
ENCODING 9629
SWIDTH 562 0
DWIDTH 15 0
BBX 8 17 7 6
BITMAP
FF
FF
FF
FF
FF
FF
FF
FF
FF
FF
FF
FF
FF
FF
FF
FF
FF
ENDCHAR
STARTCHAR 259E
ENCODING 9630
SWIDTH 562 0
DWIDTH 15 0
BBX 15 32 0 -9
BITMAP
01FE
01FE
01FE
01FE
01FE
01FE
01FE
01FE
01FE
01FE
01FE
01FE
01FE
01FE
01FE
01FE
01FE
FE00
FE00
FE00
FE00
FE00
FE00
FE00
FE00
FE00
FE00
FE00
FE00
FE00
FE00
FE00
ENDCHAR
STARTCHAR 259F
ENCODING 9631
SWIDTH 562 0
DWIDTH 15 0
BBX 15 32 0 -9
BITMAP
01FE
01FE
01FE
01FE
01FE
01FE
01FE
01FE
01FE
01FE
01FE
01FE
01FE
01FE
01FE
01FE
01FE
FFFE
FFFE
FFFE
FFFE
FFFE
FFFE
FFFE
FFFE
FFFE
FFFE
FFFE
FFFE
FFFE
FFFE
FFFE
ENDCHAR
STARTCHAR 2630
ENCODING 9776
SWIDTH 562 0
DWIDTH 15 0
BBX 13 11 1 1
BITMAP
FFF8
FFF8
0000
0000
FFF8
FFF8
0000
0000
0000
FFF8
FFF8
ENDCHAR
STARTCHAR 2665
ENCODING 9829
SWIDTH 562 0
DWIDTH 15 0
BBX 27 23 0 -5
BITMAP
0FC0FE00
3FF1FF00
7C7BC780
703F01C0
E01E01C0
E00E00C0
E00C00E0
E00000E0
E00000E0
E00000C0
600001C0
700001C0
70000380
38000380
1C000700
1E000E00
0F001C00
07807800
03C0F000
00F1E000
007FC000
003F0000
000E0000
ENDCHAR
STARTCHAR 26A1
ENCODING 9889
SWIDTH 562 0
DWIDTH 15 0
BBX 21 27 0 -7
BITMAP
000700
000F80
001F80
003F80
007B80
00F700
01E700
03C600
078E00
0F0FE0
1E1FF8
3C0FF8
700038
E00078
E000F0
FF81E0
7FC3C0
1F8780
038F00
031E00
073C00
077800
0EF000
0FE000
0F8000
0F0000
060000
ENDCHAR
STARTCHAR 276C
ENCODING 10092
SWIDTH 562 0
DWIDTH 15 0
BBX 8 20 3 -3
BITMAP
07
07
0E
0E
1C
1C
38
38
70
70
E0
70
70
38
38
1C
1C
0E
0E
07
ENDCHAR
STARTCHAR 276D
ENCODING 10093
SWIDTH 562 0
DWIDTH 15 0
BBX 7 20 4 -3
BITMAP
C0
E0
E0
70
70
38
38
1C
1C
0E
0E
0E
1C
1C
38
38
70
70
E0
E0
ENDCHAR
STARTCHAR 276E
ENCODING 10094
SWIDTH 562 0
DWIDTH 15 0
BBX 11 20 2 -3
BITMAP
03E0
03C0
0780
0F80
0F00
1E00
3E00
3C00
7800
F800
F000
7800
7C00
3C00
1E00
1F00
0F00
0780
07C0
03C0
ENDCHAR
STARTCHAR 276F
ENCODING 10095
SWIDTH 562 0
DWIDTH 15 0
BBX 11 20 2 -3
BITMAP
F000
7800
7C00
3C00
1E00
1F00
0F00
0780
07C0
03C0
03E0
03C0
0780
0F80
0F00
1E00
3E00
3C00
7800
F800
ENDCHAR
STARTCHAR 2770
ENCODING 10096
SWIDTH 562 0
DWIDTH 15 0
BBX 11 23 2 -5
BITMAP
07E0
07C0
0FC0
0F80
1F80
1F00
3F00
3E00
7E00
7C00
FC00
F800
FC00
7C00
7E00
3E00
3F00
1F00
1F80
0F80
0FC0
07C0
07E0
ENDCHAR
STARTCHAR 2771
ENCODING 10097
SWIDTH 562 0
DWIDTH 15 0
BBX 11 23 2 -5
BITMAP
F800
7C00
7C00
3E00
3E00
1F00
1F00
0F80
0F80
0FC0
07C0
07E0
07C0
0FC0
0F80
1F80
1F00
3F00
3E00
7E00
7C00
FC00
F800
ENDCHAR
STARTCHAR 2800
ENCODING 10240
SWIDTH 562 0
DWIDTH 15 0
BBX 0 0 0 0
BITMAP
ENDCHAR
STARTCHAR 2801
ENCODING 10241
SWIDTH 562 0
DWIDTH 15 0
BBX 4 4 5 14
BITMAP
70
F0
F0
60
ENDCHAR
STARTCHAR 2802
ENCODING 10242
SWIDTH 562 0
DWIDTH 15 0
BBX 4 4 5 9
BITMAP
70
F0
F0
60
ENDCHAR
STARTCHAR 2803
ENCODING 10243
SWIDTH 562 0
DWIDTH 15 0
BBX 4 9 5 9
BITMAP
70
F0
F0
60
00
70
F0
F0
60
ENDCHAR
STARTCHAR 2804
ENCODING 10244
SWIDTH 562 0
DWIDTH 15 0
BBX 4 4 5 5
BITMAP
70
F0
F0
70
ENDCHAR
STARTCHAR 2805
ENCODING 10245
SWIDTH 562 0
DWIDTH 15 0
BBX 4 13 5 5
BITMAP
70
F0
70
60
00
00
00
00
00
70
F0
F0
60
ENDCHAR
STARTCHAR 2806
ENCODING 10246
SWIDTH 562 0
DWIDTH 15 0
BBX 4 9 5 4
BITMAP
70
F0
F0
60
00
70
F0
F0
60
ENDCHAR
STARTCHAR 2807
ENCODING 10247
SWIDTH 562 0
DWIDTH 15 0
BBX 4 14 5 4
BITMAP
70
F0
70
60
00
70
F0
F0
60
00
70
F0
F0
60
ENDCHAR
STARTCHAR 2808
ENCODING 10248
SWIDTH 562 0
DWIDTH 15 0
BBX 4 4 5 14
BITMAP
70
F0
F0
60
ENDCHAR
STARTCHAR 2809
ENCODING 10249
SWIDTH 562 0
DWIDTH 15 0
BBX 9 4 3 14
BITMAP
E300
F780
E780
E300
ENDCHAR
STARTCHAR 280A
ENCODING 10250
SWIDTH 562 0
DWIDTH 15 0
BBX 9 9 3 9
BITMAP
0300
0780
0780
0300
0000
E000
F000
E000
E000
ENDCHAR
STARTCHAR 280B
ENCODING 10251
SWIDTH 562 0
DWIDTH 15 0
BBX 9 9 3 9
BITMAP
E300
F780
E780
E300
0000
E000
F000
E000
E000
ENDCHAR
STARTCHAR 280C
ENCODING 10252
SWIDTH 562 0
DWIDTH 15 0
BBX 9 13 3 5
BITMAP
0380
0780
0780
0300
0000
0000
0000
0000
0000
E000
E000
E000
E000
ENDCHAR
STARTCHAR 280D
ENCODING 10253
SWIDTH 562 0
DWIDTH 15 0
BBX 9 13 3 5
BITMAP
E380
F780
E780
E300
0000
0000
0000
0000
0000
E000
E000
E000
E000
ENDCHAR
STARTCHAR 280E
ENCODING 10254
SWIDTH 562 0
DWIDTH 15 0
BBX 9 14 3 4
BITMAP
0380
0780
0780
0300
0000
E000
F000
E000
E000
0000
E000
E000
E000
E000
ENDCHAR
STARTCHAR 280F
ENCODING 10255
SWIDTH 562 0
DWIDTH 15 0
BBX 9 14 3 4
BITMAP
E380
F780
E780
E300
0000
E000
F000
E000
E000
0000
E000
E000
E000
E000
ENDCHAR
STARTCHAR 2810
ENCODING 10256
SWIDTH 562 0
DWIDTH 15 0
BBX 4 4 5 9
BITMAP
70
F0
F0
60
ENDCHAR
STARTCHAR 2811
ENCODING 10257
SWIDTH 562 0
DWIDTH 15 0
BBX 9 9 3 9
BITMAP
E000
F000
E000
E000
0000
0300
0780
0780
0300
ENDCHAR
STARTCHAR 2812
ENCODING 10258
SWIDTH 562 0
DWIDTH 15 0
BBX 9 4 3 9
BITMAP
E300
F780
E780
E300
ENDCHAR
STARTCHAR 2813
ENCODING 10259
SWIDTH 562 0
DWIDTH 15 0
BBX 9 9 3 9
BITMAP
E000
F000
E000
E000
0000
E300
F780
E780
E300
ENDCHAR
STARTCHAR 2814
ENCODING 10260
SWIDTH 562 0
DWIDTH 15 0
BBX 9 9 3 4
BITMAP
0300
0780
0780
0300
0000
E000
E000
E000
E000
ENDCHAR
STARTCHAR 2815
ENCODING 10261
SWIDTH 562 0
DWIDTH 15 0
BBX 9 14 3 4
BITMAP
E000
F000
E000
E000
0000
0380
0780
0780
0300
0000
E000
E000
E000
E000
ENDCHAR
STARTCHAR 2816
ENCODING 10262
SWIDTH 562 0
DWIDTH 15 0
BBX 9 9 3 4
BITMAP
E300
F780
E780
E300
0000
E000
E000
E000
E000
ENDCHAR
STARTCHAR 2817
ENCODING 10263
SWIDTH 562 0
DWIDTH 15 0
BBX 9 14 3 4
BITMAP
E000
F000
E000
E000
0000
E380
F780
E780
E300
0000
E000
E000
E000
E000
ENDCHAR
STARTCHAR 2818
ENCODING 10264
SWIDTH 562 0
DWIDTH 15 0
BBX 4 9 5 9
BITMAP
70
F0
F0
60
00
70
F0
F0
60
ENDCHAR
STARTCHAR 2819
ENCODING 10265
SWIDTH 562 0
DWIDTH 15 0
BBX 9 9 3 9
BITMAP
E300
F780
E780
E300
0000
0300
0780
0780
0300
ENDCHAR
STARTCHAR 281A
ENCODING 10266
SWIDTH 562 0
DWIDTH 15 0
BBX 9 9 3 9
BITMAP
0300
0780
0780
0300
0000
E300
F780
E780
E300
ENDCHAR
STARTCHAR 281B
ENCODING 10267
SWIDTH 562 0
DWIDTH 15 0
BBX 9 9 3 9
BITMAP
E300
F780
E780
E300
0000
E300
F780
E780
E300
ENDCHAR
STARTCHAR 281C
ENCODING 10268
SWIDTH 562 0
DWIDTH 15 0
BBX 9 14 3 4
BITMAP
0380
0780
0780
0300
0000
0380
0780
0780
0300
0000
E000
E000
E000
E000
ENDCHAR
STARTCHAR 281D
ENCODING 10269
SWIDTH 562 0
DWIDTH 15 0
BBX 9 14 3 4
BITMAP
E380
F780
E780
E300
0000
0380
0780
0780
0300
0000
E000
E000
E000
E000
ENDCHAR
STARTCHAR 281E
ENCODING 10270
SWIDTH 562 0
DWIDTH 15 0
BBX 9 14 3 4
BITMAP
0380
0780
0780
0300
0000
E380
F780
E780
E300
0000
E000
E000
E000
E000
ENDCHAR
STARTCHAR 281F
ENCODING 10271
SWIDTH 562 0
DWIDTH 15 0
BBX 9 14 3 4
BITMAP
E380
F780
E780
E300
0000
E380
F780
E780
E300
0000
E000
E000
E000
E000
ENDCHAR
STARTCHAR 2820
ENCODING 10272
SWIDTH 562 0
DWIDTH 15 0
BBX 4 4 5 5
BITMAP
70
F0
F0
70
ENDCHAR
STARTCHAR 2821
ENCODING 10273
SWIDTH 562 0
DWIDTH 15 0
BBX 9 13 3 5
BITMAP
E000
F000
E000
E000
0000
0000
0000
0000
0000
0300
0780
0780
0300
ENDCHAR
STARTCHAR 2822
ENCODING 10274
SWIDTH 562 0
DWIDTH 15 0
BBX 9 9 3 4
BITMAP
E000
F000
E000
E000
0000
0300
0780
0780
0300
ENDCHAR
STARTCHAR 2823
ENCODING 10275
SWIDTH 562 0
DWIDTH 15 0
BBX 9 14 3 4
BITMAP
E000
F000
E000
E000
0000
E000
F000
E000
E000
0000
0300
0780
0780
0300
ENDCHAR
STARTCHAR 2824
ENCODING 10276
SWIDTH 562 0
DWIDTH 15 0
BBX 9 4 3 5
BITMAP
6300
F780
E780
E300
ENDCHAR
STARTCHAR 2825
ENCODING 10277
SWIDTH 562 0
DWIDTH 15 0
BBX 9 13 3 5
BITMAP
6000
F000
F000
E000
0000
0000
0000
0000
0000
6300
F780
E780
E300
ENDCHAR
STARTCHAR 2826
ENCODING 10278
SWIDTH 562 0
DWIDTH 15 0
BBX 9 9 3 4
BITMAP
E000
F000
F000
E000
0000
E380
F780
E780
E300
ENDCHAR
STARTCHAR 2827
ENCODING 10279
SWIDTH 562 0
DWIDTH 15 0
BBX 9 14 3 4
BITMAP
6000
F000
F000
E000
0000
E000
F000
F000
E000
0000
E380
F780
E780
E300
ENDCHAR
STARTCHAR 2828
ENCODING 10280
SWIDTH 562 0
DWIDTH 15 0
BBX 4 13 5 5
BITMAP
70
F0
F0
60
00
00
00
00
00
70
F0
F0
60
ENDCHAR
STARTCHAR 2829
ENCODING 10281
SWIDTH 562 0
DWIDTH 15 0
BBX 9 13 3 5
BITMAP
E300
F780
E780
E300
0000
0000
0000
0000
0000
0300
0780
0780
0300
ENDCHAR
STARTCHAR 282A
ENCODING 10282
SWIDTH 562 0
DWIDTH 15 0
BBX 9 14 3 4
BITMAP
0300
0780
0780
0300
0000
E000
F000
E000
E000
0000
0300
0780
0780
0300
ENDCHAR
STARTCHAR 282B
ENCODING 10283
SWIDTH 562 0
DWIDTH 15 0
BBX 9 14 3 4
BITMAP
E300
F780
E780
E300
0000
E000
F000
E000
E000
0000
0300
0780
0780
0300
ENDCHAR
STARTCHAR 282C
ENCODING 10284
SWIDTH 562 0
DWIDTH 15 0
BBX 9 13 3 5
BITMAP
0380
0780
0780
0300
0000
0000
0000
0000
0000
E300
E780
E780
E300
ENDCHAR
STARTCHAR 282D
ENCODING 10285
SWIDTH 562 0
DWIDTH 15 0
BBX 9 13 3 5
BITMAP
E380
F780
E780
E300
0000
0000
0000
0000
0000
E300
E780
E780
E300
ENDCHAR
STARTCHAR 282E
ENCODING 10286
SWIDTH 562 0
DWIDTH 15 0
BBX 9 14 3 4
BITMAP
0380
0780
0780
0300
0000
E000
F000
E000
E000
0000
E300
E780
E780
E300
ENDCHAR
STARTCHAR 282F
ENCODING 10287
SWIDTH 562 0
DWIDTH 15 0
BBX 9 14 3 4
BITMAP
E380
F780
E780
E300
0000
E000
F000
E000
E000
0000
E300
E780
E780
E300
ENDCHAR
STARTCHAR 2830
ENCODING 10288
SWIDTH 562 0
DWIDTH 15 0
BBX 4 9 5 4
BITMAP
70
F0
F0
60
00
70
F0
F0
60
ENDCHAR
STARTCHAR 2831
ENCODING 10289
SWIDTH 562 0
DWIDTH 15 0
BBX 9 14 3 4
BITMAP
E000
F000
E000
E000
0000
0300
0780
0780
0300
0000
0300
0780
0780
0300
ENDCHAR
STARTCHAR 2832
ENCODING 10290
SWIDTH 562 0
DWIDTH 15 0
BBX 9 9 3 4
BITMAP
E300
F780
E780
E300
0000
0300
0780
0780
0300
ENDCHAR
STARTCHAR 2833
ENCODING 10291
SWIDTH 562 0
DWIDTH 15 0
BBX 9 14 3 4
BITMAP
E000
F000
E000
E000
0000
E300
F780
E780
E300
0000
0300
0780
0780
0300
ENDCHAR
STARTCHAR 2834
ENCODING 10292
SWIDTH 562 0
DWIDTH 15 0
BBX 9 9 3 4
BITMAP
0300
0780
0780
0300
0000
E300
E780
E780
E300
ENDCHAR
STARTCHAR 2835
ENCODING 10293
SWIDTH 562 0
DWIDTH 15 0
BBX 9 14 3 4
BITMAP
E000
F000
E000
E000
0000
0380
0780
0780
0300
0000
E300
E780
E780
E300
ENDCHAR
STARTCHAR 2836
ENCODING 10294
SWIDTH 562 0
DWIDTH 15 0
BBX 9 9 3 4
BITMAP
E300
F780
E780
E300
0000
E300
E780
E780
E300
ENDCHAR
STARTCHAR 2837
ENCODING 10295
SWIDTH 562 0
DWIDTH 15 0
BBX 9 14 3 4
BITMAP
E000
F000
E000
E000
0000
E380
F780
E780
E300
0000
E300
E780
E780
E300
ENDCHAR
STARTCHAR 2838
ENCODING 10296
SWIDTH 562 0
DWIDTH 15 0
BBX 4 14 5 4
BITMAP
70
F0
F0
60
00
70
F0
F0
60
00
70
F0
F0
60
ENDCHAR
STARTCHAR 2839
ENCODING 10297
SWIDTH 562 0
DWIDTH 15 0
BBX 9 14 3 4
BITMAP
E300
F780
E780
E300
0000
0300
0780
0780
0300
0000
0300
0780
0780
0300
ENDCHAR
STARTCHAR 283A
ENCODING 10298
SWIDTH 562 0
DWIDTH 15 0
BBX 9 14 3 4
BITMAP
0300
0780
0780
0300
0000
E300
F780
E780
E300
0000
0300
0780
0780
0300
ENDCHAR
STARTCHAR 283B
ENCODING 10299
SWIDTH 562 0
DWIDTH 15 0
BBX 9 14 3 4
BITMAP
E300
F780
E780
E300
0000
E300
F780
E780
E300
0000
0300
0780
0780
0300
ENDCHAR
STARTCHAR 283C
ENCODING 10300
SWIDTH 562 0
DWIDTH 15 0
BBX 9 14 3 4
BITMAP
0380
0780
0780
0300
0000
0380
0780
0780
0300
0000
E300
E780
E780
E300
ENDCHAR
STARTCHAR 283D
ENCODING 10301
SWIDTH 562 0
DWIDTH 15 0
BBX 9 14 3 4
BITMAP
E380
F780
E780
E300
0000
0380
0780
0780
0300
0000
E300
E780
E780
E300
ENDCHAR
STARTCHAR 283E
ENCODING 10302
SWIDTH 562 0
DWIDTH 15 0
BBX 9 14 3 4
BITMAP
0380
0780
0780
0300
0000
E380
F780
E780
E300
0000
E300
E780
E780
E300
ENDCHAR
STARTCHAR 283F
ENCODING 10303
SWIDTH 562 0
DWIDTH 15 0
BBX 9 14 3 4
BITMAP
E380
F780
E780
E300
0000
E380
F780
E780
E300
0000
E300
E780
E780
E300
ENDCHAR
STARTCHAR 2840
ENCODING 10304
SWIDTH 562 0
DWIDTH 15 0
BBX 4 4 5 0
BITMAP
70
F0
F0
60
ENDCHAR
STARTCHAR 2841
ENCODING 10305
SWIDTH 562 0
DWIDTH 15 0
BBX 4 18 5 0
BITMAP
70
F0
70
60
00
00
00
00
00
00
00
00
00
00
70
F0
F0
60
ENDCHAR
STARTCHAR 2842
ENCODING 10306
SWIDTH 562 0
DWIDTH 15 0
BBX 4 13 5 0
BITMAP
70
F0
70
70
00
00
00
00
00
70
F0
F0
60
ENDCHAR
STARTCHAR 2843
ENCODING 10307
SWIDTH 562 0
DWIDTH 15 0
BBX 4 18 5 0
BITMAP
70
F0
70
60
00
70
F0
70
70
00
00
00
00
00
70
F0
F0
60
ENDCHAR
STARTCHAR 2844
ENCODING 10308
SWIDTH 562 0
DWIDTH 15 0
BBX 4 9 5 0
BITMAP
70
F0
F0
70
00
70
F0
F0
60
ENDCHAR
STARTCHAR 2845
ENCODING 10309
SWIDTH 562 0
DWIDTH 15 0
BBX 4 18 5 0
BITMAP
70
F0
70
60
00
00
00
00
00
70
F0
F0
60
00
70
F0
F0
60
ENDCHAR
STARTCHAR 2846
ENCODING 10310
SWIDTH 562 0
DWIDTH 15 0
BBX 4 13 5 0
BITMAP
70
F0
70
70
00
70
F0
70
00
70
F0
F0
60
ENDCHAR
STARTCHAR 2847
ENCODING 10311
SWIDTH 562 0
DWIDTH 15 0
BBX 4 18 5 0
BITMAP
70
F0
70
60
00
70
F0
70
60
20
F0
F0
70
00
70
F0
F0
60
ENDCHAR
STARTCHAR 2848
ENCODING 10312
SWIDTH 562 0
DWIDTH 15 0
BBX 9 18 3 0
BITMAP
0380
0780
0780
0300
0000
0000
0000
0000
0000
0000
0000
0000
0000
0000
E000
E000
E000
E000
ENDCHAR
STARTCHAR 2849
ENCODING 10313
SWIDTH 562 0
DWIDTH 15 0
BBX 9 18 3 0
BITMAP
E380
F780
E780
E300
0000
0000
0000
0000
0000
0000
0000
0000
0000
0000
E000
E000
E000
E000
ENDCHAR
STARTCHAR 284A
ENCODING 10314
SWIDTH 562 0
DWIDTH 15 0
BBX 9 18 3 0
BITMAP
0380
0780
0780
0300
0000
E000
F000
E000
E000
0000
0000
0000
0000
0000
E000
E000
E000
E000
ENDCHAR
STARTCHAR 284B
ENCODING 10315
SWIDTH 562 0
DWIDTH 15 0
BBX 9 18 3 0
BITMAP
E380
F780
E780
E300
0000
E000
F000
E000
E000
0000
0000
0000
0000
0000
E000
E000
E000
E000
ENDCHAR
STARTCHAR 284C
ENCODING 10316
SWIDTH 562 0
DWIDTH 15 0
BBX 9 18 3 0
BITMAP
0380
0780
0780
0300
0000
0000
0000
0000
0000
E000
E000
E000
E000
0000
E000
E000
E000
E000
ENDCHAR
STARTCHAR 284D
ENCODING 10317
SWIDTH 562 0
DWIDTH 15 0
BBX 9 18 3 0
BITMAP
E380
F780
E780
E300
0000
0000
0000
0000
0000
E000
E000
E000
E000
0000
E000
E000
E000
E000
ENDCHAR
STARTCHAR 284E
ENCODING 10318
SWIDTH 562 0
DWIDTH 15 0
BBX 9 18 3 0
BITMAP
0380
0780
0780
0300
0000
E000
F000
E000
4000
4000
E000
E000
E000
0000
E000
E000
E000
E000
ENDCHAR
STARTCHAR 284F
ENCODING 10319
SWIDTH 562 0
DWIDTH 15 0
BBX 9 18 3 0
BITMAP
E380
F780
E780
E300
0000
E000
F000
E000
4000
4000
E000
E000
E000
0000
E000
E000
E000
E000
ENDCHAR
STARTCHAR 2850
ENCODING 10320
SWIDTH 562 0
DWIDTH 15 0
BBX 9 13 3 0
BITMAP
0300
0780
0780
0300
0000
0000
0000
0000
0000
E000
E000
E000
E000
ENDCHAR
STARTCHAR 2851
ENCODING 10321
SWIDTH 562 0
DWIDTH 15 0
BBX 9 18 3 0
BITMAP
E000
F000
F000
E000
0000
0380
0780
0780
0300
0000
0000
0000
0000
0000
E000
E000
E000
E000
ENDCHAR
STARTCHAR 2852
ENCODING 10322
SWIDTH 562 0
DWIDTH 15 0
BBX 9 13 3 0
BITMAP
E300
F780
F780
E300
0000
0000
0000
0000
0000
E000
E000
E000
E000
ENDCHAR
STARTCHAR 2853
ENCODING 10323
SWIDTH 562 0
DWIDTH 15 0
BBX 9 18 3 0
BITMAP
E000
F000
F000
E000
0000
E380
F780
F780
E300
0000
0000
0000
0000
0000
E000
E000
E000
E000
ENDCHAR
STARTCHAR 2854
ENCODING 10324
SWIDTH 562 0
DWIDTH 15 0
BBX 9 13 3 0
BITMAP
0300
0780
0780
0300
0000
E000
F000
E000
0000
E000
E000
E000
E000
ENDCHAR
STARTCHAR 2855
ENCODING 10325
SWIDTH 562 0
DWIDTH 15 0
BBX 9 18 3 0
BITMAP
E000
F000
F000
E000
0000
0380
0780
0780
0200
4000
E000
E000
E000
0000
E000
E000
E000
E000
ENDCHAR
STARTCHAR 2856
ENCODING 10326
SWIDTH 562 0
DWIDTH 15 0
BBX 9 13 3 0
BITMAP
E300
F780
F780
E300
0000
E000
F000
E000
0000
E000
E000
E000
E000
ENDCHAR
STARTCHAR 2857
ENCODING 10327
SWIDTH 562 0
DWIDTH 15 0
BBX 9 18 3 0
BITMAP
E000
F000
F000
E000
0000
E380
F780
E780
4200
4000
E000
E000
E000
0000
E000
E000
E000
E000
ENDCHAR
STARTCHAR 2858
ENCODING 10328
SWIDTH 562 0
DWIDTH 15 0
BBX 9 18 3 0
BITMAP
0380
0780
0780
0300
0000
0380
0780
0780
0300
0000
0000
0000
0000
0000
E000
E000
E000
E000
ENDCHAR
STARTCHAR 2859
ENCODING 10329
SWIDTH 562 0
DWIDTH 15 0
BBX 9 18 3 0
BITMAP
E380
F780
E780
E300
0000
0380
0780
0780
0300
0000
0000
0000
0000
0000
E000
E000
E000
E000
ENDCHAR
STARTCHAR 285A
ENCODING 10330
SWIDTH 562 0
DWIDTH 15 0
BBX 9 18 3 0
BITMAP
0380
0780
0780
0300
0000
E380
F780
E780
E300
0000
0000
0000
0000
0000
E000
E000
E000
E000
ENDCHAR
STARTCHAR 285B
ENCODING 10331
SWIDTH 562 0
DWIDTH 15 0
BBX 9 18 3 0
BITMAP
E380
F780
E780
E300
0000
E380
F780
E780
E300
0000
0000
0000
0000
0000
E000
E000
E000
E000
ENDCHAR
STARTCHAR 285C
ENCODING 10332
SWIDTH 562 0
DWIDTH 15 0
BBX 9 18 3 0
BITMAP
0380
0780
0780
0300
0000
0380
0780
0780
0200
4000
E000
E000
E000
0000
E000
E000
E000
E000
ENDCHAR
STARTCHAR 285D
ENCODING 10333
SWIDTH 562 0
DWIDTH 15 0
BBX 9 18 3 0
BITMAP
E380
F780
E780
E300
0000
0380
0780
0780
0200
4000
E000
E000
E000
0000
E000
E000
E000
E000
ENDCHAR
STARTCHAR 285E
ENCODING 10334
SWIDTH 562 0
DWIDTH 15 0
BBX 9 18 3 0
BITMAP
0380
0780
0780
0300
0000
E380
F780
E780
4200
4000
E000
E000
E000
0000
E000
E000
E000
E000
ENDCHAR
STARTCHAR 285F
ENCODING 10335
SWIDTH 562 0
DWIDTH 15 0
BBX 9 18 3 0
BITMAP
E380
F780
E780
E300
0000
E380
F780
E780
4200
4000
E000
E000
E000
0000
E000
E000
E000
E000
ENDCHAR
STARTCHAR 2860
ENCODING 10336
SWIDTH 562 0
DWIDTH 15 0
BBX 9 9 3 0
BITMAP
0300
0780
0780
0300
0000
E000
F000
E000
E000
ENDCHAR
STARTCHAR 2861
ENCODING 10337
SWIDTH 562 0
DWIDTH 15 0
BBX 9 18 3 0
BITMAP
6000
F000
F000
E000
0000
0000
0000
0000
0000
0300
0780
0780
0300
0000
E000
F000
E000
E000
ENDCHAR
STARTCHAR 2862
ENCODING 10338
SWIDTH 562 0
DWIDTH 15 0
BBX 9 13 3 0
BITMAP
6000
F000
F000
E000
0000
0780
0780
0780
0000
E000
F000
E000
E000
ENDCHAR
STARTCHAR 2863
ENCODING 10339
SWIDTH 562 0
DWIDTH 15 0
BBX 9 18 3 0
BITMAP
6000
F000
F000
E000
0000
E000
F000
E000
4000
0100
0780
0780
0780
0000
E000
F000
E000
E000
ENDCHAR
STARTCHAR 2864
ENCODING 10340
SWIDTH 562 0
DWIDTH 15 0
BBX 9 9 3 0
BITMAP
6300
F780
E780
E300
0000
E000
F000
E000
E000
ENDCHAR
STARTCHAR 2865
ENCODING 10341
SWIDTH 562 0
DWIDTH 15 0
BBX 9 18 3 0
BITMAP
6000
F000
F000
E000
0000
0000
0000
0000
0000
6300
F780
E780
E300
0000
E000
F000
E000
E000
ENDCHAR
STARTCHAR 2866
ENCODING 10342
SWIDTH 562 0
DWIDTH 15 0
BBX 9 13 3 0
BITMAP
6000
F000
F000
E000
0000
E780
F780
E780
0000
E000
F000
E000
E000
ENDCHAR
STARTCHAR 2867
ENCODING 10343
SWIDTH 562 0
DWIDTH 15 0
BBX 9 18 3 0
BITMAP
6000
F000
F000
E000
0000
E000
F000
E000
4000
6100
E780
F780
E780
0000
E000
F000
E000
E000
ENDCHAR
STARTCHAR 2868
ENCODING 10344
SWIDTH 562 0
DWIDTH 15 0
BBX 9 18 3 0
BITMAP
0380
0780
0780
0300
0000
0000
0000
0000
0000
0300
0780
0780
0300
0000
E000
E000
E000
E000
ENDCHAR
STARTCHAR 2869
ENCODING 10345
SWIDTH 562 0
DWIDTH 15 0
BBX 9 18 3 0
BITMAP
E380
F780
E780
E300
0000
0000
0000
0000
0000
0300
0780
0780
0300
0000
E000
E000
E000
E000
ENDCHAR
STARTCHAR 286A
ENCODING 10346
SWIDTH 562 0
DWIDTH 15 0
BBX 9 18 3 0
BITMAP
0380
0780
0780
0300
0000
E000
F000
E000
4000
0100
0780
0780
0700
0000
E000
E000
E000
E000
ENDCHAR
STARTCHAR 286B
ENCODING 10347
SWIDTH 562 0
DWIDTH 15 0
BBX 9 18 3 0
BITMAP
E380
F780
E780
E300
0000
E000
F000
E000
4000
0100
0780
0780
0700
0000
E000
E000
E000
E000
ENDCHAR
STARTCHAR 286C
ENCODING 10348
SWIDTH 562 0
DWIDTH 15 0
BBX 9 18 3 0
BITMAP
0380
0780
0780
0300
0000
0000
0000
0000
0000
E300
E780
E780
E300
0000
E000
E000
E000
E000
ENDCHAR
STARTCHAR 286D
ENCODING 10349
SWIDTH 562 0
DWIDTH 15 0
BBX 9 18 3 0
BITMAP
E380
F780
E780
E300
0000
0000
0000
0000
0000
E300
E780
E780
E300
0000
E000
E000
E000
E000
ENDCHAR
STARTCHAR 286E
ENCODING 10350
SWIDTH 562 0
DWIDTH 15 0
BBX 9 18 3 0
BITMAP
0380
0780
0780
0300
0000
E000
F000
E000
4000
4100
E780
E780
E700
0000
E000
E000
E000
E000
ENDCHAR
STARTCHAR 286F
ENCODING 10351
SWIDTH 562 0
DWIDTH 15 0
BBX 9 18 3 0
BITMAP
E380
F780
E780
E300
0000
E000
F000
E000
4000
4100
E780
E780
E700
0000
E000
E000
E000
E000
ENDCHAR
STARTCHAR 2870
ENCODING 10352
SWIDTH 562 0
DWIDTH 15 0
BBX 9 13 3 0
BITMAP
0300
0780
0780
0300
0000
0780
0780
0780
0000
E000
E000
E000
E000
ENDCHAR
STARTCHAR 2871
ENCODING 10353
SWIDTH 562 0
DWIDTH 15 0
BBX 9 18 3 0
BITMAP
E000
F000
F000
E000
0000
0380
0780
0780
0200
0100
0780
0780
0700
0000
E000
E000
E000
E000
ENDCHAR
STARTCHAR 2872
ENCODING 10354
SWIDTH 562 0
DWIDTH 15 0
BBX 9 13 3 0
BITMAP
E300
F780
F780
E300
0000
0780
0780
0780
0000
E000
E000
E000
E000
ENDCHAR
STARTCHAR 2873
ENCODING 10355
SWIDTH 562 0
DWIDTH 15 0
BBX 9 18 3 0
BITMAP
E000
F000
F000
E000
0000
E380
F780
E780
4200
0100
0780
0780
0700
0000
E000
E000
E000
E000
ENDCHAR
STARTCHAR 2874
ENCODING 10356
SWIDTH 562 0
DWIDTH 15 0
BBX 9 13 3 0
BITMAP
0300
0780
0780
0300
0000
E780
F780
E780
0000
E000
E000
E000
E000
ENDCHAR
STARTCHAR 2875
ENCODING 10357
SWIDTH 562 0
DWIDTH 15 0
BBX 9 18 3 0
BITMAP
E000
F000
F000
E000
0000
0380
0780
0780
0200
4100
E780
E780
E700
0000
E000
E000
E000
E000
ENDCHAR
STARTCHAR 2876
ENCODING 10358
SWIDTH 562 0
DWIDTH 15 0
BBX 9 13 3 0
BITMAP
E300
F780
F780
E300
0000
E780
F780
E780
0000
E000
E000
E000
E000
ENDCHAR
STARTCHAR 2877
ENCODING 10359
SWIDTH 562 0
DWIDTH 15 0
BBX 9 18 3 0
BITMAP
E000
F000
F000
E000
0000
E380
F780
E780
4200
4100
E780
E780
E700
0000
E000
E000
E000
E000
ENDCHAR
STARTCHAR 2878
ENCODING 10360
SWIDTH 562 0
DWIDTH 15 0
BBX 9 18 3 0
BITMAP
0380
0780
0780
0300
0000
0380
0780
0780
0200
0100
0780
0780
0700
0000
E000
E000
E000
E000
ENDCHAR
STARTCHAR 2879
ENCODING 10361
SWIDTH 562 0
DWIDTH 15 0
BBX 9 18 3 0
BITMAP
E380
F780
E780
E300
0000
0380
0780
0780
0200
0100
0780
0780
0700
0000
E000
E000
E000
E000
ENDCHAR
STARTCHAR 287A
ENCODING 10362
SWIDTH 562 0
DWIDTH 15 0
BBX 9 18 3 0
BITMAP
0380
0780
0780
0300
0000
E380
F780
E780
4200
0100
0780
0780
0700
0000
E000
E000
E000
E000
ENDCHAR
STARTCHAR 287B
ENCODING 10363
SWIDTH 562 0
DWIDTH 15 0
BBX 9 18 3 0
BITMAP
E380
F780
E780
E300
0000
E380
F780
E780
4200
0100
0780
0780
0700
0000
E000
E000
E000
E000
ENDCHAR
STARTCHAR 287C
ENCODING 10364
SWIDTH 562 0
DWIDTH 15 0
BBX 9 18 3 0
BITMAP
0380
0780
0780
0300
0000
0380
0780
0780
0200
4100
E780
E780
E700
0000
E000
E000
E000
E000
ENDCHAR
STARTCHAR 287D
ENCODING 10365
SWIDTH 562 0
DWIDTH 15 0
BBX 9 18 3 0
BITMAP
E380
F780
E780
E300
0000
0380
0780
0780
0200
4100
E780
E780
E700
0000
E000
E000
E000
E000
ENDCHAR
STARTCHAR 287E
ENCODING 10366
SWIDTH 562 0
DWIDTH 15 0
BBX 9 18 3 0
BITMAP
0380
0780
0780
0300
0000
E380
F780
E780
4200
4100
E780
E780
E700
0000
E000
E000
E000
E000
ENDCHAR
STARTCHAR 287F
ENCODING 10367
SWIDTH 562 0
DWIDTH 15 0
BBX 9 18 3 0
BITMAP
E380
F780
E780
E300
0000
E380
F780
E780
4200
4100
E780
E780
E700
0000
E000
E000
E000
E000
ENDCHAR
STARTCHAR 2880
ENCODING 10368
SWIDTH 562 0
DWIDTH 15 0
BBX 4 4 5 0
BITMAP
70
F0
F0
60
ENDCHAR
STARTCHAR 2881
ENCODING 10369
SWIDTH 562 0
DWIDTH 15 0
BBX 9 18 3 0
BITMAP
E000
F000
E000
E000
0000
0000
0000
0000
0000
0000
0000
0000
0000
0000
0300
0780
0780
0300
ENDCHAR
STARTCHAR 2882
ENCODING 10370
SWIDTH 562 0
DWIDTH 15 0
BBX 9 13 3 0
BITMAP
E000
F000
F000
E000
0000
0000
0000
0000
0000
0300
0780
0780
0300
ENDCHAR
STARTCHAR 2883
ENCODING 10371
SWIDTH 562 0
DWIDTH 15 0
BBX 9 18 3 0
BITMAP
6000
F000
F000
E000
0000
E000
F000
F000
E000
0000
0000
0000
0000
0000
0300
0780
0780
0300
ENDCHAR
STARTCHAR 2884
ENCODING 10372
SWIDTH 562 0
DWIDTH 15 0
BBX 9 9 3 0
BITMAP
6000
F000
E000
E000
0000
0300
0780
0780
0300
ENDCHAR
STARTCHAR 2885
ENCODING 10373
SWIDTH 562 0
DWIDTH 15 0
BBX 9 18 3 0
BITMAP
6000
F000
F000
E000
0000
0000
0000
0000
0000
6000
F000
E000
E000
0000
0380
0780
0780
0300
ENDCHAR
STARTCHAR 2886
ENCODING 10374
SWIDTH 562 0
DWIDTH 15 0
BBX 9 13 3 0
BITMAP
6000
F000
F000
E000
0000
E000
F000
E000
0000
0300
0780
0780
0300
ENDCHAR
STARTCHAR 2887
ENCODING 10375
SWIDTH 562 0
DWIDTH 15 0
BBX 9 18 3 0
BITMAP
6000
F000
F000
E000
0000
E000
F000
E000
4000
6000
E000
F000
E000
0000
0300
0780
0780
0300
ENDCHAR
STARTCHAR 2888
ENCODING 10376
SWIDTH 562 0
DWIDTH 15 0
BBX 4 18 5 0
BITMAP
70
F0
70
70
00
00
00
00
00
00
00
00
00
00
70
F0
F0
60
ENDCHAR
STARTCHAR 2889
ENCODING 10377
SWIDTH 562 0
DWIDTH 15 0
BBX 9 18 3 0
BITMAP
E300
F780
E780
E300
0000
0000
0000
0000
0000
0000
0000
0000
0000
0000
0300
0780
0780
0300
ENDCHAR
STARTCHAR 288A
ENCODING 10378
SWIDTH 562 0
DWIDTH 15 0
BBX 9 18 3 0
BITMAP
0300
0780
0780
0300
0000
E000
F000
E000
E000
0000
0000
0000
0000
0000
0300
0780
0780
0300
ENDCHAR
STARTCHAR 288B
ENCODING 10379
SWIDTH 562 0
DWIDTH 15 0
BBX 9 18 3 0
BITMAP
E300
F780
E780
E300
0000
E000
F000
E000
E000
0000
0000
0000
0000
0000
0300
0780
0780
0300
ENDCHAR
STARTCHAR 288C
ENCODING 10380
SWIDTH 562 0
DWIDTH 15 0
BBX 9 18 3 0
BITMAP
0380
0780
0780
0300
0000
0000
0000
0000
0000
E000
E000
E000
E000
0000
0300
0780
0780
0300
ENDCHAR
STARTCHAR 288D
ENCODING 10381
SWIDTH 562 0
DWIDTH 15 0
BBX 9 18 3 0
BITMAP
E380
F780
E780
E300
0000
0000
0000
0000
0000
E000
E000
E000
E000
0000
0300
0780
0780
0300
ENDCHAR
STARTCHAR 288E
ENCODING 10382
SWIDTH 562 0
DWIDTH 15 0
BBX 9 18 3 0
BITMAP
0380
0780
0780
0300
0000
E000
F000
E000
4000
4000
E000
E000
E000
0000
0300
0780
0780
0300
ENDCHAR
STARTCHAR 288F
ENCODING 10383
SWIDTH 562 0
DWIDTH 15 0
BBX 9 18 3 0
BITMAP
E380
F780
E780
E300
0000
E000
F000
E000
4000
4000
E000
E000
E000
0000
0300
0780
0780
0300
ENDCHAR
STARTCHAR 2890
ENCODING 10384
SWIDTH 562 0
DWIDTH 15 0
BBX 4 13 5 0
BITMAP
70
F0
70
60
00
00
00
00
00
70
F0
F0
60
ENDCHAR
STARTCHAR 2891
ENCODING 10385
SWIDTH 562 0
DWIDTH 15 0
BBX 9 18 3 0
BITMAP
E000
F000
E000
E000
0000
0300
0780
0780
0300
0000
0000
0000
0000
0000
0300
0780
0780
0300
ENDCHAR
STARTCHAR 2892
ENCODING 10386
SWIDTH 562 0
DWIDTH 15 0
BBX 9 13 3 0
BITMAP
E300
F780
E780
E300
0000
0000
0000
0000
0000
0300
0780
0780
0300
ENDCHAR
STARTCHAR 2893
ENCODING 10387
SWIDTH 562 0
DWIDTH 15 0
BBX 9 18 3 0
BITMAP
E000
F000
E000
E000
0000
E300
F780
E780
E300
0000
0000
0000
0000
0000
0300
0780
0780
0300
ENDCHAR
STARTCHAR 2894
ENCODING 10388
SWIDTH 562 0
DWIDTH 15 0
BBX 9 13 3 0
BITMAP
0300
0780
0780
0300
0000
E000
F000
E000
0000
0300
0780
0780
0300
ENDCHAR
STARTCHAR 2895
ENCODING 10389
SWIDTH 562 0
DWIDTH 15 0
BBX 9 18 3 0
BITMAP
E000
F000
E000
E000
0000
0380
0780
0780
0200
4000
E000
E000
E000
0000
0300
0780
0780
0300
ENDCHAR
STARTCHAR 2896
ENCODING 10390
SWIDTH 562 0
DWIDTH 15 0
BBX 9 13 3 0
BITMAP
E300
F780
E780
E300
0000
E000
F000
E000
0000
0300
0780
0780
0300
ENDCHAR
STARTCHAR 2897
ENCODING 10391
SWIDTH 562 0
DWIDTH 15 0
BBX 9 18 3 0
BITMAP
E000
F000
E000
E000
0000
E380
F780
E780
4200
4000
E000
E000
E000
0000
0300
0780
0780
0300
ENDCHAR
STARTCHAR 2898
ENCODING 10392
SWIDTH 562 0
DWIDTH 15 0
BBX 4 18 5 0
BITMAP
70
F0
70
70
00
70
F0
F0
60
00
00
00
00
00
70
F0
F0
60
ENDCHAR
STARTCHAR 2899
ENCODING 10393
SWIDTH 562 0
DWIDTH 15 0
BBX 9 18 3 0
BITMAP
E300
F780
E780
E300
0000
0300
0780
0780
0300
0000
0000
0000
0000
0000
0300
0780
0780
0300
ENDCHAR
STARTCHAR 289A
ENCODING 10394
SWIDTH 562 0
DWIDTH 15 0
BBX 9 18 3 0
BITMAP
0300
0780
0780
0300
0000
E300
F780
E780
E300
0000
0000
0000
0000
0000
0300
0780
0780
0300
ENDCHAR
STARTCHAR 289B
ENCODING 10395
SWIDTH 562 0
DWIDTH 15 0
BBX 9 18 3 0
BITMAP
E300
F780
E780
E300
0000
E300
F780
E780
E300
0000
0000
0000
0000
0000
0300
0780
0780
0300
ENDCHAR
STARTCHAR 289C
ENCODING 10396
SWIDTH 562 0
DWIDTH 15 0
BBX 9 18 3 0
BITMAP
0380
0780
0780
0300
0000
0780
0780
0780
0200
4000
E000
E000
E000
0000
0300
0780
0780
0300
ENDCHAR
STARTCHAR 289D
ENCODING 10397
SWIDTH 562 0
DWIDTH 15 0
BBX 9 18 3 0
BITMAP
E380
F780
E780
E300
0000
0780
0780
0780
0200
4000
E000
E000
E000
0000
0300
0780
0780
0300
ENDCHAR
STARTCHAR 289E
ENCODING 10398
SWIDTH 562 0
DWIDTH 15 0
BBX 9 18 3 0
BITMAP
0380
0780
0780
0300
0000
E780
F780
E780
4200
4000
E000
E000
E000
0000
0300
0780
0780
0300
ENDCHAR
STARTCHAR 289F
ENCODING 10399
SWIDTH 562 0
DWIDTH 15 0
BBX 9 18 3 0
BITMAP
E380
F780
E780
E300
0000
E780
F780
E780
4200
4000
E000
E000
E000
0000
0300
0780
0780
0300
ENDCHAR
STARTCHAR 28A0
ENCODING 10400
SWIDTH 562 0
DWIDTH 15 0
BBX 4 9 5 0
BITMAP
70
F0
F0
60
00
70
F0
F0
60
ENDCHAR
STARTCHAR 28A1
ENCODING 10401
SWIDTH 562 0
DWIDTH 15 0
BBX 9 18 3 0
BITMAP
E000
F000
E000
E000
0000
0000
0000
0000
0000
0300
0780
0780
0300
0000
0300
0780
0780
0300
ENDCHAR
STARTCHAR 28A2
ENCODING 10402
SWIDTH 562 0
DWIDTH 15 0
BBX 9 13 3 0
BITMAP
E000
F000
E000
E000
0000
0780
0780
0780
0200
0300
0780
0780
0300
ENDCHAR
STARTCHAR 28A3
ENCODING 10403
SWIDTH 562 0
DWIDTH 15 0
BBX 9 18 3 0
BITMAP
E000
F000
E000
E000
0000
E000
F000
E000
4000
0100
0780
0780
0700
0000
0300
0780
0780
0300
ENDCHAR
STARTCHAR 28A4
ENCODING 10404
SWIDTH 562 0
DWIDTH 15 0
BBX 9 9 3 0
BITMAP
6300
F780
E780
E300
0000
0300
0780
0780
0300
ENDCHAR
STARTCHAR 28A5
ENCODING 10405
SWIDTH 562 0
DWIDTH 15 0
BBX 9 18 3 0
BITMAP
6000
F000
F000
E000
0000
0000
0000
0000
0000
6300
F780
E780
E300
0000
0300
0780
0780
0300
ENDCHAR
STARTCHAR 28A6
ENCODING 10406
SWIDTH 562 0
DWIDTH 15 0
BBX 9 13 3 0
BITMAP
E000
F000
F000
E000
0000
E780
F780
E780
0000
0300
0780
0780
0300
ENDCHAR
STARTCHAR 28A7
ENCODING 10407
SWIDTH 562 0
DWIDTH 15 0
BBX 9 18 3 0
BITMAP
6000
F000
F000
E000
0000
E000
F000
E000
4000
4100
E780
F780
E780
0000
0300
0780
0780
0300
ENDCHAR
STARTCHAR 28A8
ENCODING 10408
SWIDTH 562 0
DWIDTH 15 0
BBX 4 18 5 0
BITMAP
70
F0
70
70
00
00
00
00
00
70
F0
F0
60
00
70
F0
F0
60
ENDCHAR
STARTCHAR 28A9
ENCODING 10409
SWIDTH 562 0
DWIDTH 15 0
BBX 9 18 3 0
BITMAP
E300
F780
E780
E300
0000
0000
0000
0000
0000
0300
0780
0780
0300
0000
0300
0780
0780
0300
ENDCHAR
STARTCHAR 28AA
ENCODING 10410
SWIDTH 562 0
DWIDTH 15 0
BBX 9 18 3 0
BITMAP
0300
0780
0780
0300
0000
E000
F000
E000
4000
0100
0780
0780
0700
0000
0300
0780
0780
0300
ENDCHAR
STARTCHAR 28AB
ENCODING 10411
SWIDTH 562 0
DWIDTH 15 0
BBX 9 18 3 0
BITMAP
E300
F780
E780
E300
0000
E000
F000
E000
4000
0100
0780
0780
0700
0000
0300
0780
0780
0300
ENDCHAR
STARTCHAR 28AC
ENCODING 10412
SWIDTH 562 0
DWIDTH 15 0
BBX 9 18 3 0
BITMAP
0380
0780
0780
0300
0000
0000
0000
0000
0000
E300
E780
E780
E300
0000
0300
0780
0780
0300
ENDCHAR
STARTCHAR 28AD
ENCODING 10413
SWIDTH 562 0
DWIDTH 15 0
BBX 9 18 3 0
BITMAP
E380
F780
E780
E300
0000
0000
0000
0000
0000
E300
E780
E780
E300
0000
0300
0780
0780
0300
ENDCHAR
STARTCHAR 28AE
ENCODING 10414
SWIDTH 562 0
DWIDTH 15 0
BBX 9 18 3 0
BITMAP
0380
0780
0780
0300
0000
E000
F000
E000
4000
4100
E780
E780
E700
0000
0300
0780
0780
0300
ENDCHAR
STARTCHAR 28AF
ENCODING 10415
SWIDTH 562 0
DWIDTH 15 0
BBX 9 18 3 0
BITMAP
E380
F780
E780
E300
0000
E000
F000
E000
4000
4100
E780
E780
E700
0000
0300
0780
0780
0300
ENDCHAR
STARTCHAR 28B0
ENCODING 10416
SWIDTH 562 0
DWIDTH 15 0
BBX 4 13 5 0
BITMAP
70
F0
70
60
00
70
F0
70
00
70
F0
F0
60
ENDCHAR
STARTCHAR 28B1
ENCODING 10417
SWIDTH 562 0
DWIDTH 15 0
BBX 9 18 3 0
BITMAP
E000
F000
E000
E000
0000
0780
0780
0780
0300
0100
0780
0780
0700
0000
0300
0780
0780
0300
ENDCHAR
STARTCHAR 28B2
ENCODING 10418
SWIDTH 562 0
DWIDTH 15 0
BBX 9 13 3 0
BITMAP
E300
F780
E780
E300
0000
0780
0780
0780
0200
0300
0780
0780
0300
ENDCHAR
STARTCHAR 28B3
ENCODING 10419
SWIDTH 562 0
DWIDTH 15 0
BBX 9 18 3 0
BITMAP
E000
F000
E000
E000
0000
E780
F780
E780
4300
0100
0780
0780
0700
0000
0300
0780
0780
0300
ENDCHAR
STARTCHAR 28B4
ENCODING 10420
SWIDTH 562 0
DWIDTH 15 0
BBX 9 13 3 0
BITMAP
0300
0780
0780
0300
0000
E780
F780
E780
0200
0300
0780
0780
0300
ENDCHAR
STARTCHAR 28B5
ENCODING 10421
SWIDTH 562 0
DWIDTH 15 0
BBX 9 18 3 0
BITMAP
E000
F000
E000
E000
0000
0380
0780
0780
0200
4100
E780
E780
E700
0000
0300
0780
0780
0300
ENDCHAR
STARTCHAR 28B6
ENCODING 10422
SWIDTH 562 0
DWIDTH 15 0
BBX 9 13 3 0
BITMAP
E300
F780
E780
E300
0000
E780
F780
E780
0200
0300
0780
0780
0300
ENDCHAR
STARTCHAR 28B7
ENCODING 10423
SWIDTH 562 0
DWIDTH 15 0
BBX 9 18 3 0
BITMAP
E000
F000
E000
E000
0000
E380
F780
E780
4200
4100
E780
E780
E700
0000
0300
0780
0780
0300
ENDCHAR
STARTCHAR 28B8
ENCODING 10424
SWIDTH 562 0
DWIDTH 15 0
BBX 4 17 5 0
BITMAP
70
F0
70
00
70
F0
F0
70
00
70
F0
F0
60
20
F0
F0
70
ENDCHAR
STARTCHAR 28B9
ENCODING 10425
SWIDTH 562 0
DWIDTH 15 0
BBX 9 18 3 0
BITMAP
E300
F780
E780
E300
0000
0780
0780
0780
0200
0100
0780
0780
0700
0000
0300
0780
0780
0300
ENDCHAR
STARTCHAR 28BA
ENCODING 10426
SWIDTH 562 0
DWIDTH 15 0
BBX 9 18 3 0
BITMAP
0300
0780
0780
0300
0000
E780
F780
E780
4200
0100
0780
0780
0700
0000
0300
0780
0780
0300
ENDCHAR
STARTCHAR 28BB
ENCODING 10427
SWIDTH 562 0
DWIDTH 15 0
BBX 9 18 3 0
BITMAP
E300
F780
E780
E300
0000
E780
F780
E780
4200
0100
0780
0780
0700
0000
0300
0780
0780
0300
ENDCHAR
STARTCHAR 28BC
ENCODING 10428
SWIDTH 562 0
DWIDTH 15 0
BBX 9 18 3 0
BITMAP
0380
0780
0780
0300
0000
0780
0780
0780
0200
4100
E780
E780
E700
0000
0300
0780
0780
0300
ENDCHAR
STARTCHAR 28BD
ENCODING 10429
SWIDTH 562 0
DWIDTH 15 0
BBX 9 18 3 0
BITMAP
E380
F780
E780
E300
0000
0780
0780
0780
0200
4100
E780
E780
E700
0000
0300
0780
0780
0300
ENDCHAR
STARTCHAR 28BE
ENCODING 10430
SWIDTH 562 0
DWIDTH 15 0
BBX 9 18 3 0
BITMAP
0380
0780
0780
0300
0000
E780
F780
E780
4200
4100
E780
E780
E700
0000
0300
0780
0780
0300
ENDCHAR
STARTCHAR 28BF
ENCODING 10431
SWIDTH 562 0
DWIDTH 15 0
BBX 9 18 3 0
BITMAP
E380
F780
E780
E300
0000
E780
F780
E780
4200
4100
E780
E780
E700
0000
0300
0780
0780
0300
ENDCHAR
STARTCHAR 28C0
ENCODING 10432
SWIDTH 562 0
DWIDTH 15 0
BBX 9 4 3 0
BITMAP
E300
F780
E780
E300
ENDCHAR
STARTCHAR 28C1
ENCODING 10433
SWIDTH 562 0
DWIDTH 15 0
BBX 9 18 3 0
BITMAP
6000
F000
F000
E000
0000
0000
0000
0000
0000
0000
0000
0000
0000
0000
E300
F780
E780
E300
ENDCHAR
STARTCHAR 28C2
ENCODING 10434
SWIDTH 562 0
DWIDTH 15 0
BBX 9 13 3 0
BITMAP
6000
F000
F000
E000
0000
0000
0000
0000
0000
E300
F780
E780
E300
ENDCHAR
STARTCHAR 28C3
ENCODING 10435
SWIDTH 562 0
DWIDTH 15 0
BBX 9 18 3 0
BITMAP
6000
F000
F000
E000
0000
6000
F000
F000
E000
0000
0000
0000
0000
0000
E300
F780
E780
E300
ENDCHAR
STARTCHAR 28C4
ENCODING 10436
SWIDTH 562 0
DWIDTH 15 0
BBX 9 9 3 0
BITMAP
6000
F000
F000
E000
0000
E300
F780
E780
E300
ENDCHAR
STARTCHAR 28C5
ENCODING 10437
SWIDTH 562 0
DWIDTH 15 0
BBX 9 18 3 0
BITMAP
6000
F000
F000
E000
0000
0000
0000
0000
0000
6000
F000
F000
E000
0000
E380
F780
E780
E300
ENDCHAR
STARTCHAR 28C6
ENCODING 10438
SWIDTH 562 0
DWIDTH 15 0
BBX 9 13 3 0
BITMAP
6000
F000
F000
E000
0000
E000
F000
E000
0000
E300
F780
E780
E300
ENDCHAR
STARTCHAR 28C7
ENCODING 10439
SWIDTH 562 0
DWIDTH 15 0
BBX 9 18 3 0
BITMAP
6000
F000
F000
E000
0000
E000
F000
E000
4000
6000
E000
F000
E000
0000
E300
F780
E780
E300
ENDCHAR
STARTCHAR 28C8
ENCODING 10440
SWIDTH 562 0
DWIDTH 15 0
BBX 9 18 3 0
BITMAP
0380
0780
0780
0300
0000
0000
0000
0000
0000
0000
0000
0000
0000
0000
E300
E780
E780
E300
ENDCHAR
STARTCHAR 28C9
ENCODING 10441
SWIDTH 562 0
DWIDTH 15 0
BBX 9 18 3 0
BITMAP
E380
F780
E780
E300
0000
0000
0000
0000
0000
0000
0000
0000
0000
0000
E300
E780
E780
E300
ENDCHAR
STARTCHAR 28CA
ENCODING 10442
SWIDTH 562 0
DWIDTH 15 0
BBX 9 18 3 0
BITMAP
0380
0780
0780
0300
0000
E000
F000
E000
E000
0000
0000
0000
0000
0000
E300
E780
E780
E300
ENDCHAR
STARTCHAR 28CB
ENCODING 10443
SWIDTH 562 0
DWIDTH 15 0
BBX 9 18 3 0
BITMAP
E380
F780
E780
E300
0000
E000
F000
E000
E000
0000
0000
0000
0000
0000
E300
E780
E780
E300
ENDCHAR
STARTCHAR 28CC
ENCODING 10444
SWIDTH 562 0
DWIDTH 15 0
BBX 9 18 3 0
BITMAP
0380
0780
0780
0300
0000
0000
0000
0000
0000
E000
E000
E000
E000
0000
E300
E780
E780
E300
ENDCHAR
STARTCHAR 28CD
ENCODING 10445
SWIDTH 562 0
DWIDTH 15 0
BBX 9 18 3 0
BITMAP
E380
F780
E780
E300
0000
0000
0000
0000
0000
E000
E000
E000
E000
0000
E300
E780
E780
E300
ENDCHAR
STARTCHAR 28CE
ENCODING 10446
SWIDTH 562 0
DWIDTH 15 0
BBX 9 18 3 0
BITMAP
0380
0780
0780
0300
0000
E000
F000
E000
4000
4000
E000
E000
E000
0000
E300
E780
E780
E300
ENDCHAR
STARTCHAR 28CF
ENCODING 10447
SWIDTH 562 0
DWIDTH 15 0
BBX 9 18 3 0
BITMAP
E380
F780
E780
E300
0000
E000
F000
E000
4000
4000
E000
E000
E000
0000
E300
E780
E780
E300
ENDCHAR
STARTCHAR 28D0
ENCODING 10448
SWIDTH 562 0
DWIDTH 15 0
BBX 9 13 3 0
BITMAP
0300
0780
0780
0300
0000
0000
0000
0000
0000
E300
E780
E780
E300
ENDCHAR
STARTCHAR 28D1
ENCODING 10449
SWIDTH 562 0
DWIDTH 15 0
BBX 9 18 3 0
BITMAP
E000
F000
F000
E000
0000
0380
0780
0780
0300
0000
0000
0000
0000
0000
E300
E780
E780
E300
ENDCHAR
STARTCHAR 28D2
ENCODING 10450
SWIDTH 562 0
DWIDTH 15 0
BBX 9 13 3 0
BITMAP
E300
F780
F780
E300
0000
0000
0000
0000
0000
E300
E780
E780
E300
ENDCHAR
STARTCHAR 28D3
ENCODING 10451
SWIDTH 562 0
DWIDTH 15 0
BBX 9 18 3 0
BITMAP
E000
F000
F000
E000
0000
E380
F780
F780
E300
0000
0000
0000
0000
0000
E300
E780
E780
E300
ENDCHAR
STARTCHAR 28D4
ENCODING 10452
SWIDTH 562 0
DWIDTH 15 0
BBX 9 13 3 0
BITMAP
0300
0780
0780
0300
0000
E000
F000
E000
0000
E300
E780
E780
E300
ENDCHAR
STARTCHAR 28D5
ENCODING 10453
SWIDTH 562 0
DWIDTH 15 0
BBX 9 18 3 0
BITMAP
E000
F000
F000
E000
0000
0380
0780
0780
0200
4000
E000
E000
E000
0000
E300
E780
E780
E300
ENDCHAR
STARTCHAR 28D6
ENCODING 10454
SWIDTH 562 0
DWIDTH 15 0
BBX 9 13 3 0
BITMAP
E300
F780
F780
E300
0000
E000
F000
E000
0000
E300
E780
E780
E300
ENDCHAR
STARTCHAR 28D7
ENCODING 10455
SWIDTH 562 0
DWIDTH 15 0
BBX 9 18 3 0
BITMAP
E000
F000
F000
E000
0000
E380
F780
E780
4200
4000
E000
E000
E000
0000
E300
E780
E780
E300
ENDCHAR
STARTCHAR 28D8
ENCODING 10456
SWIDTH 562 0
DWIDTH 15 0
BBX 9 18 3 0
BITMAP
0380
0780
0780
0300
0000
0380
0780
0780
0300
0000
0000
0000
0000
0000
E300
E780
E780
E300
ENDCHAR
STARTCHAR 28D9
ENCODING 10457
SWIDTH 562 0
DWIDTH 15 0
BBX 9 18 3 0
BITMAP
E380
F780
E780
E300
0000
0380
0780
0780
0300
0000
0000
0000
0000
0000
E300
E780
E780
E300
ENDCHAR
STARTCHAR 28DA
ENCODING 10458
SWIDTH 562 0
DWIDTH 15 0
BBX 9 18 3 0
BITMAP
0380
0780
0780
0300
0000
E380
F780
E780
E300
0000
0000
0000
0000
0000
E300
E780
E780
E300
ENDCHAR
STARTCHAR 28DB
ENCODING 10459
SWIDTH 562 0
DWIDTH 15 0
BBX 9 18 3 0
BITMAP
E380
F780
E780
E300
0000
E380
F780
E780
E300
0000
0000
0000
0000
0000
E300
E780
E780
E300
ENDCHAR
STARTCHAR 28DC
ENCODING 10460
SWIDTH 562 0
DWIDTH 15 0
BBX 9 18 3 0
BITMAP
0380
0780
0780
0300
0000
0380
0780
0780
0200
4000
E000
E000
E000
0000
E300
E780
E780
E300
ENDCHAR
STARTCHAR 28DD
ENCODING 10461
SWIDTH 562 0
DWIDTH 15 0
BBX 9 18 3 0
BITMAP
E380
F780
E780
E300
0000
0380
0780
0780
0200
4000
E000
E000
E000
0000
E300
E780
E780
E300
ENDCHAR
STARTCHAR 28DE
ENCODING 10462
SWIDTH 562 0
DWIDTH 15 0
BBX 9 18 3 0
BITMAP
0380
0780
0780
0300
0000
E380
F780
E780
4200
4000
E000
E000
E000
0000
E300
E780
E780
E300
ENDCHAR
STARTCHAR 28DF
ENCODING 10463
SWIDTH 562 0
DWIDTH 15 0
BBX 9 18 3 0
BITMAP
E380
F780
E780
E300
0000
E380
F780
E780
4200
4000
E000
E000
E000
0000
E300
E780
E780
E300
ENDCHAR
STARTCHAR 28E0
ENCODING 10464
SWIDTH 562 0
DWIDTH 15 0
BBX 9 9 3 0
BITMAP
0300
0780
0780
0300
0000
E300
F780
E780
E300
ENDCHAR
STARTCHAR 28E1
ENCODING 10465
SWIDTH 562 0
DWIDTH 15 0
BBX 9 18 3 0
BITMAP
6000
F000
F000
E000
0000
0000
0000
0000
0000
0300
0780
0780
0300
0000
E380
F780
E780
E300
ENDCHAR
STARTCHAR 28E2
ENCODING 10466
SWIDTH 562 0
DWIDTH 15 0
BBX 9 13 3 0
BITMAP
6000
F000
F000
E000
0000
0780
0780
0780
0000
E300
F780
E780
E300
ENDCHAR
STARTCHAR 28E3
ENCODING 10467
SWIDTH 562 0
DWIDTH 15 0
BBX 9 18 3 0
BITMAP
6000
F000
F000
E000
0000
E000
F000
E000
4000
0100
0780
0780
0780
0000
E300
F780
E780
E300
ENDCHAR
STARTCHAR 28E4
ENCODING 10468
SWIDTH 562 0
DWIDTH 15 0
BBX 9 9 3 0
BITMAP
6300
F780
E780
E300
0000
E300
F780
E780
E300
ENDCHAR
STARTCHAR 28E5
ENCODING 10469
SWIDTH 562 0
DWIDTH 15 0
BBX 9 18 3 0
BITMAP
6000
F000
F000
E000
0000
0000
0000
0000
0000
6300
F780
E780
E300
0000
E380
F780
E780
E300
ENDCHAR
STARTCHAR 28E6
ENCODING 10470
SWIDTH 562 0
DWIDTH 15 0
BBX 9 13 3 0
BITMAP
6000
F000
F000
E000
0000
E780
F780
E780
0000
E300
F780
E780
E300
ENDCHAR
STARTCHAR 28E7
ENCODING 10471
SWIDTH 562 0
DWIDTH 15 0
BBX 9 18 3 0
BITMAP
6000
F000
F000
E000
0000
E000
F000
E000
4000
6100
E780
F780
E780
0000
E300
F780
E780
E300
ENDCHAR
STARTCHAR 28E8
ENCODING 10472
SWIDTH 562 0
DWIDTH 15 0
BBX 9 18 3 0
BITMAP
0380
0780
0780
0300
0000
0000
0000
0000
0000
0300
0780
0780
0300
0000
E300
E780
E780
E300
ENDCHAR
STARTCHAR 28E9
ENCODING 10473
SWIDTH 562 0
DWIDTH 15 0
BBX 9 18 3 0
BITMAP
E380
F780
E780
E300
0000
0000
0000
0000
0000
0300
0780
0780
0300
0000
E300
E780
E780
E300
ENDCHAR
STARTCHAR 28EA
ENCODING 10474
SWIDTH 562 0
DWIDTH 15 0
BBX 9 18 3 0
BITMAP
0380
0780
0780
0300
0000
E000
F000
E000
4000
0100
0780
0780
0700
0000
E300
E780
E780
E300
ENDCHAR
STARTCHAR 28EB
ENCODING 10475
SWIDTH 562 0
DWIDTH 15 0
BBX 9 18 3 0
BITMAP
E380
F780
E780
E300
0000
E000
F000
E000
4000
0100
0780
0780
0700
0000
E300
E780
E780
E300
ENDCHAR
STARTCHAR 28EC
ENCODING 10476
SWIDTH 562 0
DWIDTH 15 0
BBX 9 18 3 0
BITMAP
0380
0780
0780
0300
0000
0000
0000
0000
0000
E300
E780
E780
E300
0000
E300
E780
E780
E300
ENDCHAR
STARTCHAR 28ED
ENCODING 10477
SWIDTH 562 0
DWIDTH 15 0
BBX 9 18 3 0
BITMAP
E380
F780
E780
E300
0000
0000
0000
0000
0000
E300
E780
E780
E300
0000
E300
E780
E780
E300
ENDCHAR
STARTCHAR 28EE
ENCODING 10478
SWIDTH 562 0
DWIDTH 15 0
BBX 9 18 3 0
BITMAP
0380
0780
0780
0300
0000
E000
F000
E000
4000
4100
E780
E780
E700
0000
E300
E780
E780
E300
ENDCHAR
STARTCHAR 28EF
ENCODING 10479
SWIDTH 562 0
DWIDTH 15 0
BBX 9 18 3 0
BITMAP
E380
F780
E780
E300
0000
E000
F000
E000
4000
4100
E780
E780
E700
0000
E300
E780
E780
E300
ENDCHAR
STARTCHAR 28F0
ENCODING 10480
SWIDTH 562 0
DWIDTH 15 0
BBX 9 13 3 0
BITMAP
0300
0780
0780
0300
0000
0780
0780
0780
0000
E300
E780
E780
E300
ENDCHAR
STARTCHAR 28F1
ENCODING 10481
SWIDTH 562 0
DWIDTH 15 0
BBX 9 18 3 0
BITMAP
E000
F000
F000
E000
0000
0380
0780
0780
0200
0100
0780
0780
0700
0000
E300
E780
E780
E300
ENDCHAR
STARTCHAR 28F2
ENCODING 10482
SWIDTH 562 0
DWIDTH 15 0
BBX 9 13 3 0
BITMAP
E300
F780
F780
E300
0000
0780
0780
0780
0000
E300
E780
E780
E300
ENDCHAR
STARTCHAR 28F3
ENCODING 10483
SWIDTH 562 0
DWIDTH 15 0
BBX 9 18 3 0
BITMAP
E000
F000
F000
E000
0000
E380
F780
E780
4200
0100
0780
0780
0700
0000
E300
E780
E780
E300
ENDCHAR
STARTCHAR 28F4
ENCODING 10484
SWIDTH 562 0
DWIDTH 15 0
BBX 9 13 3 0
BITMAP
0300
0780
0780
0300
0000
E780
F780
E780
0000
E300
E780
E780
E300
ENDCHAR
STARTCHAR 28F5
ENCODING 10485
SWIDTH 562 0
DWIDTH 15 0
BBX 9 18 3 0
BITMAP
E000
F000
F000
E000
0000
0380
0780
0780
0200
4100
E780
E780
E700
0000
E300
E780
E780
E300
ENDCHAR
STARTCHAR 28F6
ENCODING 10486
SWIDTH 562 0
DWIDTH 15 0
BBX 9 13 3 0
BITMAP
E300
F780
F780
E300
0000
E780
F780
E780
0000
E300
E780
E780
E300
ENDCHAR
STARTCHAR 28F7
ENCODING 10487
SWIDTH 562 0
DWIDTH 15 0
BBX 9 18 3 0
BITMAP
E000
F000
F000
E000
0000
E380
F780
E780
4200
4100
E780
E780
E700
0000
E300
E780
E780
E300
ENDCHAR
STARTCHAR 28F8
ENCODING 10488
SWIDTH 562 0
DWIDTH 15 0
BBX 9 18 3 0
BITMAP
0380
0780
0780
0300
0000
0380
0780
0780
0200
0100
0780
0780
0700
0000
E300
E780
E780
E300
ENDCHAR
STARTCHAR 28F9
ENCODING 10489
SWIDTH 562 0
DWIDTH 15 0
BBX 9 18 3 0
BITMAP
E380
F780
E780
E300
0000
0380
0780
0780
0200
0100
0780
0780
0700
0000
E300
E780
E780
E300
ENDCHAR
STARTCHAR 28FA
ENCODING 10490
SWIDTH 562 0
DWIDTH 15 0
BBX 9 18 3 0
BITMAP
0380
0780
0780
0300
0000
E380
F780
E780
4200
0100
0780
0780
0700
0000
E300
E780
E780
E300
ENDCHAR
STARTCHAR 28FB
ENCODING 10491
SWIDTH 562 0
DWIDTH 15 0
BBX 9 18 3 0
BITMAP
E380
F780
E780
E300
0000
E380
F780
E780
4200
0100
0780
0780
0700
0000
E300
E780
E780
E300
ENDCHAR
STARTCHAR 28FC
ENCODING 10492
SWIDTH 562 0
DWIDTH 15 0
BBX 9 18 3 0
BITMAP
0380
0780
0780
0300
0000
0380
0780
0780
0200
4100
E780
E780
E700
0000
E300
E780
E780
E300
ENDCHAR
STARTCHAR 28FD
ENCODING 10493
SWIDTH 562 0
DWIDTH 15 0
BBX 9 18 3 0
BITMAP
E380
F780
E780
E300
0000
0380
0780
0780
0200
4100
E780
E780
E700
0000
E300
E780
E780
E300
ENDCHAR
STARTCHAR 28FE
ENCODING 10494
SWIDTH 562 0
DWIDTH 15 0
BBX 9 18 3 0
BITMAP
0380
0780
0780
0300
0000
E380
F780
E780
4200
4100
E780
E780
E700
0000
E300
E780
E780
E300
ENDCHAR
STARTCHAR 28FF
ENCODING 10495
SWIDTH 562 0
DWIDTH 15 0
BBX 9 18 3 0
BITMAP
E380
F780
E780
E300
0000
E380
F780
E780
4200
4100
E780
E780
E700
0000
E300
E780
E780
E300
ENDCHAR
STARTCHAR 2B58
ENCODING 11096
SWIDTH 562 0
DWIDTH 15 0
BBX 24 24 0 -5
BITMAP
001800
01FF80
07FFE0
0FFFF0
1FFFF8
3F00FC
3E007C
7C003E
78001E
F8001E
F0000F
F0000F
F0000F
F0000F
F0001F
F8001E
78001E
7C003E
3E007C
3F81FC
1FFFF8
0FFFF0
03FFC0
00FF00
ENDCHAR
STARTCHAR A75B
ENCODING 42843
SWIDTH 562 0
DWIDTH 15 0
BBX 11 14 1 0
BITMAP
3E00
7F80
F3C0
C0E0
0060
0060
0060
01E0
3FC0
3F00
3E00
0F80
03C0
00C0
ENDCHAR
STARTCHAR E000
ENCODING 57344
SWIDTH 562 0
DWIDTH 15 0
BBX 20 18 0 -2
BITMAP
030300
030180
FFFDF0
FFFFF0
060180
063180
0630C0
77FEF0
7FCEF0
0E00C0
0C00C0
0C00C0
0C00C0
0C00C0
0C00C0
0C00C0
0C00E0
0C00E0
ENDCHAR
STARTCHAR E001
ENCODING 57345
SWIDTH 562 0
DWIDTH 15 0
BBX 20 21 0 -4
BITMAP
00C000
00C000
3FCF80
47DDC0
03D800
1FDF80
3FFFC0
7FF9E0
FFF8F0
FFFC70
FFFE70
FFFE70
FFFE70
FFFF70
FFFFE0
7FFFE0
7FFFC0
3FFFC0
1FFF80
07FE00
00F800
ENDCHAR
STARTCHAR E002
ENCODING 57346
SWIDTH 562 0
DWIDTH 15 0
BBX 20 21 0 -4
BITMAP
00C000
00C000
3FCF80
47DDC0
03D800
1FDF00
3FFFC0
70F0E0
600060
C00030
C00030
C00030
C00030
C00070
E00060
6000E0
7000E0
3803C0
1E0F80
0FFE00
01F800
ENDCHAR
STARTCHAR E003
ENCODING 57347
SWIDTH 562 0
DWIDTH 15 0
BBX 20 21 0 -4
BITMAP
00C000
00C000
3FCF80
47DDC0
03D800
1FDF80
3FFFC0
7FFFE0
FDFFE0
FCFFF0
FC3FF0
FF1FF0
FF9FF0
FF9FF0
FF9FE0
7F9FE0
7F9FE0
3F9FC0
1FFF80
0FFF00
01F800
ENDCHAR
STARTCHAR E004
ENCODING 57348
SWIDTH 562 0
DWIDTH 15 0
BBX 20 21 0 -4
BITMAP
00C000
00C000
3FCF80
67DDC0
03DC00
1FFF00
3FF9C0
70E0E0
600060
C00030
C00030
C00030
C00030
FFFFF0
FFFFE0
7FFFE0
7FFFE0
3FFFC0
1FFF80
0FFF00
01F800
ENDCHAR
STARTCHAR E005
ENCODING 57349
SWIDTH 562 0
DWIDTH 15 0
BBX 21 20 0 -3
BITMAP
008000
02C000
02C000
036000
034000
010000
030000
000000
FFFE00
FFFEE0
FFFFF0
FFFFB8
FFFF18
FFFFB8
FFFFF0
FFFCE0
7FFC00
7FF800
3FF000
0FE000
ENDCHAR
STARTCHAR E006
ENCODING 57350
SWIDTH 562 0
DWIDTH 15 0
BBX 20 21 0 -4
BITMAP
07C000
0FFFC0
1FFFE0
00FF10
07FF80
0FFFC0
1FFFE0
386EE0
20E760
00E720
00E300
01E100
01C100
01C000
01C000
0FD800
3FDE00
7FDF00
FFFF80
3FFE00
0FF000
ENDCHAR
STARTCHAR E007
ENCODING 57351
SWIDTH 562 0
DWIDTH 15 0
BBX 19 21 0 -4
BITMAP
1C0000
3F0000
7F0000
FF8000
FF8000
CCC000
CCE000
CFF000
DFFC00
FFFFE0
7FFFE0
7FFFC0
7FFF00
3FFF00
3FFF80
1FFF00
0FF800
07F000
03F000
01F000
006000
ENDCHAR
STARTCHAR E008
ENCODING 57352
SWIDTH 562 0
DWIDTH 15 0
BBX 20 21 0 -4
BITMAP
00C000
00E000
3F6FC0
67EEE0
03EC00
0FEF80
3FEFC0
7FEFE0
7FEFF0
FC2FF0
F90FF0
F9FFF0
FBFFF0
F9FFF0
F99FE0
7C0FE0
7FEFC0
3FEFC0
1FEF80
0FEE00
03E800
ENDCHAR
STARTCHAR E009
ENCODING 57353
SWIDTH 562 0
DWIDTH 15 0
BBX 6 20 4 -3
BITMAP
FC
FC
7C
7C
7C
7C
7C
7C
7C
7C
7C
7C
38
00
00
30
78
7C
7C
38
ENDCHAR
STARTCHAR E00A
ENCODING 57354
SWIDTH 562 0
DWIDTH 15 0
BBX 11 20 2 -3
BITMAP
7E00
7E00
7E00
7C00
7C00
7C20
FDE0
FFC0
FFC0
FF80
EF80
8F00
0E00
0E00
0C00
1C00
1800
1800
1000
1000
ENDCHAR
STARTCHAR E0A0
ENCODING 57504
SWIDTH 562 0
DWIDTH 15 0
BBX 12 30 1 -8
BITMAP
F000
F000
F000
F000
F080
F1C0
F3E0
F7F0
F0C0
F0C0
F0C0
F0C0
F0C0
F0C0
F1C0
E1C0
8380
0780
1F00
3E00
7800
7000
F000
F000
F000
F000
F000
F000
F000
F000
ENDCHAR
STARTCHAR E0A1
ENCODING 57505
SWIDTH 562 0
DWIDTH 15 0
BBX 9 25 3 -6
BITMAP
C000
C000
C000
C000
C000
C000
C000
C000
C000
C000
FE00
FE00
0000
3180
3180
3980
3980
2D80
2D80
2D80
3780
3780
3380
3380
3380
ENDCHAR
STARTCHAR E0A2
ENCODING 57506
SWIDTH 562 0
DWIDTH 15 0
BBX 11 21 2 -4
BITMAP
1E00
3F00
3180
2180
2180
2180
2180
2180
FFC0
FFE0
FFE0
F1E0
F1E0
FBE0
FBE0
FBE0
FBE0
FBE0
FFE0
FFE0
7FC0
ENDCHAR
STARTCHAR E0A3
ENCODING 57507
SWIDTH 562 0
DWIDTH 15 0
BBX 11 27 2 -7
BITMAP
FF00
FF00
C000
C000
C000
C000
C000
C000
C000
C000
C000
FF00
FF00
0000
38E0
38E0
3CE0
3CE0
3EE0
36E0
37E0
33E0
33E0
31E0
31E0
30E0
30E0
ENDCHAR
STARTCHAR E0B0
ENCODING 57520
SWIDTH 562 0
DWIDTH 15 0
BBX 15 31 0 -9
BITMAP
8000
C000
E000
F000
F800
FC00
FE00
FE00
FF00
FF80
FFC0
FFE0
FFF0
FFF8
FFFC
FFFE
FFFC
FFF8
FFF0
FFE0
FFC0
FF80
FF00
FE00
FC00
F800
F000
E000
C000
C000
8000
ENDCHAR
STARTCHAR E0B1
ENCODING 57521
SWIDTH 562 0
DWIDTH 15 0
BBX 15 31 0 -8
BITMAP
C000
6000
7000
3800
1C00
0C00
0600
0300
0380
01C0
00E0
0060
0030
0018
000C
000E
001C
0038
0030
0060
00C0
01C0
0380
0700
0600
0C00
1800
3000
7000
E000
C000
ENDCHAR
STARTCHAR E0B2
ENCODING 57522
SWIDTH 562 0
DWIDTH 15 0
BBX 15 31 0 -9
BITMAP
0002
0006
000E
001E
003E
007E
00FE
01FE
03FE
07FE
0FFE
0FFE
1FFE
3FFE
7FFE
FFFE
7FFE
3FFE
1FFE
0FFE
07FE
03FE
01FE
00FE
00FE
007E
003E
001E
000E
0006
0002
ENDCHAR
STARTCHAR E0B3
ENCODING 57523
SWIDTH 562 0
DWIDTH 15 0
BBX 14 32 0 -9
BITMAP
0004
000C
000C
0018
0030
0060
00E0
01C0
0180
0300
0600
0C00
1C00
3800
3000
6000
E000
6000
3000
1800
1C00
0E00
0700
0300
0180
00C0
0060
0070
0038
0018
000C
0004
ENDCHAR
STARTCHAR E0B4
ENCODING 57524
SWIDTH 562 0
DWIDTH 15 0
BBX 15 33 0 -10
BITMAP
E000
F800
FE00
FF80
FFC0
FFE0
FFF0
FFF0
FFF8
FFF8
FFFC
FFFC
FFFC
FFFC
FFFE
FFFE
FFFE
FFFE
FFFE
FFFC
FFFC
FFFC
FFFC
FFF8
FFF8
FFF0
FFE0
FFE0
FFC0
FF00
FE00
F800
8000
ENDCHAR
STARTCHAR E0B5
ENCODING 57525
SWIDTH 562 0
DWIDTH 15 0
BBX 15 32 0 -9
BITMAP
E000
3800
0E00
0700
0380
01C0
00E0
0070
0038
0038
0018
001C
001C
001C
000E
000E
000E
000E
000E
001C
001C
001C
0038
0038
0070
0070
00E0
01C0
0380
0700
0E00
7800
ENDCHAR
STARTCHAR E0B6
ENCODING 57526
SWIDTH 562 0
DWIDTH 15 0
BBX 15 33 0 -10
BITMAP
000E
007E
01FE
03FE
07FE
0FFE
1FFE
3FFE
3FFE
7FFE
7FFE
7FFE
FFFE
FFFE
FFFE
FFFE
FFFE
FFFE
FFFE
FFFE
FFFE
7FFE
7FFE
7FFE
3FFE
3FFE
1FFE
0FFE
07FE
03FE
00FE
003E
0002
ENDCHAR
STARTCHAR E0B7
ENCODING 57527
SWIDTH 562 0
DWIDTH 15 0
BBX 14 32 0 -9
BITMAP
001C
0070
00E0
0380
0700
0E00
1C00
1C00
3800
3800
7000
7000
E000
E000
E000
E000
E000
E000
E000
E000
7000
7000
7000
3800
3800
1C00
0E00
0E00
0700
01C0
00E0
003C
ENDCHAR
STARTCHAR E0B8
ENCODING 57528
SWIDTH 562 0
DWIDTH 15 0
BBX 15 32 0 -9
BITMAP
8000
8000
8000
C000
C000
E000
E000
F000
F000
F000
F800
F800
FC00
FC00
FE00
FE00
FF00
FF00
FF80
FF80
FFC0
FFC0
FFE0
FFE0
FFE0
FFF0
FFF0
FFF8
FFF8
FFFC
FFFC
FFFE
ENDCHAR
STARTCHAR E0B9
ENCODING 57529
SWIDTH 562 0
DWIDTH 15 0
BBX 14 32 0 -9
BITMAP
8000
8000
4000
4000
4000
2000
2000
1000
1000
0800
0800
0400
0400
0400
0200
0200
0100
0100
0080
0080
0080
0040
0040
0020
0020
0010
0010
0008
0008
0008
0004
0004
ENDCHAR
STARTCHAR E0BA
ENCODING 57530
SWIDTH 562 0
DWIDTH 15 0
BBX 15 32 0 -9
BITMAP
0002
0002
0006
0006
000E
000E
000E
001E
001E
003E
003E
007E
007E
00FE
00FE
01FE
01FE
03FE
03FE
03FE
07FE
07FE
0FFE
0FFE
1FFE
1FFE
3FFE
3FFE
7FFE
7FFE
FFFE
FFFE
ENDCHAR
STARTCHAR E0BB
ENCODING 57531
SWIDTH 562 0
DWIDTH 15 0
BBX 15 32 0 -9
BITMAP
0002
0004
0004
0008
0008
0010
0010
0010
0020
0020
0040
0040
0080
0080
0100
0100
0100
0200
0200
0400
0400
0800
0800
0800
1000
1000
2000
2000
4000
4000
8000
8000
ENDCHAR
STARTCHAR E0BC
ENCODING 57532
SWIDTH 562 0
DWIDTH 15 0
BBX 15 32 0 -10
BITMAP
FFFE
FFFC
FFFC
FFF8
FFF8
FFF0
FFF0
FFE0
FFE0
FFC0
FFC0
FF80
FF80
FF80
FF00
FF00
FE00
FE00
FC00
FC00
F800
F800
F000
F000
E000
E000
C000
C000
C000
8000
8000
8000
ENDCHAR
STARTCHAR E0BD
ENCODING 57533
SWIDTH 562 0
DWIDTH 15 0
BBX 15 32 0 -9
BITMAP
0002
0004
0004
0008
0008
0010
0010
0010
0020
0020
0040
0040
0080
0080
0100
0100
0100
0200
0200
0400
0400
0800
0800
0800
1000
1000
2000
2000
4000
4000
8000
8000
ENDCHAR
STARTCHAR E0BE
ENCODING 57534
SWIDTH 562 0
DWIDTH 15 0
BBX 15 32 0 -10
BITMAP
FFFE
7FFE
7FFE
3FFE
3FFE
3FFE
1FFE
1FFE
0FFE
0FFE
07FE
07FE
03FE
03FE
01FE
01FE
00FE
00FE
00FE
007E
007E
003E
003E
001E
001E
000E
000E
0006
0006
0002
0002
0002
ENDCHAR
STARTCHAR E0BF
ENCODING 57535
SWIDTH 562 0
DWIDTH 15 0
BBX 14 32 0 -9
BITMAP
8000
8000
4000
4000
4000
2000
2000
1000
1000
0800
0800
0400
0400
0400
0200
0200
0100
0100
0080
0080
0080
0040
0040
0020
0020
0010
0010
0008
0008
0008
0004
0004
ENDCHAR
STARTCHAR E0C0
ENCODING 57536
SWIDTH 562 0
DWIDTH 15 0
BBX 28 33 0 -10
BITMAP
06000000
8C000000
F8000000
F8F40000
E1F80000
E3E00000
FFC03800
FFC0FE00
FFE3FF80
FFFFFFF0
FFFFF000
FFFFC000
FFFF8000
FFFF8000
FFFFF000
FFFFC000
FFFC0000
FFF80000
FFFE0000
FFFF0000
FFFFCE00
FFE3F800
FFC04000
FFE00000
F9F00000
F07C0000
F0000000
F8000000
FE000000
FF000000
E0000000
C0000000
80000000
ENDCHAR
STARTCHAR E0C1
ENCODING 57537
SWIDTH 562 0
DWIDTH 15 0
BBX 29 33 0 -10
BITMAP
01000000
C7000000
7A000000
247A0000
099E0000
12180000
1C207C00
0020FF00
003303C0
003C02F8
00001FF0
00002080
0000C000
0000C000
0000F800
0001F000
00030000
00060000
00038000
0001C600
000EFE00
00179800
0031E000
03B80000
05FE0000
087C0000
0E000000
0FC00000
07800000
1E000000
20000000
C0000000
80000000
ENDCHAR
STARTCHAR E0C2
ENCODING 57538
SWIDTH 562 0
DWIDTH 15 0
BBX 28 32 1 -10
BITMAP
00000600
00000310
000001F0
0002F0F0
0001F870
00007E70
01C03FF0
07F03FF0
1FFC3FF0
FFFFFFF0
007FFFF0
003FFFF0
001FFFF0
000FFFF0
00FFFFF0
003FFFF0
0003FFF0
0001FFF0
0007FFF0
000FFFF0
033FFFF0
00FC7FF0
00203FF0
00007FF0
000079F0
0003E0F0
00000070
00000170
000007F0
00000FF0
00000070
00000030
ENDCHAR
STARTCHAR E0C3
ENCODING 57539
SWIDTH 562 0
DWIDTH 15 0
BBX 29 32 0 -10
BITMAP
00000600
00000718
000002F8
0002F930
0001C480
0000C240
01F021C0
07D82000
0E062000
FB01E000
7FC00000
00200000
00180000
001C0000
00780000
003C0000
00060000
00030000
00070000
031C0000
01FB8000
00EF6000
003C3000
00006700
0003FE80
0000F080
000003C0
00000FC0
00000F80
000003C0
00000020
00000018
ENDCHAR
STARTCHAR E0C4
ENCODING 57540
SWIDTH 562 0
DWIDTH 15 0
BBX 27 31 0 -8
BITMAP
EEDDB060
EEE5B0A0
001C0060
EEDC30A0
EEDC30A0
EEC030A0
00038040
EEDE8000
EEDE8000
EEC10000
EEC38000
EEC28000
00013800
EEDDC800
EED5C800
001C3000
EEDD8000
EEDD8000
00038000
EE028F00
EE038900
00000600
EEFC7800
EEE44800
00183000
EEC00000
EEC00000
00000000
EE3C0000
EE240000
EE3C0000
ENDCHAR
STARTCHAR E0C5
ENCODING 57541
SWIDTH 562 0
DWIDTH 15 0
BBX 27 31 2 -9
BITMAP
E1BF76E0
A1BD76E0
40020000
E18376E0
A18376E0
A18376E0
40380000
002B76E0
002B76E0
003876E0
002876E0
003876E0
03BF76E0
02BD76E0
02BD76E0
01020000
003B76E0
003B76E0
00000000
1C3806E0
142806E0
08100000
038776E0
028576E0
01020000
000076E0
000076E0
00000000
000706E0
000506E0
000706E0
ENDCHAR
STARTCHAR E0C6
ENCODING 57542
SWIDTH 562 0
DWIDTH 15 0
BBX 25 30 0 -8
BITMAP
F3BDF000
F3A51000
F3A51000
0018F000
00000000
F39DF000
F39D1000
F39D1000
0000E000
F3BC0F80
F3A40880
F3A40880
F3A40F80
00180000
F01C0000
F01C0000
F01C0000
0000F000
F3811000
F3811000
F380F000
003C0000
F3A20000
F3A20000
F3A20000
001C0000
F3800F80
F3800880
F3800880
00000F80
ENDCHAR
STARTCHAR E0C7
ENCODING 57543
SWIDTH 562 0
DWIDTH 15 0
BBX 24 31 5 -9
BITMAP
0FFDEF
08C5EF
08C5EF
073800
070000
093DEF
093DEF
093DEF
070000
F03C00
9045EF
9045EF
9045EF
603800
003C0F
003C0F
003C0F
000000
0F81EF
0881EF
0881EF
0F81EF
003C00
0045EF
0045EF
0045EF
003800
F001EF
9001EF
9001EF
F001EF
ENDCHAR
STARTCHAR E0C8
ENCODING 57544
SWIDTH 562 0
DWIDTH 15 0
BBX 29 33 0 -10
BITMAP
80000000
FF000000
FFC00000
F8000000
FFFE0000
FFFFF000
FFFC0000
F0000000
FF800000
FFFC0000
FFFF0000
FE000000
F8000000
FC000000
FF000000
FFE00000
FFF80000
FFE40000
FC000000
FFFFE000
FFFFFFF8
FFFFF700
FFC00800
FC000000
FF000000
FFF80000
FC000000
FFEE0000
FFFC0000
FE000000
E0000000
FF000000
FE000000
ENDCHAR
STARTCHAR E0CA
ENCODING 57546
SWIDTH 562 0
DWIDTH 15 0
BBX 29 33 0 -10
BITMAP
000001F8
00001FF8
00000038
0001FFF8
007FFFF8
0001FFF8
000000F8
000003F8
0001FFF8
0007FFF8
000007F8
000000F8
000000F8
000001F8
00001FF8
00007FF8
0000BFF8
000001F8
001FFFF8
FFFFFFF8
006FFFF8
00100FF8
000001F8
000001F8
0001FFF8
000085F8
00000FF8
0007FFF8
00021DF8
00000238
000001F8
000006F8
00000100
ENDCHAR
STARTCHAR E0CC
ENCODING 57548
SWIDTH 562 0
DWIDTH 15 0
BBX 27 32 0 -9
BITMAP
FF000000
FF000000
FF800000
FF800000
FFC00000
FFE00000
FFE00000
FFC00000
FFC00000
FF800000
FF81FF00
FF01FF80
FE03FF80
0003FFC0
0007FFC0
000FFFE0
000FFFE0
0007FFC0
0007FFC0
FF03FF80
FF01FF80
FF81FF00
FF80FE00
FFC00000
FFC00000
FFE00000
FFC00000
FFC00000
FF800000
FF800000
FF000000
FF000000
ENDCHAR
STARTCHAR E0CD
ENCODING 57549
SWIDTH 562 0
DWIDTH 15 0
BBX 28 32 0 -9
BITMAP
FF000000
80800000
80800000
80400000
80200000
80200000
80100000
80200000
80200000
8040FF00
80410100
80810080
80820080
FF040040
00040020
00080020
00080010
00080020
00040040
FF020040
80820080
80810080
8040FF00
80200000
80200000
80100000
80200000
80200000
80400000
80800000
80800000
FF000000
ENDCHAR
STARTCHAR E0CE
ENCODING 57550
SWIDTH 562 0
DWIDTH 15 0
BBX 29 28 0 -7
BITMAP
01FFE000
01FFC400
03FFCC00
07FF8E00
07FF9980
0FFF1980
0FFE33C0
1FFE33C0
1FFC73C0
3FFCF9C0
3FF8F9A0
7FF19F98
FFF19F38
00039F38
00039F38
00039F38
FFF19F38
7FF99C98
3FF8F9E0
3FFC79C0
1FFC73C0
1FFE33C0
0FFF39C0
0FFF1980
07FF9980
03FFCE00
03FFC400
01FFE400
ENDCHAR
STARTCHAR E0CF
ENCODING 57551
SWIDTH 562 0
DWIDTH 15 0
BBX 29 31 0 -9
BITMAP
000F8000
001FE000
001FC000
00621800
0FE03F80
0FF8FFC0
0FFFDF80
301FC030
701FC078
3FFFFFE0
0FFFDF80
83E01F08
E0E03C38
F07DF078
FC1FC1F8
FF0783F8
FF800FF8
FFE03FF8
FFF87FF8
FFF8FFF8
FFF8FFF8
FFF8FFF8
FFF8FFF8
FFF8FFF8
3FF8FFE0
0FF8FFC0
03F8FF00
01F8FC00
0078F000
0018E000
00008000
ENDCHAR
STARTCHAR E0D0
ENCODING 57552
SWIDTH 562 0
DWIDTH 15 0
BBX 23 24 0 -5
BITMAP
1E01E0
610210
808408
80C80C
80C804
80C806
80C40C
41440C
228214
1D01E8
060070
000000
000000
000000
1E01E0
610210
C08408
80C80C
80C804
80C806
80C40C
41440C
228214
1F01F8
ENDCHAR
STARTCHAR E0D1
ENCODING 57553
SWIDTH 562 0
DWIDTH 15 0
BBX 24 32 0 -10
BITMAP
FFFFC0
FFFFC0
FFFFC0
FFFFFF
FFFFC1
FFFFC1
FFFFFF
FFFFFF
FFFFFF
FFFFFF
FFFFFF
FFFFFF
FFFFFE
FFFFC0
FFFFC0
FFFFC0
FFFFC0
FFFFC0
FFFFFF
FFFFC1
FFFFC1
FFFFFF
FFFFFF
FFFFFF
FFFFFF
FFFFFF
FFFFFF
FFFFC0
FFFFC0
FFFFC0
FFFFC0
FFFFC0
ENDCHAR
STARTCHAR E0D2
ENCODING 57554
SWIDTH 562 0
DWIDTH 15 0
BBX 15 33 0 -10
BITMAP
FFFC
FFF8
FFF8
FFF0
FFE0
FFE0
FFC0
FF80
FF80
FF00
FE00
FE00
FC00
F800
F800
0000
0000
0000
F800
FC00
FC00
FE00
FF00
FF00
FF80
FFC0
FFC0
FFE0
FFF0
FFF8
FFF8
FFFC
FFFE
ENDCHAR
STARTCHAR E0D4
ENCODING 57556
SWIDTH 562 0
DWIDTH 15 0
BBX 15 33 0 -10
BITMAP
7FFE
7FFE
3FFE
1FFE
1FFE
0FFE
07FE
07FE
03FE
01FE
01FE
00FE
007E
007E
003E
0000
0000
0000
003E
007E
00FE
00FE
01FE
03FE
03FE
07FE
0FFE
0FFE
1FFE
3FFE
7FFE
7FFE
FFFE
ENDCHAR
STARTCHAR E200
ENCODING 57856
SWIDTH 562 0
DWIDTH 15 0
BBX 16 25 0 -6
BITMAP
001C
003E
007F
00FE
01FC
03F8
07F0
0FE0
1FC0
3F80
7F00
FE00
FE00
FF00
7F80
3FC0
1FE0
0FF0
07F8
03FC
01FE
00FE
007F
003E
001C
ENDCHAR
STARTCHAR E201
ENCODING 57857
SWIDTH 562 0
DWIDTH 15 0
BBX 25 21 0 -4
BITMAP
00080000
003F0000
007FC000
00FFC000
01FFE000
01FFFC00
01FFFF00
07FFFF80
0FFFFF80
0FFFFF80
7FFFFF80
FFFFFF80
FFFFFF80
FFFFFF00
7FFFFC00
00008000
00400000
00000000
00000000
00200000
08000000
ENDCHAR
STARTCHAR E202
ENCODING 57858
SWIDTH 562 0
DWIDTH 15 0
BBX 8 25 3 -6
BITMAP
1C
3C
1C
1C
3C
3E
7E
7F
7F
FF
FF
FF
FF
FF
FF
FF
7F
7F
7F
7F
7F
7F
7F
7F
7E
ENDCHAR
STARTCHAR E203
ENCODING 57859
SWIDTH 562 0
DWIDTH 15 0
BBX 25 13 0 0
BITMAP
0FFFF800
1FFFFC00
1FFFFE00
1FFFFE00
1FFFFE00
EFFFFB80
F7FFFF80
F7FFF780
F1FFE780
F7FFF780
F7FFF780
F7FFF780
F7FFF780
ENDCHAR
STARTCHAR E204
ENCODING 57860
SWIDTH 562 0
DWIDTH 15 0
BBX 25 25 0 -6
BITMAP
00420000
00660000
00EE0000
01CC0000
01980000
01880000
00000000
00000000
00000000
FFFFFF80
FFFFFF80
FFFFFF80
7FFFFF80
7FFFFF00
7FFFFF00
3FFFFE00
1FFFFE00
0FFFFC00
07FFF800
03FFE000
00FF8000
00000000
00000000
FFFFFF80
FFFFFF80
ENDCHAR
STARTCHAR E205
ENCODING 57861
SWIDTH 562 0
DWIDTH 15 0
BBX 22 25 0 -6
BITMAP
F00000
FC0000
FC0000
7C0000
7C0000
3E0000
010000
010000
010000
010000
008000
006000
001800
000800
000400
000400
000400
000200
0001C0
000040
000020
000020
000020
000010
00000C
ENDCHAR
STARTCHAR E206
ENCODING 57862
SWIDTH 562 0
DWIDTH 15 0
BBX 26 25 0 -6
BITMAP
00FDC000
03F02000
07801800
0E000400
1C000200
38000300
70000100
60000180
60000180
C0000080
C0000080
C00000C0
C00000C0
C00000C0
C0000180
C0000180
40000180
40000300
20000700
20000600
10000E00
08003C00
0400F000
020FE000
01EF8000
ENDCHAR
STARTCHAR E207
ENCODING 57863
SWIDTH 562 0
DWIDTH 15 0
BBX 21 25 0 -6
BITMAP
003F80
00FFC0
31FFE0
39FFF0
39FFF0
3DFFF0
1FFFF0
0FFFF8
03FFF0
00FFF0
00FFF0
00FFF0
00FFF0
00FFE0
00FFE0
01FFC0
03FFC0
7FFF80
FFFF00
FFFC00
E0F000
E00000
F00000
700000
300000
ENDCHAR
STARTCHAR E208
ENCODING 57864
SWIDTH 562 0
DWIDTH 15 0
BBX 23 24 0 -6
BITMAP
007E00
00FF00
01FF80
01FF80
03FFF8
03FFFC
0FFFFE
1FFFFE
3FFFFE
FFFFFE
FFFFFE
FFFFFC
7FFFF8
000000
003800
007800
007C00
00F800
00F000
007000
006000
00C000
008000
010000
ENDCHAR
STARTCHAR E209
ENCODING 57865
SWIDTH 562 0
DWIDTH 15 0
BBX 25 26 0 -6
BITMAP
08000000
3C000000
7E000000
E7800000
C7F00000
C7FE0000
CFFF8000
FFFFF000
7FFFFC00
03FFFE00
007FFE00
003E3F80
003E3F80
003E3B80
003E6000
001FE000
001FC000
001B6000
003B6000
00333000
00733000
00631800
00E31800
00C30C00
01C30C00
00030000
ENDCHAR
STARTCHAR E20A
ENCODING 57866
SWIDTH 562 0
DWIDTH 15 0
BBX 9 25 3 -6
BITMAP
3C00
2200
2200
2200
2200
2200
2200
2200
2200
2A00
3A00
3A00
3A00
3A00
3A00
3A00
3A00
3A00
5900
BF00
BE80
BF00
BD00
4300
3E00
ENDCHAR
STARTCHAR E20B
ENCODING 57867
SWIDTH 562 0
DWIDTH 15 0
BBX 9 25 3 -6
BITMAP
3C00
2200
2200
2A00
3A00
3A00
3A00
3A00
3A00
3A00
3A00
3A00
3A00
3A00
3A00
3A00
3A00
3A00
5900
BF00
BE80
BF00
BD00
4300
3E00
ENDCHAR
STARTCHAR E20C
ENCODING 57868
SWIDTH 562 0
DWIDTH 15 0
BBX 9 25 3 -6
BITMAP
3C00
2200
2200
2200
2200
2200
2200
2200
2200
2200
2200
2200
2200
2200
2200
3A00
3A00
3A00
5900
BF00
BE80
BE80
BD00
4300
3E00
ENDCHAR
STARTCHAR E20D
ENCODING 57869
SWIDTH 562 0
DWIDTH 15 0
BBX 25 25 0 -6
BITMAP
E0000180
F0000380
78000780
3C000F00
1E001E00
0F003C00
07807800
03C0F000
01E1E000
00F3C000
007F8000
003F0000
001E0000
003F0000
007F8000
00F3C000
01E1E000
03C0F000
07807800
0F003C00
1E001E00
3C000F00
78000780
F0000380
E0000180
ENDCHAR
STARTCHAR E20E
ENCODING 57870
SWIDTH 562 0
DWIDTH 15 0
BBX 21 26 0 -6
BITMAP
00F800
07FE00
07FF00
0FFF00
0FFF80
0FFF80
0FFF80
0FFF80
0FFF80
0FFF80
000000
000000
FFFFF0
FFFFF8
FFFFF0
3FFFC0
1FFFC0
1FFF80
0FFF80
07FE00
01FC00
01FC00
03FC00
07FF00
07FF00
0FFF80
ENDCHAR
STARTCHAR E20F
ENCODING 57871
SWIDTH 562 0
DWIDTH 15 0
BBX 25 25 0 -6
BITMAP
07800180
07C00780
03E00F00
01E01F00
C0F01E00
E1F03C00
F3F07000
FFF8E000
7FFCC000
7FFE0000
1FFF0000
07FF8000
00FFC000
007FE000
033FF000
079FF800
0FCFFC00
1FE7FE00
3FE3FF00
7FC1FF80
FF80FF80
FF007F80
FE003F80
FC001F80
78000F00
ENDCHAR
STARTCHAR E210
ENCODING 57872
SWIDTH 562 0
DWIDTH 15 0
BBX 21 25 0 -5
BITMAP
0F0780
3FDFC0
3FFFE0
7FFFF0
7FFFF0
FFFFF8
FFFFF8
FFFFF8
FFFFF8
FFFFF8
FFFFF0
7FFFF0
7FFFE0
3FFFE0
3FFFE0
3F0FE0
3F07E0
3E03E0
3E03E0
3E03E0
3E03E0
1E03C0
1E03C0
0E0380
060300
ENDCHAR
STARTCHAR E211
ENCODING 57873
SWIDTH 562 0
DWIDTH 15 0
BBX 25 19 0 -2
BITMAP
3F0C7F00
63FFE380
C0C58080
C0E18180
FC639B80
7E73BD00
7E773D00
00370200
00360000
00140000
00140000
00120000
00120000
00120000
00120000
00120000
00120000
00140000
001C0000
ENDCHAR
STARTCHAR E212
ENCODING 57874
SWIDTH 562 0
DWIDTH 15 0
BBX 25 25 0 -6
BITMAP
FFFFFF80
FFFFFF80
FFFFFF80
FFFFFF80
FFFFFF80
FFFFFF80
FFFFFF80
C920C380
C9208180
E03C9B80
E0309F80
E0309F80
E26C9980
F260C380
F271E780
FFFFFF80
FFFFFF80
FFFFFF80
FFFFFF80
FFFFFF80
3FFFFF00
0FFFF800
01FFC000
003F0000
00080000
ENDCHAR
STARTCHAR E213
ENCODING 57875
SWIDTH 562 0
DWIDTH 15 0
BBX 13 25 1 -6
BITMAP
0E00
0F00
0E00
0600
0E00
1E00
3F00
7F80
FF80
DEE0
DE70
DE38
DE00
9E00
3E00
3F00
3F80
3B80
3980
39C0
71C0
71C0
E0C0
E0E0
C040
ENDCHAR
STARTCHAR E214
ENCODING 57876
SWIDTH 562 0
DWIDTH 15 0
BBX 25 25 0 -6
BITMAP
00080000
001C0000
001E0000
087F8C00
0FFFF800
0FFFF800
0FFFF800
0FFFF800
0FFFFC00
1FFFFC00
1FFFFE00
7FFFFF00
FFFFFF80
3FFFFF00
1FFFFC00
0FFFFC00
0FFFF800
0FFFF800
0FFFF800
0FFFF800
0FFFFC00
007F0000
001C0000
000C0000
00080000
ENDCHAR
STARTCHAR E215
ENCODING 57877
SWIDTH 562 0
DWIDTH 15 0
BBX 25 25 0 -6
BITMAP
007F0000
01FFE000
07FFF000
0FFFF800
1FFFFC00
3FFFFE00
7FFFFF00
7FFF1F00
7FF83F80
FFE13F80
FF023F80
F80C3F80
F8303F80
FF607F80
FF407F80
FFC07F80
7FC87F80
7F9C7F00
3FFEFF00
3FFFFE00
1FFFFC00
0FFFF800
03FFF000
01FFC000
000C0000
ENDCHAR
STARTCHAR E216
ENCODING 57878
SWIDTH 562 0
DWIDTH 15 0
BBX 16 25 0 -6
BITMAP
0006
000F
001F
001E
003E
003C
0078
0078
00F0
00F0
01E0
03E0
03C0
07C0
0780
0F00
0F00
1E00
1E00
3C00
7C00
7800
F800
F000
3000
ENDCHAR
STARTCHAR E217
ENCODING 57879
SWIDTH 562 0
DWIDTH 15 0
BBX 25 22 0 -4
BITMAP
00000080
00000780
00001F80
0000FF80
0003FF80
001FEF80
007FDF00
03FF3F00
0FFC7F00
7FF8FF00
FFE1FF00
7FC3FE00
0F07FE00
020FFE00
023FFE00
023FFE00
013FFC00
013FFC00
017BFC00
00F0FC00
00607C00
00003800
ENDCHAR
STARTCHAR E218
ENCODING 57880
SWIDTH 562 0
DWIDTH 15 0
BBX 25 21 0 -4
BITMAP
00C18000
0FE1F800
FFFFFF80
FFFFFF80
FFFFFF80
7FFFFF80
7FFFFF80
7FFFFF00
7FFFFF00
07FFF000
07FFF000
07FFF000
07FFF000
07FFF000
07FFF000
07FFF000
07FFF000
07FFF000
07FFF000
07FFF000
03FFF000
ENDCHAR
STARTCHAR E219
ENCODING 57881
SWIDTH 562 0
DWIDTH 15 0
BBX 26 15 0 -1
BITMAP
00700000
0DF80000
1FF80000
7FBFA000
78639800
67FDEE00
CFFEE300
DFDF7B00
3FCFBB80
7FF99380
7FFFDDC0
7FE7EDC0
FFEFEDC0
FFFFF3C0
00000100
ENDCHAR
STARTCHAR E21A
ENCODING 57882
SWIDTH 562 0
DWIDTH 15 0
BBX 25 25 0 -6
BITMAP
06000000
E7000000
F7800000
73800000
39C00000
1DC00000
0EE00000
07E00000
07F00000
03B00000
01D80000
00E80000
00740000
003E0000
001E0000
000DD000
00066A00
001BFE00
003DBF80
003AC480
007E7F00
007BBE00
01FFFE00
001F8000
00180000
ENDCHAR
STARTCHAR E21B
ENCODING 57883
SWIDTH 562 0
DWIDTH 15 0
BBX 25 25 0 -6
BITMAP
C0000000
E0000000
F0000000
F8000000
FC000000
FE000000
FF000000
1F800000
3FC00000
FFE00000
FFF00000
3FF80000
1BFC0000
F9FE0000
F8FF0000
F87F8000
183FC000
381FE000
F80FF000
F807F800
3FFFFC00
1FFFFE00
FFFFFF00
FFFFFF80
FFFFFF80
ENDCHAR
STARTCHAR E21C
ENCODING 57884
SWIDTH 562 0
DWIDTH 15 0
BBX 22 25 0 -6
BITMAP
01FE00
03FF00
07FF80
0FFFC0
1FFFE0
1FFFF8
1FFFFC
5FFFFC
5FFFFC
DFFFFC
DFFFFC
FFFFFC
EFFFFC
F7FFF8
7BFFF0
3CFC00
1F0000
00F800
00F800
00F800
00F800
00F800
00F800
00F800
00F800
ENDCHAR
STARTCHAR E21D
ENCODING 57885
SWIDTH 562 0
DWIDTH 15 0
BBX 25 21 0 -4
BITMAP
00200000
00700000
0EF30000
0FFF0000
0E030000
0C010000
7800E000
703FF000
707FE000
30FFC000
31FFE000
31FFFC00
71FFFF00
F7FFFF80
1FFFFF80
0FFFFF80
7FFFFF80
FFFFFF80
FFFFFF80
FFFFFF00
7FFFFC00
ENDCHAR
STARTCHAR E21E
ENCODING 57886
SWIDTH 562 0
DWIDTH 15 0
BBX 25 21 0 -4
BITMAP
07FFF000
0E1E3800
1A363C00
13333600
3361A200
61C0E300
FFFFFF80
FFFFFF80
60804300
30C0C600
18C08C00
0C419C00
06619800
03213000
01B36000
01F2C000
00F78000
007F0000
003E0000
001C0000
000C0000
ENDCHAR
STARTCHAR E21F
ENCODING 57887
SWIDTH 562 0
DWIDTH 15 0
BBX 25 25 0 -6
BITMAP
00003000
00003800
0000BC00
0001DE00
0000EF00
00067F80
0007FF80
0013FF00
0039FE00
001DFC00
00CFF800
00FFF000
027FE000
073FC000
03BF8000
19FF0000
1FFE0000
4FFC0000
E7F80000
F7F00000
7FE00000
3FC00000
1F800000
0F000000
06000000
ENDCHAR
STARTCHAR E220
ENCODING 57888
SWIDTH 562 0
DWIDTH 15 0
BBX 25 25 0 -6
BITMAP
00080000
001E0000
01FFC000
07FFF000
0FFFF800
1FFFFC00
3FFFFE00
3FFFFF00
7FFFFF00
7FFFFF80
C1CDE080
808CC080
008C8000
000C0000
000C0000
000C0000
000C0000
000C0000
000C0000
000C0000
0C0C0000
061C0000
07F80000
03F00000
00C00000
ENDCHAR
STARTCHAR E221
ENCODING 57889
SWIDTH 562 0
DWIDTH 15 0
BBX 13 25 1 -6
BITMAP
1FC0
3BE0
63F0
E3F0
C7F8
CFF8
CFF8
CFF8
CFF8
CFF8
EFF8
FFF8
E038
C018
C018
C018
C018
C018
C018
C018
C038
E030
78F0
3FE0
1F80
ENDCHAR
STARTCHAR E222
ENCODING 57890
SWIDTH 562 0
DWIDTH 15 0
BBX 18 25 0 -6
BITMAP
01E000
03E000
01E000
01F000
01F000
03F000
0FF800
1FF800
3CF800
787800
707C00
E07800
E00000
E00000
E00000
E00000
F00000
703FC0
780F80
3F3E00
1FFC00
07F800
1FFC00
3FFE00
3FFE00
ENDCHAR
STARTCHAR E223
ENCODING 57891
SWIDTH 562 0
DWIDTH 15 0
BBX 11 25 2 -6
BITMAP
0C00
0E00
0C00
0E00
1F00
3F80
3F80
0000
FFE0
FFE0
0000
7F80
7F80
7F80
0F80
0F80
7F80
0F80
0F80
7F80
7F80
7F80
7F80
7F80
7F80
ENDCHAR
STARTCHAR E224
ENCODING 57892
SWIDTH 562 0
DWIDTH 15 0
BBX 25 5 0 4
BITMAP
FFFFFF80
FFFFFF80
FFFFFF80
FFFFFF80
FFFFFF80
ENDCHAR
STARTCHAR E225
ENCODING 57893
SWIDTH 562 0
DWIDTH 15 0
BBX 26 23 0 -5
BITMAP
001E0000
003F0000
003F0000
003F0000
003F0000
001E0000
000C0000
000C0000
000C0000
003F0000
007F8000
00FF8000
00FFC000
00FFC000
00FFC000
00FFC000
03FFE200
7F3F7F80
FE001F80
FC001FC0
FC001FC0
FC000F80
78000700
ENDCHAR
STARTCHAR E226
ENCODING 57894
SWIDTH 562 0
DWIDTH 15 0
BBX 26 19 0 -3
BITMAP
07000000
1F000000
32000000
66000000
440C0000
C43F8000
847FC000
86FFC000
83FFE000
C3FFFC00
C1FFFF00
47FFFF80
6FFFFF80
3FFFFFC0
7FFFFFC0
FFFFFF80
FFFFFF80
FFFFFF00
7FFFFC00
ENDCHAR
STARTCHAR E227
ENCODING 57895
SWIDTH 562 0
DWIDTH 15 0
BBX 24 25 0 -6
BITMAP
01FF80
07FFE0
1FFFF8
3FFFFC
7FFFFE
7FFFFE
FFFFFF
FFFFFF
FFFFFF
FFFFFF
FFFFFF
7FFFFE
007E00
007E00
007E00
007E00
007E00
007E00
00FF00
01FF80
01FF80
03FFC0
01FF80
01FF80
007E00
ENDCHAR
STARTCHAR E228
ENCODING 57896
SWIDTH 562 0
DWIDTH 15 0
BBX 25 7 0 3
BITMAP
03E3E000
07F7F000
07FFF800
9FFFFC80
7FF7FF00
3FE3FE00
0F807800
ENDCHAR
STARTCHAR E229
ENCODING 57897
SWIDTH 562 0
DWIDTH 15 0
BBX 25 13 0 0
BITMAP
0001E000
00009000
00008800
00004400
00004400
00006200
FF001180
40000100
CC1CF800
CC311800
B62F1800
B5FEE700
01C00000
ENDCHAR
STARTCHAR E22A
ENCODING 57898
SWIDTH 562 0
DWIDTH 15 0
BBX 26 6 0 4
BITMAP
3FFFFF00
40000080
94101080
B75DBE40
8E5DB680
7FFFFF80
ENDCHAR
STARTCHAR E22B
ENCODING 57899
SWIDTH 562 0
DWIDTH 15 0
BBX 25 25 0 -6
BITMAP
00FF8000
03FFE000
07FFF800
0E1C3C00
1E1C3E00
3E1C3F00
7F3E7F00
7FFFFF80
73FFE780
E1FFC380
E1FFC380
E1FFE380
FFFFFF80
FFFFFF80
FFFFFF00
FFFFFF00
7FFFFE00
7FFFF800
3FFC0000
3FFC0000
1FFC0000
0FFC0000
07FE0000
01FE0000
007C0000
ENDCHAR
STARTCHAR E22C
ENCODING 57900
SWIDTH 562 0
DWIDTH 15 0
BBX 26 24 0 -6
BITMAP
03FFFF00
0FFFFF80
1FFFFFC0
3FFFFF80
7FFFFF80
F1E1E000
81E1E000
01E1C000
01E3C000
01E3C000
01E3C000
01E3C000
01E3C000
01E3C000
01E3C000
01E3C000
03E3C000
03E3C080
07E1E080
07E1E180
07E1FF80
07C1FF80
07C0FF00
03807E00
ENDCHAR
STARTCHAR E22D
ENCODING 57901
SWIDTH 562 0
DWIDTH 15 0
BBX 26 25 0 -6
BITMAP
03E00000
03F80000
01FE0000
019F8000
0107C000
0303E000
0218F000
02087800
06003C00
04001C00
0403DE00
0F03CE00
0F83C700
1F818700
1F000780
10040380
300E0380
300E1FC0
21E0F980
63E7C000
67FE0000
47F00000
CF800000
FC000000
E0000000
ENDCHAR
STARTCHAR E22E
ENCODING 57902
SWIDTH 562 0
DWIDTH 15 0
BBX 25 15 0 -1
BITMAP
003F0000
00FF8000
01FFF800
03FFE700
0FFFE380
37FFF380
67FFFF80
47FFBF00
F7F9FE00
FFFFFC00
7FFFF000
3FFFA000
03E3C000
00FF8000
003E0000
ENDCHAR
STARTCHAR E22F
ENCODING 57903
SWIDTH 562 0
DWIDTH 15 0
BBX 25 25 0 -6
BITMAP
FC000000
FF000000
FFC00000
FFE00000
7FF00180
7FF01F80
7FF07F80
3EF0FF80
3F70FF80
1F71F700
0F31EF00
0739FF00
0019DE00
001D9800
001F8000
000F0000
000E0000
000E0000
000E0000
000E0000
000E0000
00060000
00060000
00060000
00060000
ENDCHAR
STARTCHAR E230
ENCODING 57904
SWIDTH 562 0
DWIDTH 15 0
BBX 25 19 0 -3
BITMAP
00780000
007F0000
007FC000
007DE000
007DE000
007DF000
007DF000
007DF000
007DF000
007DE000
007DE000
03FC0000
1FFFFF00
7E7FC380
F07F0F80
FFFC7F00
1FFFF800
007FC000
000E0000
ENDCHAR
STARTCHAR E231
ENCODING 57905
SWIDTH 562 0
DWIDTH 15 0
BBX 23 25 0 -6
BITMAP
00FE00
03FF80
07FF80
07FFC0
0FFFE0
0FFFE0
0FFFE0
0C7C60
0C3860
0C7C60
07FFC0
07C7C0
07D7C0
67FFDC
71FF1C
F8FE3E
FE00FE
E7C7CE
01FF00
01FF00
E7C7CE
FE00FE
F8003E
70001C
70000C
ENDCHAR
STARTCHAR E232
ENCODING 57906
SWIDTH 562 0
DWIDTH 15 0
BBX 25 23 0 -5
BITMAP
007C0000
03FF0000
07FFC000
0FFFC000
1FFFF000
3FFFF800
3FFFF800
3FFFF800
3FFFF800
1FFFF000
0FFFE000
0FFFC380
07FF8380
687C6100
EF93C000
6FEFC000
07FFC600
07FFCE00
07FFC600
07FFC400
07FFC000
07FFC000
07FFC000
ENDCHAR
STARTCHAR E233
ENCODING 57907
SWIDTH 562 0
DWIDTH 15 0
BBX 10 25 2 -6
BITMAP
3F00
7F80
7FC0
FFC0
FFC0
FFC0
FFC0
FFC0
FFC0
FFC0
FFC0
FFC0
FFC0
FFC0
FFC0
0000
0000
0E00
0E00
0E00
0E00
0E00
0E00
0E00
0E00
ENDCHAR
STARTCHAR E234
ENCODING 57908
SWIDTH 562 0
DWIDTH 15 0
BBX 25 21 0 -4
BITMAP
000C0000
000C0000
001C0000
001C0000
001C4000
063C6000
06346000
0736F000
0F26F800
FF66DF80
FB66CF80
0366C000
01E6C000
01C38000
01C38000
00C38000
00C38000
00038000
00038000
00018000
00010000
ENDCHAR
STARTCHAR E235
ENCODING 57909
SWIDTH 562 0
DWIDTH 15 0
BBX 25 25 0 -6
BITMAP
00FF8000
01FFC000
033FE000
033FE000
03FFE000
0007E000
3FFFFE00
7FFFFF00
7FFFFF00
FFFFDF80
FFFFDF80
FFFFBF80
FE00FF80
FDFFFF80
FDFFFF80
FFFFFF80
7FFFFF00
7FFFFF00
03F80000
03FFE000
03FFE000
03FE6000
01FE4000
01FFC000
007F0000
ENDCHAR
STARTCHAR E236
ENCODING 57910
SWIDTH 562 0
DWIDTH 15 0
BBX 26 26 0 -6
BITMAP
00080000
00FFC000
03FFF000
07FFF800
0FFFFC00
1FFFFE00
3FC07F00
7F003F00
7E1F1F80
7E3F0F80
FC3F8F80
FC7F8FC0
FC7F8FC0
FC7F8FC0
FC7F8FC0
FC3F8FC0
FE310F80
7E181F80
7F043F80
3FC07F00
3FFE3F00
1FFF1E00
0FFFFC00
07FFF800
03FFE000
00FF8000
ENDCHAR
STARTCHAR E237
ENCODING 57911
SWIDTH 562 0
DWIDTH 15 0
BBX 25 25 0 -6
BITMAP
7FFFFF80
FFFFFF80
FFFFFF80
FFFFFF80
FFFFFF80
FFFFFF80
FF80FF80
FF087F80
FE3E3F80
FC3F1F80
FC7F1F80
FC7F1F80
FC7F1F80
FC7F1F80
FC7F1F80
FC331F80
FE303F80
FF087F80
FF80FF80
FFFC3F80
FFFE3F80
FFFFFF80
FFFFFF80
FFFFFF80
7FFFFF00
ENDCHAR
STARTCHAR E238
ENCODING 57912
SWIDTH 562 0
DWIDTH 15 0
BBX 25 23 0 -4
BITMAP
06003800
0F003C00
1F007E00
3F807E00
7F80FF00
7FC0FF00
7FC0FF80
FF9C7F80
FF3F7F80
FF7F3F80
FF7F3F80
007F0000
003F0000
001C0000
00000000
003F0000
007F0000
007F8000
00FF8000
01FFC000
01FFE000
03FFE000
00FF8000
ENDCHAR
STARTCHAR E239
ENCODING 57913
SWIDTH 562 0
DWIDTH 15 0
BBX 26 23 0 -5
BITMAP
001E0000
007F8000
00FFC000
00FFE000
01FFE000
01FFFE00
03FFFF00
0FFFFF80
0FFFFF80
0FFFFFC0
7FFFFF80
FFFFFF80
FFFFFF80
FFFFFF00
3FFFF800
00000000
00909000
04A4A000
05252000
09292000
094A4000
0A4A4000
00020000
ENDCHAR
STARTCHAR E23A
ENCODING 57914
SWIDTH 562 0
DWIDTH 15 0
BBX 17 25 0 -6
BITMAP
006000
1CE000
0CCE00
0CCC00
0CCC00
0EDC00
1EFC00
1FFF00
67FF00
F9FF00
FCFF00
FE7E80
FF7E80
FFBD80
FFB380
FFCF80
7FDF80
7FEF00
7FEF00
3FF200
1FFE00
0FFC00
07FC00
03F800
00F000
ENDCHAR
STARTCHAR E23B
ENCODING 57915
SWIDTH 562 0
DWIDTH 15 0
BBX 11 25 2 -6
BITMAP
FFE0
BFE0
BFE0
BFE0
BFE0
FFE0
FFE0
FFE0
FFE0
BFE0
BFE0
BFE0
BFE0
BFE0
BFE0
BFE0
BFE0
BFE0
BFE0
BFE0
BFE0
FFE0
FFE0
FFE0
7FC0
ENDCHAR
STARTCHAR E23C
ENCODING 57916
SWIDTH 562 0
DWIDTH 15 0
BBX 25 25 0 -6
BITMAP
0FFFFF80
0FFFFF80
0FFFFF80
FFFFF880
FFFFFC80
FFFFFC80
FFFFFC80
80000C80
80000C80
80000C80
80000C80
80000C80
80000C80
80000C80
80000C80
80000C80
80000C80
80000C80
80000C80
80000C80
80000F80
80000C00
80000C00
FFFFFC00
FFFFF800
ENDCHAR
STARTCHAR E23D
ENCODING 57917
SWIDTH 562 0
DWIDTH 15 0
BBX 22 25 0 -6
BITMAP
01FE00
03FF00
03FE00
01FE00
02FC00
0F7B80
1F73C0
3C00E0
380070
700030
600038
E00018
E00018
C0001C
C0001C
C00018
E00018
E00018
600038
700070
3800F0
1C01E0
0F87C0
07FF00
01FC00
ENDCHAR
STARTCHAR E23E
ENCODING 57918
SWIDTH 562 0
DWIDTH 15 0
BBX 25 20 0 -4
BITMAP
03E1F000
03C0F000
13CCF400
399E6600
393F2700
783F0780
FC7F8780
00000000
00000000
7E7FCF80
3E7F9F00
1E7F9E00
0F3F3C00
073F3800
039F3000
019E6000
009E4000
00CC8000
004C0000
000C0000
ENDCHAR
STARTCHAR E23F
ENCODING 57919
SWIDTH 562 0
DWIDTH 15 0
BBX 20 25 0 -5
BITMAP
03FC00
0E0700
39FDC0
678F40
1C6180
33FCC0
660760
4DF920
DB1D80
3626F0
34F2F0
6D9A50
DB0A50
324A50
66DAD0
CD9AD0
19B6B0
3366B0
E65EC0
0D9260
331B20
661980
0C0C00
1BE600
023000
ENDCHAR
STARTCHAR E240
ENCODING 57920
SWIDTH 562 0
DWIDTH 15 0
BBX 25 25 0 -6
BITMAP
FFFFF800
E03E3800
E03E3C00
E03E3E00
E03E3F00
E03E3F80
E03E3F80
E03E3F80
E0003F80
F0007F80
F800FF80
FFFFFF80
FFFFFF80
FFFFFF80
FFFFFF80
F0000780
E0000780
E0000780
E0000780
E0000780
E0000780
E0000780
E0000780
FFFFFF80
FFFFFF80
ENDCHAR
STARTCHAR E241
ENCODING 57921
SWIDTH 562 0
DWIDTH 15 0
BBX 23 25 0 -6
BITMAP
0000E0
0001F0
0001F8
0001FC
0E01FE
1F01FE
3F03FE
7F01FE
7F01FE
FF81FE
FF81FC
FF81FC
7F81F8
7F81F8
7F83F0
3F83F0
1F83F0
1FC3E0
0FC3E0
0FE3E0
07E3C0
07E000
03E000
03E000
01C000
ENDCHAR
STARTCHAR E242
ENCODING 57922
SWIDTH 562 0
DWIDTH 15 0
BBX 25 18 0 -2
BITMAP
08000000
18000C00
30180600
20180300
601C0100
401D0180
C03D8080
80778080
807F8080
80738080
80608080
C0608080
40210180
40100180
60000100
31FFF300
11FFF600
18000C00
ENDCHAR
STARTCHAR E243
ENCODING 57923
SWIDTH 562 0
DWIDTH 15 0
BBX 25 7 0 3
BITMAP
007FF000
3FFF9C00
E7FFEC80
8FFFE880
1DFFF300
0E3FFC00
01FF0000
ENDCHAR
STARTCHAR E244
ENCODING 57924
SWIDTH 562 0
DWIDTH 15 0
BBX 25 25 0 -6
BITMAP
0FFFFF80
1FFFFF80
18000180
FFFFFC80
FFFFFC80
C0000C80
C0000C80
C0000C80
C0000C80
C0078C80
C0078C80
C0078C80
C0000C80
C0000C80
C0000C80
C0010C80
C0078C80
C3CFCC80
C7FFCC80
CFFFED80
DFFFEF80
C0000F80
C0000C00
FFFFFC00
7FFFF800
ENDCHAR
STARTCHAR E245
ENCODING 57925
SWIDTH 562 0
DWIDTH 15 0
BBX 26 13 0 1
BITMAP
03E1E000
07007000
0E001C00
38000E00
7F007F80
FFFFFFC0
E07F03C0
603F0180
60360180
60330180
60618300
3FC1FF00
1F80FE00
ENDCHAR
STARTCHAR E246
ENCODING 57926
SWIDTH 562 0
DWIDTH 15 0
BBX 25 22 0 -4
BITMAP
00FF8000
00BFC000
01FFC000
01DFE000
03EFE000
03EFF000
07F7F800
0FF7F800
0FF3FC00
1FE3FC00
1FC1FE00
3FC0FF00
7F80FF00
7F807F80
FF007F80
FFFFFF80
7EFFFF80
7DFFFF00
3DFFFF00
3BFFFE00
1FFFFC00
17FFFC00
ENDCHAR
STARTCHAR E247
ENCODING 57927
SWIDTH 562 0
DWIDTH 15 0
BBX 25 25 0 -6
BITMAP
80000000
D8000000
E6000000
F3800000
F9E00000
FCF80000
FE7E0000
FF3F8000
FF9F8000
FFCF3000
FFE67C00
FFF0FF00
FFF9FF80
FFF0FE00
FFE67800
FFCF2000
FF9F8000
FF3E0000
FE780000
FCE00000
F9C00000
F3000000
E4000000
D8000000
80000000
ENDCHAR
STARTCHAR E248
ENCODING 57928
SWIDTH 562 0
DWIDTH 15 0
BBX 25 25 0 -6
BITMAP
000C0000
000C0000
000C0000
000C0000
007F8000
01F3C000
0380E000
07003000
061C3800
0C3F1800
0C7F9800
7C7F8F80
FCFF8F80
0C7F8800
0C7F1800
0E3F1800
060C3000
03007000
03C0E000
00FFC000
007F0000
000C0000
000C0000
000C0000
000C0000
ENDCHAR
STARTCHAR E249
ENCODING 57929
SWIDTH 562 0
DWIDTH 15 0
BBX 25 25 0 -6
BITMAP
00FF8000
03FFE000
07F3F800
0FF7FC00
1FF29E00
3FFDEE00
7FFDEF00
7FF3EF00
7FE0DF80
FFC81F80
FF861F80
FF203F80
FE208F80
FC21C780
FCC3F380
F8C7FF80
7F87FF80
7F8FFF00
3F9FFF00
3F1FFE00
1E3FFC00
0E7FF800
07FFF000
01FFE000
007F0000
ENDCHAR
STARTCHAR E24A
ENCODING 57930
SWIDTH 562 0
DWIDTH 15 0
BBX 10 25 2 -6
BITMAP
0E00
0E00
0E00
0000
0C00
0C00
0C00
0C00
0C00
0C00
0C00
0C00
3D00
3D80
3D80
2180
2180
7180
7FC0
FFC0
FFC0
FFC0
7FC0
7F80
1F00
ENDCHAR
STARTCHAR E24B
ENCODING 57931
SWIDTH 562 0
DWIDTH 15 0
BBX 23 25 0 -6
BITMAP
FE002C
FFDFFE
FFFFFE
7FFFFC
FFFFFE
F8BF3E
70003E
F8003E
F8003E
70003E
F8003E
F8003E
74003E
04003E
00003E
00007E
0001FE
0003FC
001FF0
003FB0
003F80
001E00
001C00
001800
001800
ENDCHAR
STARTCHAR E24C
ENCODING 57932
SWIDTH 562 0
DWIDTH 15 0
BBX 25 16 0 -1
BITMAP
0C001800
1E001C00
1E001C00
FE001D80
FE001D80
FE001D80
FE001D80
FFFFFD80
FFFFFD80
FFFFFD80
FE001D80
FE001D80
FE001D80
DE001D80
1E001C00
0C001C00
ENDCHAR
STARTCHAR E24D
ENCODING 57933
SWIDTH 562 0
DWIDTH 15 0
BBX 25 21 0 -4
BITMAP
007F0000
03FFE000
07FFF800
1FFFFC00
1FFFFE00
3FFFFE00
3FFFFF00
3FFFFF00
7FFFFF00
7FFFFF00
00000000
FFFFFF80
7FFFFF00
FFFFFF80
FFFFFF80
FFFFFF80
00000000
7FFFFF00
7FFFFF00
3FFFFF00
1FFFFE00
ENDCHAR
STARTCHAR E24E
ENCODING 57934
SWIDTH 562 0
DWIDTH 15 0
BBX 25 7 0 3
BITMAP
007F0000
00FF8000
01FFC000
01FFC000
7F3FFF80
FFFFFF80
0FFFF800
ENDCHAR
STARTCHAR E24F
ENCODING 57935
SWIDTH 562 0
DWIDTH 15 0
BBX 23 26 0 -6
BITMAP
001000
007C00
01FF00
07FFC0
0FFFE0
3FFFF8
7FFFFC
FFFFFE
FFFFFE
FFFFFE
FFFFFE
FFFFFE
FFFFFE
FFFFFE
FFFFFE
FFFFFE
FFFFFE
FFFFFE
FFFFFE
FFFFFE
7FFFFC
1FFFF0
0FFFE0
03FF80
00FE00
007C00
ENDCHAR
STARTCHAR E250
ENCODING 57936
SWIDTH 562 0
DWIDTH 15 0
BBX 25 23 0 -5
BITMAP
20000000
70000000
78000000
FC000000
FE000000
FF000000
FF800000
FFE00000
7FF00000
3BF80000
31FC0000
30FE1E00
307FFE00
303FFF00
103FFF80
101FFF80
101FFF80
100FFF80
100FFF00
100FFF00
100FFF00
300FFF00
00078000
ENDCHAR
STARTCHAR E251
ENCODING 57937
SWIDTH 562 0
DWIDTH 15 0
BBX 25 25 0 -6
BITMAP
78000000
FFE00000
CE300000
83180000
798C0000
7DC60000
DDE30000
CCF18000
4638C000
439C6000
61EE3000
30EF1800
18678C00
0C37C600
0611E300
030C3100
01879900
00C3DD80
0061CF80
0030EF00
00186780
000C3180
00061F80
0003FF80
00004700
ENDCHAR
STARTCHAR E252
ENCODING 57938
SWIDTH 562 0
DWIDTH 15 0
BBX 13 25 1 -6
BITMAP
0780
0380
0F80
07C0
3FE0
3FE0
1FE0
FFF0
FFF0
FFF8
FFF8
0000
3FE0
3FE0
3FC0
1FC0
1FC0
1F80
0F80
0F80
0F00
0700
0700
0200
0200
ENDCHAR
STARTCHAR E253
ENCODING 57939
SWIDTH 562 0
DWIDTH 15 0
BBX 25 15 0 -1
BITMAP
FFFFFF80
C4631880
CE231880
CF231880
CE331980
D13FFF80
FFA00080
FFBFFF80
FFBFFF80
E0600080
FFFFFF80
FFFFFF80
FFE00080
FFFFFF80
FFFFFF80
ENDCHAR
STARTCHAR E254
ENCODING 57940
SWIDTH 562 0
DWIDTH 15 0
BBX 25 11 0 1
BITMAP
EEF7DC00
EEF7DC00
EEF6FC00
EFF6FF80
EFB6FD80
EFB6FD80
EFB6FD80
EFB6FD80
EFB6FD80
EDB7DF80
00000100
ENDCHAR
STARTCHAR E255
ENCODING 57941
SWIDTH 562 0
DWIDTH 15 0
BBX 25 11 0 2
BITMAP
1F80FE00
7BC1EF00
60638380
C0370180
C01E0180
C01C0080
C03E0180
C0730180
60E18380
3FC0FF00
1F007C00
ENDCHAR
STARTCHAR E256
ENCODING 57942
SWIDTH 562 0
DWIDTH 15 0
BBX 19 25 0 -6
BITMAP
000800
000800
000800
001000
002000
004400
009800
013000
032000
022000
013000
013000
009000
0010C0
1C0020
1FFC20
000040
0C3880
01C100
000000
07FC00
200000
C00080
1FFF40
0FFF80
ENDCHAR
STARTCHAR E257
ENCODING 57943
SWIDTH 562 0
DWIDTH 15 0
BBX 25 19 0 -3
BITMAP
003E0000
00FFC000
07FFF000
1FFFFC00
7FFFFF80
FFFFFF00
0FFFFC00
03FFE000
00FF8100
F81E0780
3E003E00
07C0F800
01FFC000
F03F0380
7C081F00
0F007C00
03E3E000
00FF8000
001C0000
ENDCHAR
STARTCHAR E258
ENCODING 57944
SWIDTH 562 0
DWIDTH 15 0
BBX 25 16 0 -1
BITMAP
00618000
013EE000
06FBF000
09FFFC00
1FFFFE00
3FFFFF00
7FFFFF00
7F007F80
F8000F80
1FF3FE00
F1FFFF80
7FFFFF80
7FFFFF00
3FFFFE00
0FFFFC00
03FFE000
ENDCHAR
STARTCHAR E259
ENCODING 57945
SWIDTH 562 0
DWIDTH 15 0
BBX 9 25 3 -5
BITMAP
0E00
3E00
3E00
3E00
3E00
3E00
3E00
3E00
3E00
7F00
7F00
7F00
7F00
7F00
7F00
7F00
7F00
FF80
FF80
FF80
FF80
FF80
FF80
FF80
FF80
ENDCHAR
STARTCHAR E25A
ENCODING 57946
SWIDTH 562 0
DWIDTH 15 0
BBX 25 15 0 -1
BITMAP
1FFEBF80
3FFFBF80
7FFF7F80
7FFF7F00
FFFFFE00
FFFFFE00
FFFF7800
FFFF6000
FFFF0000
FFFC0000
FFF00000
FFC00000
7E000000
79000000
60000000
ENDCHAR
STARTCHAR E25B
ENCODING 57947
SWIDTH 562 0
DWIDTH 15 0
BBX 26 23 0 -4
BITMAP
000C0000
000C0000
000C0000
01CCE000
07CDF000
0FEDF800
0FEFFC00
1FFFFE00
3FFFFE00
3FF3FF00
7FF3FF00
7FF3FF80
FFF3FF80
FFF3FF80
FFF3FF80
FFF3FF80
FFE3FFC0
FFE3FFC0
FFE1FFC0
FFC0FFC0
FF807F80
FE003F80
7C000F80
ENDCHAR
STARTCHAR E25C
ENCODING 57948
SWIDTH 562 0
DWIDTH 15 0
BBX 11 25 2 -6
BITMAP
7800
F840
FC40
FC40
7840
7840
3040
3040
3040
3040
3060
3060
3060
3060
3060
3060
3060
3060
3060
3060
3060
3060
3060
3040
3040
ENDCHAR
STARTCHAR E25D
ENCODING 57949
SWIDTH 562 0
DWIDTH 15 0
BBX 25 25 0 -6
BITMAP
FFFFFF80
FFFFFF80
FFFFFF80
FFFFFF80
80000080
80000080
80000080
80000080
80000080
80000080
80000080
80000080
80000080
80000080
80000080
80000080
80000080
80000080
80000080
80000080
80000080
80000080
80000080
FFFFFF80
FFFFFF80
ENDCHAR
STARTCHAR E25E
ENCODING 57950
SWIDTH 562 0
DWIDTH 15 0
BBX 26 19 0 -3
BITMAP
7FFFFF00
C0000180
FFFFFE80
FFFFFEC0
FFFFFEC0
FFFFC0C0
FFFFBEC0
FFFFB6C0
FFFFB6C0
FFFFBEC0
FFFFC0C0
FFFFFEC0
FFFFFEC0
FFFFFEC0
FFFFFE80
FFFFFE80
FFFFFE00
FFFFFE00
7FFFFE00
ENDCHAR
STARTCHAR E25F
ENCODING 57951
SWIDTH 562 0
DWIDTH 15 0
BBX 13 26 1 -6
BITMAP
0080
0F80
3F80
7FC0
7FE0
7FE0
FFF8
FDF8
FC10
FE00
FE00
FF00
FF00
FF80
FFC0
FFC0
7FC0
7FC0
7FC0
7FC0
FFC0
FFE0
FFE0
FFE0
FFC0
FFE0
ENDCHAR
STARTCHAR E260
ENCODING 57952
SWIDTH 562 0
DWIDTH 15 0
BBX 9 25 3 -6
BITMAP
0800
1C00
0800
1C00
7F00
7F00
7E00
3E00
1C00
3C00
3C00
7E00
1C00
1C00
1C00
3C00
3E00
3E00
7E00
7F00
7F00
FF80
FF80
FF80
FF80
ENDCHAR
STARTCHAR E261
ENCODING 57953
SWIDTH 562 0
DWIDTH 15 0
BBX 12 25 1 -6
BITMAP
0F80
1F80
1FC0
1FC0
1FC0
0F80
1FC0
3FE0
3FC0
0F00
0F00
0F80
0F80
1F80
1FC0
1FC0
3FE0
7FE0
3FE0
7FF0
7FF0
FFF0
7FF0
7FF0
7FF0
ENDCHAR
STARTCHAR E262
ENCODING 57954
SWIDTH 562 0
DWIDTH 15 0
BBX 10 25 2 -6
BITMAP
0E00
0E00
0C00
7F80
3F80
3F00
1F00
1E00
0E00
0E00
3F80
0E00
0E00
0E00
1E00
1F00
1F00
3F80
3F80
7FC0
7FC0
FFC0
FFC0
7FC0
7FC0
ENDCHAR
STARTCHAR E263
ENCODING 57955
SWIDTH 562 0
DWIDTH 15 0
BBX 13 25 1 -6
BITMAP
E770
6670
7FF0
3FE0
3FC0
3FE0
1FC0
1FC0
3FC0
3FC0
3FC0
3FC0
3FE0
3FE0
3FE0
7FF0
7FF0
7FF0
FFF0
FFF8
FFF8
FFF8
FFF8
FFF0
FFF8
ENDCHAR
STARTCHAR E264
ENCODING 57956
SWIDTH 562 0
DWIDTH 15 0
BBX 25 21 0 -4
BITMAP
00003000
0000F000
0000F800
0000F800
00E0F000
03F1F000
0F7FF800
7FFFFE00
3FFF9F00
F8FF0F00
FFE10F80
FFFF8780
FFFFFE00
0F3FFF80
0F3FFF80
0FFFFF80
1DFFFF80
7FFFFF00
7FFF3F00
0FFE1F00
00000600
ENDCHAR
STARTCHAR E265
ENCODING 57957
SWIDTH 562 0
DWIDTH 15 0
BBX 17 25 0 -6
BITMAP
000380
000380
000380
000380
000700
000600
007600
00ED00
01F180
01FF80
03FF80
03FF80
03FF80
03FF00
03FF00
07FE00
07FE00
07FC00
0FF800
1FF000
1FE000
3FC000
7F0000
FC0000
F00000
ENDCHAR
STARTCHAR E266
ENCODING 57958
SWIDTH 562 0
DWIDTH 15 0
BBX 25 24 0 -5
BITMAP
01FFC000
03FFE000
03FFE000
F3FFE780
F3FFE780
F3FFE780
03FFE000
03FFE000
F3FFE780
F3FFE780
F3FFE780
03FFE000
03FFE000
F3FFE780
F3FFE780
F3FFE780
03FFE000
03FFE000
F3FFE780
F3FFE780
F3FFE780
03FFE000
03FFE000
03FFE000
ENDCHAR
STARTCHAR E267
ENCODING 57959
SWIDTH 562 0
DWIDTH 15 0
BBX 25 21 0 -4
BITMAP
00038000
00078000
00078000
001B0000
003C0000
007E0000
00FA0000
01F3F000
01E00000
01F80000
047C0800
3B1C7600
408C8100
C04D8080
804D0080
804D0080
804D0080
C0410080
40C08180
31806300
1E003C00
ENDCHAR
STARTCHAR E268
ENCODING 57960
SWIDTH 562 0
DWIDTH 15 0
BBX 25 14 0 0
BITMAP
000C0000
007F8000
00FFC000
00FFC000
01FFE000
01FFFE00
03FFFF00
0FFFFF80
0FFFFF80
0FFFFF80
7FFFFF80
FFFFFF80
FFFFFF00
FFFFFE00
ENDCHAR
STARTCHAR E269
ENCODING 57961
SWIDTH 562 0
DWIDTH 15 0
BBX 20 25 0 -5
BITMAP
050200
050C00
029400
04F400
05FA00
05FE00
03FC00
03FE00
0FFF00
17FF80
2FFF40
CFFFB0
0FFF80
1FFF80
1FFF80
1FFF80
1FFF80
0FFF80
0FFF80
1FFF80
2FFF40
27FF40
27FE40
23FC40
41F830
ENDCHAR
STARTCHAR E26A
ENCODING 57962
SWIDTH 562 0
DWIDTH 15 0
BBX 26 25 0 -6
BITMAP
00001C00
00003D00
00007D80
0FF0FD80
1FF8FF80
3FF8FBC0
7FF5FFC0
FF8DF7C0
8FF9EF80
7FF9EF80
FFF0DF80
7FE0DF00
3F9C5E00
007E1C00
01FE0000
03FD0000
07FB8000
07F70000
0FCF0000
0F7F0000
0DFE0000
0BFC0000
03F80000
07F00000
01C00000
ENDCHAR
STARTCHAR E26B
ENCODING 57963
SWIDTH 562 0
DWIDTH 15 0
BBX 25 9 0 2
BITMAP
003FE000
01C02000
0E007C00
3001E380
C007C080
807F0180
CFFEFF80
FFFFFF80
7F3FFC00
ENDCHAR
STARTCHAR E26C
ENCODING 57964
SWIDTH 562 0
DWIDTH 15 0
BBX 25 25 0 -6
BITMAP
00000C00
00003E00
00007700
0000FB80
0001ED00
0003D600
00076E00
000EB400
001D6800
003EB000
003B4000
00758000
00FA8000
01FD0000
03C20000
07C00000
0F800000
1F000000
3F000000
7E000000
FC000000
FC000000
F8000000
70000000
20000000
ENDCHAR
STARTCHAR E26D
ENCODING 57965
SWIDTH 562 0
DWIDTH 15 0
BBX 22 25 0 -6
BITMAP
C00000
600000
700000
380000
3C0000
1E0000
0FA000
4FF000
7FF800
3FFC00
3FFE00
1FFF00
0FFF80
07FFC0
07FFE0
03FC30
01F808
00F00C
00F00C
00700C
00300C
001008
001818
000E70
0003C0
ENDCHAR
STARTCHAR E26E
ENCODING 57966
SWIDTH 562 0
DWIDTH 15 0
BBX 26 15 0 0
BITMAP
000C0000
00080000
00080000
C3083080
C30C30C0
421C2100
213E6300
3BFFE600
1FFFFE00
1FFFFC00
0FFFFC00
0FFFFC00
0FFFF800
0FFFF800
0FFFFC00
ENDCHAR
STARTCHAR E26F
ENCODING 57967
SWIDTH 562 0
DWIDTH 15 0
BBX 21 25 0 -6
BITMAP
07FF00
7FFFF0
7FFFF0
FFFFF8
FFFFF8
FFFFF8
3FFFF0
3FFFE0
3FFFE0
3FFFE0
3F8FE0
3F07E0
000000
000000
000000
000000
1F07E0
1FDFC0
1FFFC0
1FFFC0
1FFFC0
1FFFC0
1FFFC0
1FFFC0
0FFF80
ENDCHAR
STARTCHAR E270
ENCODING 57968
SWIDTH 562 0
DWIDTH 15 0
BBX 26 25 0 -6
BITMAP
7FFFFF80
FFFFFF80
FFFFFFC0
FC7F1FC0
F83E0FC0
F83E0FC0
F83E0FC0
FC7F1FC0
FFFFFFC0
FFFFFFC0
FC7F1FC0
F83E0FC0
F83E0FC0
F83E0FC0
FC7F1FC0
FFFFFFC0
FFFFFFC0
FC7F0FC0
F83E0FC0
F83E0FC0
F83E0FC0
FEFFBFC0
FFFFFF80
FFFFFF80
7FFFFF00
ENDCHAR
STARTCHAR E271
ENCODING 57969
SWIDTH 562 0
DWIDTH 15 0
BBX 26 25 0 -6
BITMAP
00FFC000
03FFF000
07FFF800
0FFFFC00
1FFFFE00
3FFFFF00
7FFFFF00
7FE1FF80
7F80FF80
FF007F80
FF0C3F80
FF1E3FC0
FE1E3FC0
FF1C3FC0
FF003F80
FF807F80
7FC0FF80
7FF3FF80
7FFFFF00
3FFFFE00
1FFFFE00
0FFFFC00
07FFF800
03FFE000
007F8000
ENDCHAR
STARTCHAR E272
ENCODING 57970
SWIDTH 562 0
DWIDTH 15 0
BBX 15 25 0 -6
BITMAP
C006
DFF6
FFFE
C006
C006
DFF6
600C
600C
37DC
3FF8
1C70
0FE0
1FE0
3C70
7018
67CC
C00C
C006
DFE6
DFF6
C006
C006
FFFE
C006
C006
ENDCHAR
STARTCHAR E273
ENCODING 57971
SWIDTH 562 0
DWIDTH 15 0
BBX 25 21 0 -4
BITMAP
00FFC000
07FFF000
1F3F3C00
3FFF7F00
7FC1FF00
FF007F80
FF007B80
F380F780
FEFFFF80
FCFFFF80
FFFCFF80
FFFDFE80
DFFFFC80
CFFFF880
CFFF9980
C3798180
63180300
39180600
1F103C00
07FFF000
003F0000
ENDCHAR
STARTCHAR E274
ENCODING 57972
SWIDTH 562 0
DWIDTH 15 0
BBX 13 25 1 -6
BITMAP
30C0
38C0
3FC0
3FC0
3FC0
3FC0
1FC0
1FC0
1F80
0000
1FC0
3FC0
3FE0
3FE0
3FE0
7FE0
7FE0
7FF0
7FF0
7FF0
7FF0
FFF0
FFF0
FFF8
7FE0
ENDCHAR
STARTCHAR E275
ENCODING 57973
SWIDTH 562 0
DWIDTH 15 0
BBX 18 25 0 -6
BITMAP
00C000
01C000
01E000
03E000
03F000
07F800
0FF800
0FFC00
1FFC00
1FFE00
3FFE00
7FFF00
7FFF80
FFFF80
FFFF80
FFFF80
FFFFC0
FFFF80
FFFF80
7FFF80
7FFF80
3FFF00
3FFE00
0FFC00
07F000
ENDCHAR
STARTCHAR E276
ENCODING 57974
SWIDTH 562 0
DWIDTH 15 0
BBX 26 25 0 -6
BITMAP
00FFC000
03FFF000
07FFF800
0FFFFC00
1FFFFE00
3FFFFF00
7FFFFF00
7FFFFF80
7FFFFF80
FFFFFF80
FFFFFF80
FFFFFFC0
FFFFFFC0
FFFFEFC0
F9FFEF80
FDFFCF80
7CFF9F80
7E7F3F80
7F087F00
3FC0FE00
1FFFFE00
0FFFFC00
07FFF800
03FFE000
007F8000
ENDCHAR
STARTCHAR E277
ENCODING 57975
SWIDTH 562 0
DWIDTH 15 0
BBX 23 25 0 -6
BITMAP
003C00
00FE00
01FF80
07FFC0
0FFFE0
3FFFF8
7FFFFC
FFFFFE
FFFFFE
FFFFFE
FFFFFE
7FFFFC
3FFFF8
9FFFF2
C7FFE6
F3FF8E
F8FF3E
FE7C7E
FF11FE
FFC3FE
FFFFFE
FFFFFE
FFFFFE
FFFFFE
7FFFFE
ENDCHAR
STARTCHAR E278
ENCODING 57976
SWIDTH 562 0
DWIDTH 15 0
BBX 22 25 0 -6
BITMAP
007800
01CE00
038700
070180
0C00C0
380070
700038
600018
C0000C
C0000C
C0000C
C0000C
E0001C
F0003C
F8007C
CC00CC
C7018C
C3870C
C0CE0C
C0780C
C0000C
C0000C
C0000C
FFFFFC
7FFFF8
ENDCHAR
STARTCHAR E279
ENCODING 57977
SWIDTH 562 0
DWIDTH 15 0
BBX 25 17 0 -2
BITMAP
7FFFFF80
FFFFFF80
FFFFFF80
FFFFFF80
FFFFFF80
7FFFFF80
00000000
00000000
00000000
00000000
7FFFFF00
FFFFFF80
FFFFFF80
FFFFFF80
FFFFFF80
FFFFFF80
7FFFFF00
ENDCHAR
STARTCHAR E27A
ENCODING 57978
SWIDTH 562 0
DWIDTH 15 0
BBX 25 17 0 -2
BITMAP
0001C000
0001E000
0001F000
FFFCF800
FFFE7C00
FFFE3E00
FFFC1F00
00000F80
00000780
7FFC0F80
FFFE1F00
FFFE3E00
FFFE7C00
0000F800
0001F000
0001E000
0000C000
ENDCHAR
STARTCHAR E27B
ENCODING 57979
SWIDTH 562 0
DWIDTH 15 0
BBX 25 22 0 -4
BITMAP
001C0000
003E0000
007F0000
00FF8000
01FFC000
03F7E000
07E3F000
0FC3F800
1F87FC00
3F0FFE00
7E1FFF00
FC37FF80
F863FF80
FCC3FF80
7F87FF80
3F0FFF00
1F1FFE00
0FF7FC00
07E3F800
03F3F000
01FFE000
00FFC000
ENDCHAR
STARTCHAR E27C
ENCODING 57980
SWIDTH 562 0
DWIDTH 15 0
BBX 24 26 0 -6
BITMAP
7FE000
FFE600
FFE700
FFE780
FFE7C0
FFE7E0
FFE7F0
FFE7F8
FFE7F8
FFE000
FFE000
FFFF00
FFFE30
FFFE78
FFF83C
FFF01E
FFE3FF
FFE7FF
FFE3FF
FFF01E
FFF03C
FFFE78
FFFE70
FFFE00
FFFF04
FFFFF8
ENDCHAR
STARTCHAR E27D
ENCODING 57981
SWIDTH 562 0
DWIDTH 15 0
BBX 24 25 0 -6
BITMAP
FFE600
FFE700
FFE780
FFE7C0
FFE7E0
FFE7F0
FFE7F8
FFE7F8
FFE000
FFE000
FFFF00
FFFE30
FFFC70
FFF8F0
FFF1E0
FFE3FF
FFE7FF
FFE3FF
FFF1C0
FFF8F0
FFFC70
FFFE30
FFFF00
FFFF80
FFFFF8
ENDCHAR
STARTCHAR E27E
ENCODING 57982
SWIDTH 562 0
DWIDTH 15 0
BBX 25 21 0 -4
BITMAP
07800000
0EC00000
0C400000
0C40F000
00C1F800
FF819C00
FE038C00
00010C00
00001C00
FFFFF800
FFFFF000
00000000
00000000
0FFFFE00
0FFFFF00
00000380
00003180
00003180
00003B80
00001F00
00000E00
ENDCHAR
STARTCHAR E27F
ENCODING 57983
SWIDTH 562 0
DWIDTH 15 0
BBX 25 23 0 -5
BITMAP
01804000
07619000
04141000
04080800
04140800
04221000
047F1000
07C1F800
3C809600
42807300
83086080
811C2080
831C6080
42806180
24809200
1E409C00
05FFF000
04221000
04140800
04080800
04141000
06231000
0780E000
ENDCHAR
STARTCHAR E280
ENCODING 57984
SWIDTH 562 0
DWIDTH 15 0
BBX 19 25 0 -6
BITMAP
3E0000
7F8000
FFE000
FFF000
FFF800
FFFC00
7FFE00
3FFF00
0FFF80
03FF80
01FFC0
3CFFC0
7E7FE0
7E3FE0
7E1FE0
3F1FE0
3F9FE0
1FCFE0
1FE780
0FF800
07FE00
03FE00
01FF00
00FE00
003C00
ENDCHAR
STARTCHAR E281
ENCODING 57985
SWIDTH 562 0
DWIDTH 15 0
BBX 25 23 0 -5
BITMAP
00000C00
00001C00
00001C00
00003000
00003700
00007700
0000F700
0001F780
0003F780
F00FEF80
FFFFEF80
FFFFCF80
7FFFDF80
3FFFBF80
1FFF7F80
07FCFF00
0003FF00
03FFFE00
07FFFE00
07FFFC00
07FFF800
01FFE000
007F8000
ENDCHAR
STARTCHAR E282
ENCODING 57986
SWIDTH 562 0
DWIDTH 15 0
BBX 25 19 0 -3
BITMAP
00001000
0000B000
00018000
00008000
00002000
00003000
00000000
7FFFFF00
FFFFFF80
FFFFFF80
7FFFFF00
7FFFFF00
3FFFFF00
3FFFFE00
3FFFFE00
1FFFFC00
0FFFF800
07003000
02000000
ENDCHAR
STARTCHAR E283
ENCODING 57987
SWIDTH 562 0
DWIDTH 15 0
BBX 25 22 0 -4
BITMAP
0FFFFC00
3FFFFE00
3FFFFF00
3FFFFF00
3FFFFF00
301C0700
301C0700
300C0700
00000000
00000000
FFFFFF80
FFFFFF80
FFFFFF80
FFFFFF80
FFFFFF80
FFFFFF80
FFFFFF80
FFFFFF80
7FFFFF80
7FFFFF00
1F007C00
1F007C00
ENDCHAR
STARTCHAR E284
ENCODING 57988
SWIDTH 562 0
DWIDTH 15 0
BBX 23 26 0 -6
BITMAP
001000
007C00
007C00
007C00
00FE00
03BB88
7F00FC
FC007E
FC007E
F8003E
78003C
300008
300008
300008
300008
300008
78003C
FC003E
FC007E
FC007E
7F01FC
01FF00
00FE00
007C00
007C00
003800
ENDCHAR
STARTCHAR E285
ENCODING 57989
SWIDTH 562 0
DWIDTH 15 0
BBX 16 25 0 -6
BITMAP
7800
FC00
FE00
FF00
7F80
3FC0
1FE0
0FF0
07F8
03FC
01FE
00FE
007F
00FE
01FC
03F8
07F0
0FE0
1FC0
3F80
7F00
FE00
FC00
F800
7000
ENDCHAR
STARTCHAR E286
ENCODING 57990
SWIDTH 562 0
DWIDTH 15 0
BBX 25 22 0 -4
BITMAP
0180C000
02004000
02002000
02002000
02002000
027F2000
037F6000
0380E000
03C1E000
1FF7FC00
3FF3EE00
42633100
83007080
831C6080
831C6080
019CE000
01DDC000
00DF8000
003E0000
00370000
00E38000
0F80FC00
ENDCHAR
STARTCHAR E287
ENCODING 57991
SWIDTH 562 0
DWIDTH 15 0
BBX 25 25 0 -6
BITMAP
00FF8000
03FFE000
07FFF800
0FFFFC00
1F87FE00
3E00FE00
7C007F00
78007F00
78783F80
F87C3F80
F8000F80
F8000780
F8000780
F8000780
F87F0780
F87F8780
78000F80
78000F00
3C001F00
3E003E00
1FFFFC00
0FFFF800
07FFF000
01FFE000
007F0000
ENDCHAR
STARTCHAR E288
ENCODING 57992
SWIDTH 562 0
DWIDTH 15 0
BBX 25 25 0 -6
BITMAP
7FFFFF80
FFFFFF80
FFFFFF80
FF83FF80
FC007F80
F8007F80
F8003F80
F87C3F80
F87E3F80
F87C3F80
F8003F80
F8000F80
F8000F80
F8000F80
F87F0F80
F87F0F80
F8000F80
F8000F80
FC000F80
FE003F80
FFFFFF80
FFFFFF80
FFFFFF80
FFFFFF80
7FFFFF00
ENDCHAR
STARTCHAR E289
ENCODING 57993
SWIDTH 562 0
DWIDTH 15 0
BBX 26 23 0 -5
BITMAP
003E0000
003E0000
001E0000
003E0000
001E0000
3F1E3F00
7FDEFF80
FFE1FF80
FFFFFF80
FFFFFFC0
FFFFFF80
7FDCFF00
3F807E00
0F003C00
0F007800
07807800
0FC1F800
0FFFFC00
1FFFBC00
0E7FB800
03E1F000
03C0F000
03807000
ENDCHAR
STARTCHAR E28A
ENCODING 57994
SWIDTH 562 0
DWIDTH 15 0
BBX 25 22 0 -4
BITMAP
7E003F00
FFE3FF80
FFFFFF80
FFFFFF80
FFFFFF80
FFFFFF80
FFFFFF80
FFFFFF80
FFFFFF80
FFFFFF80
FFFFFF80
FFFFFF80
FFFFFF80
FFFFFF80
FFFFFF80
FFFFFF80
FFFFFF80
FFFFFF80
FFFFFF80
FFFFFF80
007F0000
001C0000
ENDCHAR
STARTCHAR E28B
ENCODING 57995
SWIDTH 562 0
DWIDTH 15 0
BBX 25 22 0 -4
BITMAP
7F003F00
FFE3FF80
FFFFFF80
C03E0180
C00C0180
C00C0180
C00C0180
C00C0180
C00C0180
C00C0180
C00C0180
C00C0180
C00C0180
C00C0180
C00C0180
C00C0180
C00C0180
C00C0180
FFCDFF80
FFFFFF80
007F0000
001C0000
ENDCHAR
STARTCHAR E28C
ENCODING 57996
SWIDTH 562 0
DWIDTH 15 0
BBX 25 24 0 -5
BITMAP
00580000
03FFC000
1FFFE000
3FFFF800
7FFFFC00
FFFFFE00
FFFFFE00
FFFFFF00
FFFFFF00
FFFFFF80
7FFFFF80
7FFFFF80
1FFFFF80
0FFFFF80
07FFFF80
03FFFF00
005FFC00
000FFC00
0007FC00
0007F800
00030000
00030000
00030000
00020000
ENDCHAR
STARTCHAR E28D
ENCODING 57997
SWIDTH 562 0
DWIDTH 15 0
BBX 25 22 0 -4
BITMAP
00080000
001F0000
003FC000
0030F000
00F03800
03C01E00
0F000F00
1E000380
78000180
F0000180
F0003F80
7C007F80
3E00F600
8F03E080
67878F80
33DF3F00
19FC6000
0CF9C000
06630000
030E0000
00F80000
00700000
ENDCHAR
STARTCHAR E28E
ENCODING 57998
SWIDTH 562 0
DWIDTH 15 0
BBX 26 21 0 -4
BITMAP
3C000F00
FF003FC0
FF80FFC0
FFC0FFC0
FFE1FFC0
FFF3FFC0
FFFFFF80
7FFFFF80
7FFFFF80
7FFFFF80
3FFFFF00
1FFFFE00
0FFFFC00
1FFFFE00
1FFFFE00
1FFFFE00
1FF3FE00
1FF3FC00
0FE1FC00
0FC1F800
03007000
ENDCHAR
STARTCHAR E28F
ENCODING 57999
SWIDTH 562 0
DWIDTH 15 0
BBX 25 25 0 -6
BITMAP
00000600
00010C00
00011B80
00013E00
00017800
0003F000
0001E000
001CC000
001E0000
006F0000
00FF0000
00FF0000
01FE0000
03EC0000
07700000
0FB80000
0FF00000
1FE00000
3FC00000
3F800000
7F000000
7E000000
FC000000
F0000000
E0000000
ENDCHAR
STARTCHAR E290
ENCODING 58000
SWIDTH 562 0
DWIDTH 15 0
BBX 26 25 0 -6
BITMAP
00FFC000
03FFF000
0780F800
0E003C00
1C1C0E00
381C0700
701C0700
70080380
603F0180
E07F0180
E07F0180
C07F01C0
C07F01C0
C07F01C0
E01E0180
E01E0180
601E0380
701E0380
301E0700
381E0E00
1C1E1E00
0F003C00
07C1F000
01FFE000
007F8000
ENDCHAR
STARTCHAR E291
ENCODING 58001
SWIDTH 562 0
DWIDTH 15 0
BBX 26 25 0 -6
BITMAP
00FFC000
03FFF000
07807800
1E003C00
1C000E00
38000700
70000300
70000380
60C08180
E3F3F180
C3372180
C30601C0
C30601C0
C30621C0
E3BF7180
E1F3E180
60000380
70000380
30000700
38000F00
1C001E00
0F003C00
07C1F800
03FFE000
007F8000
ENDCHAR
STARTCHAR E292
ENCODING 58002
SWIDTH 562 0
DWIDTH 15 0
BBX 25 25 0 -6
BITMAP
00FF8000
03FFE000
0780F800
0E003C00
1C001E00
380C0E00
700C0700
7C3F0300
7F7F0380
EFE00180
C3F80180
C07E0180
C01F8180
C007E180
E003F980
E063BF80
60FF0F80
703E0300
300C0700
380C0E00
1C001C00
0F007800
07E3F000
01FFE000
007F0000
ENDCHAR
STARTCHAR E293
ENCODING 58003
SWIDTH 562 0
DWIDTH 15 0
BBX 25 25 0 -6
BITMAP
00FFC000
03FFE000
0780F800
0E003C00
1C000E00
380E0700
703F8700
7C7F8380
7FF00380
EFE00180
C3FF0180
C3FF0180
C1FF8180
C3FFE180
C1E1FD80
E0E03F80
60F00F80
707F8300
303F8700
380E0E00
1C001E00
0F003C00
07C1F000
01FFE000
007F0000
ENDCHAR
STARTCHAR E294
ENCODING 58004
SWIDTH 562 0
DWIDTH 15 0
BBX 25 25 0 -6
BITMAP
00FFC000
03FFF000
0780F800
0E003C00
1C000E00
38000700
71C1E700
79E1C380
7EE3C380
FFF38180
C3F70180
C0FF0180
C0FFC180
C0FFE180
C01FF980
E01FFF80
60FFDF80
70FFC700
301C0700
381C0E00
1C1C1E00
0F003C00
07C1F000
01FFE000
007F0000
ENDCHAR
STARTCHAR E295
ENCODING 58005
SWIDTH 562 0
DWIDTH 15 0
BBX 26 25 0 -6
BITMAP
00FFC000
03FFF000
07807800
0E003C00
1C000E00
38000700
70000300
70000380
60000180
E0FFC180
C0FFC180
C0FFC1C0
C00001C0
C0FFC1C0
E0FFC180
E0FFC180
60000380
70000380
30000700
38000E00
1C001E00
0F003C00
07C1F800
03FFE000
007F8000
ENDCHAR
STARTCHAR E296
ENCODING 58006
SWIDTH 562 0
DWIDTH 15 0
BBX 25 25 0 -6
BITMAP
00FFC000
03FFE000
0780F800
0E003C00
1C000E00
38300600
70FC0700
71FF0380
61FFE380
E1FFE180
C1FFE180
CFFFE180
CFF79980
CFF19980
EFF06980
E38C4980
6003DB80
70006300
30000700
38000E00
1C001C00
0F003C00
07C1F000
01FFE000
007F0000
ENDCHAR
STARTCHAR E297
ENCODING 58007
SWIDTH 562 0
DWIDTH 15 0
BBX 25 25 0 -6
BITMAP
00FF8000
03FFE000
0780F800
0E003C00
1C000E00
38000600
703F0700
70FF8380
60F3C380
E1E1E180
C1C0E180
C1E0E180
C080E180
C000E180
C1C0E180
E1C1E180
60F3C380
70FF8300
307F0700
38000E00
1C001C00
0F003C00
07E1F000
01FFE000
007F0000
ENDCHAR
STARTCHAR E298
ENCODING 58008
SWIDTH 562 0
DWIDTH 15 0
BBX 26 25 0 -6
BITMAP
00FFC000
03FFF000
0780F800
0E003C00
1C000E00
39FE0700
71FE0700
71020380
61020380
E13FE180
E1306180
C13061C0
C13061C0
C13061C0
E1306180
E1F06180
60306380
70306380
303FE700
38000E00
1C001E00
0F003C00
07C1F000
01FFE000
007F8000
ENDCHAR
STARTCHAR E299
ENCODING 58009
SWIDTH 562 0
DWIDTH 15 0
BBX 26 25 0 -6
BITMAP
00FFC000
03FFF000
07807800
0E003C00
1C000E00
383E0700
707F0300
70FF8380
60E38180
E0E7C180
C0E7C180
C1EDC1C0
C1FDC1C0
C0F9C1C0
E0F1C180
E0F1C180
60F38380
707F8380
307F0700
381C0E00
1C001E00
0F003C00
07C1F800
03FFE000
007F8000
ENDCHAR
STARTCHAR E29A
ENCODING 58010
SWIDTH 562 0
DWIDTH 15 0
BBX 21 26 0 -6
BITMAP
7FFFF0
FFFFF8
C00018
C00018
C00018
C18018
C38018
DB3FD8
DE3FD8
CE0018
C40018
C00018
C00018
CE3FD8
CE3FD8
C00018
C00018
C00018
C60018
CE3FD8
C60018
C00018
C00018
C00018
FFFFF8
FFFFF8
ENDCHAR
STARTCHAR E29B
ENCODING 58011
SWIDTH 562 0
DWIDTH 15 0
BBX 23 25 0 -6
BITMAP
0000C0
000380
000780
000D00
001900
001100
002300
006200
004200
008200
008200
018200
010200
010300
1F01F0
7FCFF8
7FEFFC
FFDFFC
FFDFFC
FFDFFE
FFDFFC
FFFFFC
7FEFFC
3FC7F8
1F03E0
ENDCHAR
STARTCHAR E29C
ENCODING 58012
SWIDTH 562 0
DWIDTH 15 0
BBX 9 25 3 -6
BITMAP
0800
0800
1C00
3C00
3E00
3E00
3E00
1C00
1C00
1C00
3E00
3E00
1C00
1C00
3E00
3E00
7E00
7F00
7F00
FF80
FF80
FF80
FF80
FF80
FF80
ENDCHAR
STARTCHAR E29D
ENCODING 58013
SWIDTH 562 0
DWIDTH 15 0
BBX 25 25 0 -6
BITMAP
00FF8000
03FFE000
003F0000
0C1C1C00
1E003E00
3F807E00
7FC0FF00
7F80FF00
7F007F80
FE083F80
FC1C1F80
FC3F0F80
F87F8F80
F0FFC780
F1FFE780
F3FFE380
67FFF380
67FFFB00
2FFFF900
2FFFFC00
1FFFFC00
0FFFF800
07FFF000
01FFE000
007F8000
ENDCHAR
STARTCHAR E29E
ENCODING 58014
SWIDTH 562 0
DWIDTH 15 0
BBX 21 26 0 -6
BITMAP
0000C0
00C7E0
004FE0
006FC0
007F80
007C00
003000
0F2700
3FFFC0
7FFFF0
7FFFF0
FFFFF8
FFFFF8
FFFFF8
FFFFF8
FFFFF8
FFFFF8
7FFFF8
7FFFF0
7FFFF0
3FFFE0
1FFFE0
1FFFC0
0FFF80
07FF00
03FE00
ENDCHAR
STARTCHAR E29F
ENCODING 58015
SWIDTH 562 0
DWIDTH 15 0
BBX 25 25 0 -6
BITMAP
0003F800
0007FC00
000FFE00
001FFF00
001FFF00
003FFF80
003FFF80
007FFF80
007FFF00
007FFF00
00FFFE00
00FFFE00
00FFF800
00FFF000
00FFC000
01FF0000
03E00000
77C00000
FF800000
FF000000
FE000000
7F000000
1F000000
1F000000
0E000000
ENDCHAR
STARTCHAR E2A0
ENCODING 58016
SWIDTH 562 0
DWIDTH 15 0
BBX 25 15 0 -1
BITMAP
FFFFFF80
FFC1FF80
FF80FF80
FFFF7F80
FF217F80
FF227F80
FFBE7F80
FFBE7F80
FFC0FF80
FFF7FF80
00080000
00000000
FFFFFF80
FFFFFF80
FFFFFF80
ENDCHAR
STARTCHAR E2A1
ENCODING 58017
SWIDTH 562 0
DWIDTH 15 0
BBX 7 25 4 -6
BITMAP
FE
6C
28
4C
44
44
5C
4C
5C
7C
7C
BC
BC
BC
BC
BC
BC
48
30
10
10
10
10
10
10
ENDCHAR
STARTCHAR E2A2
ENCODING 58018
SWIDTH 562 0
DWIDTH 15 0
BBX 22 25 0 -6
BITMAP
00F000
007800
0FF800
1FF800
01FF80
00FFC0
07FFE0
0CFF60
007FA0
00FB80
01CDC0
038CC0
078880
070880
0F0000
0E0000
1E0000
1E0000
3C0000
3C0000
3DFE00
7FFFC0
7FFFF0
7FFFF8
FFFFFC
ENDCHAR
STARTCHAR E2A3
ENCODING 58019
SWIDTH 562 0
DWIDTH 15 0
BBX 17 25 0 -6
BITMAP
0FF000
1FFC00
381E00
708E00
67E700
E61300
CC9300
CDF380
CDF780
CCE700
CE0F00
6FBF00
67FE00
39FC00
1F7800
07F000
018000
018000
018000
018000
018000
018000
018000
018000
018000
ENDCHAR
STARTCHAR E2A4
ENCODING 58020
SWIDTH 562 0
DWIDTH 15 0
BBX 25 15 0 -1
BITMAP
FFFFFF80
FFC1FF80
FF80FF80
FFB77F80
FF7F7F80
FF7F7F80
FFBE7F80
FF9C7F80
FFC8FF80
FFF7FF80
00080000
00000000
FFFFFF80
FFFFFF80
FFFFFF80
ENDCHAR
STARTCHAR E2A5
ENCODING 58021
SWIDTH 562 0
DWIDTH 15 0
BBX 25 21 0 -4
BITMAP
00001F00
0000F980
007F8080
03F03E80
0E01FC80
38FFF180
63FFC780
4FFF9F80
DC1F3F00
980F7E00
980E7800
DC1EF000
DFFDE000
CFF9C000
E7F3C000
F80F8000
7F3F0000
7FFE0000
3FFC0000
0FF80000
01E00000
ENDCHAR
STARTCHAR E2A6
ENCODING 58022
SWIDTH 562 0
DWIDTH 15 0
BBX 25 13 0 1
BITMAP
00180000
003C0000
003E0000
007E0000
00FF7000
00FF7800
01FFF800
01FFFC00
1BFFFE00
3BFFFE00
3FFFFF00
7FFFFF00
FFFFFF80
ENDCHAR
STARTCHAR E2A7
ENCODING 58023
SWIDTH 562 0
DWIDTH 15 0
BBX 17 25 0 -6
BITMAP
3C0000
1F0000
1F0000
1F8E00
0FDC00
07F800
01F000
007000
00E000
0FF000
1FFC00
3FFE00
7FFE00
7FFF00
FFFF00
FFFF00
FFFF80
FFFF80
FFFF00
FFFF00
7FBF00
7FEE00
3FBC00
1FF800
07E000
ENDCHAR
STARTCHAR E2A8
ENCODING 58024
SWIDTH 562 0
DWIDTH 15 0
BBX 20 25 0 -6
BITMAP
3E3000
3F3000
1FF000
0FE000
03E000
00E000
1FFF80
3FFFC0
7FFFE0
7FFFE0
FFFFE0
FFFFF0
FFFFF0
FFFFF0
FFFFF0
FFFFE0
7FFFE0
7FFFE0
3FFFC0
1FFF80
0FFF00
07FE00
01F800
00E000
004000
ENDCHAR
STARTCHAR E2A9
ENCODING 58025
SWIDTH 562 0
DWIDTH 15 0
BBX 15 26 0 -6
BITMAP
1000
7C60
7EC0
7F80
3F80
0100
07C0
07E0
0FE0
0FE0
0FE0
0FF0
1FF0
1FF0
3FF8
3FFC
7FFC
FFFE
FFFE
FFFE
FFFE
FFFE
FFFE
7FFC
3FFC
1FF0
ENDCHAR
STARTCHAR E300
ENCODING 58112
SWIDTH 562 0
DWIDTH 15 0
BBX 29 24 0 -4
BITMAP
00002000
00002000
00002000
001800C0
001801C0
00007180
003DFC00
00FF8600
01C38200
01818300
0300C378
0700FB00
0E18FE00
183C0E00
10240600
00040600
FFFC06C0
7FF006C0
00000C00
FF1FF800
7F9FE000
00800000
07800000
07800000
ENDCHAR
STARTCHAR E301
ENCODING 58113
SWIDTH 562 0
DWIDTH 15 0
BBX 29 24 0 -4
BITMAP
00002000
00002000
00002000
001800C0
001801C0
00007180
001DFC00
00FF0E00
01C30600
01818300
0300C378
0700F200
1E003E00
18000E00
10000600
00000600
7FF006C0
3FF006C0
00000C00
FFDFF800
7F9FE000
00000000
1FFC0000
1FFC0000
ENDCHAR
STARTCHAR E302
ENCODING 58114
SWIDTH 562 0
DWIDTH 15 0
BBX 27 21 0 -1
BITMAP
00018000
00018000
00018000
00C00300
00600600
00038400
00E7F000
03FC3000
070C1800
0C060800
0C0609E0
3803D800
7803F800
E0003000
C0001000
C0001800
C0001A00
C0003300
60007000
3FFFE000
0FFF8000
ENDCHAR
STARTCHAR E303
ENCODING 58115
SWIDTH 562 0
DWIDTH 15 0
BBX 29 24 0 -4
BITMAP
00002000
00002000
00002000
001820C0
000801C0
00007180
001DFC00
00FF8600
01C38200
01818300
0300C338
0700FB00
0E003E00
18000600
00000000
00000000
1FFFFEC0
1FFFFC40
00000000
FFFFF000
FFFFF000
00000000
0FFFFF80
07FFFF00
ENDCHAR
STARTCHAR E304
ENCODING 58116
SWIDTH 562 0
DWIDTH 15 0
BBX 27 26 0 -6
BITMAP
00018000
00018000
00018000
00E00300
00600600
0003C400
00E7F000
03FC3800
070C1800
0C060800
0C0209E0
3803C800
7800F800
60003000
C0001800
C0001800
C1B21A00
C1363300
63367000
3B66E000
0A648000
00600000
064C0000
00400000
00000000
00800000
ENDCHAR
STARTCHAR E305
ENCODING 58117
SWIDTH 562 0
DWIDTH 15 0
BBX 27 26 0 -7
BITMAP
00018000
00018000
00018000
00C00300
00600600
0001C400
00E7F000
03FC3000
070C1800
0C061800
0C0609E0
3803D800
7803F800
E0003000
C0001000
C0781800
C0701A00
C0703300
60E07000
38F8E000
08F08000
00200000
00600000
00400000
00800000
00800000
ENDCHAR
STARTCHAR E306
ENCODING 58118
SWIDTH 562 0
DWIDTH 15 0
BBX 27 27 0 -7
BITMAP
00018000
00018000
00018000
00C00300
00600600
00038400
00E7F000
03FC3000
070C1800
0C060800
0C0609E0
3803D800
7803F800
60003000
C0001000
C0001800
C1821A00
C1063300
60007000
3B24E000
0A648000
02080000
064C0000
02480000
00000000
00C00000
00800000
ENDCHAR
STARTCHAR E307
ENCODING 58119
SWIDTH 562 0
DWIDTH 15 0
BBX 27 27 0 -7
BITMAP
00018000
00018000
00018000
00E00300
00600600
0003C400
00E7F000
03FC3800
070C1800
0C060800
0C0209E0
3803C800
7803F800
60003000
C0001800
C0001800
C0001B00
C0003300
60CC3000
3999E000
03338000
02770000
00660000
08C00000
00980000
03080000
03000000
ENDCHAR
STARTCHAR E308
ENCODING 58120
SWIDTH 562 0
DWIDTH 15 0
BBX 27 26 0 -6
BITMAP
00018000
00018000
00018000
00C00300
00600600
0001C400
00E7F000
03FC3800
060C1800
0C060800
0C0209E0
3803D800
7803F800
60003000
C0001800
C0001800
C1B21A00
C1363300
63367000
3B26E000
0B648000
026C0000
066C0000
00C00000
00C00000
00C00000
ENDCHAR
STARTCHAR E309
ENCODING 58121
SWIDTH 562 0
DWIDTH 15 0
BBX 27 26 0 -6
BITMAP
00018000
00018000
00018000
00C00300
00600600
00018400
00E7E000
03FC3000
070C1800
0C061800
0C0609E0
3803D800
7800F800
60003000
C0001000
C0001800
C1821A00
C1063300
61007000
3820E000
08608000
022C0000
060C0000
00000000
00C00000
00C00000
ENDCHAR
STARTCHAR E30A
ENCODING 58122
SWIDTH 562 0
DWIDTH 15 0
BBX 27 26 0 -6
BITMAP
00018000
00018000
00018000
00C00300
00600600
0003C400
00E7E000
03FC3000
070C1800
0C061800
0C0609E0
3803D800
7803F800
60003000
C0001000
C0001800
C0001A00
C0203300
60207000
3B04E000
08040000
00600000
00200000
03040000
00000000
00200000
ENDCHAR
STARTCHAR E30B
ENCODING 58123
SWIDTH 562 0
DWIDTH 15 0
BBX 27 23 0 -3
BITMAP
00018000
00018000
00018000
00C00300
00600600
0003C400
00E7E000
03FC3000
070C1800
0C061800
0C0609E0
3803D800
7803F800
60303000
C1101000
C3001800
C3801200
C3303300
60387000
3878E000
08788000
00780000
00300000
ENDCHAR
STARTCHAR E30C
ENCODING 58124
SWIDTH 562 0
DWIDTH 15 0
BBX 24 22 0 -2
BITMAP
001800
001800
001800
081800
1C0018
0E0030
061820
007F00
00E380
018180
0380C0
E300CE
F3C0CF
07E0C0
0E31C0
1C3F80
3C1F00
300700
300370
300638
3FFE18
0FFC00
ENDCHAR
STARTCHAR E30D
ENCODING 58125
SWIDTH 562 0
DWIDTH 15 0
BBX 21 21 0 -4
BITMAP
002000
002000
002000
1820C0
1C01C0
0C7180
01FC00
038E00
030600
060300
F60378
060300
030600
038E00
01FC00
0C3180
1C01C0
1820C0
002000
002000
002000
ENDCHAR
STARTCHAR E30E
ENCODING 58126
SWIDTH 562 0
DWIDTH 15 0
BBX 27 26 0 -7
BITMAP
00018000
00018000
00018000
00C00300
00600600
0001C400
00E7F000
03FC3800
060C1800
0C060800
0C0209E0
3803C800
7800F800
E0003000
C0001800
C0001800
C7031A00
C7023300
6E027000
3E20E000
0C208000
1F240000
060C0000
04000000
0CC00000
08C00000
ENDCHAR
STARTCHAR E30F
ENCODING 58127
SWIDTH 562 0
DWIDTH 15 0
BBX 27 26 0 -6
BITMAP
00018000
00018000
00018000
00C00300
00600600
0001C400
00E7F000
03FC3000
070C1800
0C061800
0C0609E0
3803D800
7803F800
E0003000
C0001000
C0001800
C7321A00
C7363300
6E367000
3E26E000
1C648000
1F6C0000
064C0000
04C00000
0CC00000
08C00000
ENDCHAR
STARTCHAR E310
ENCODING 58128
SWIDTH 562 0
DWIDTH 15 0
BBX 23 18 0 -4
BITMAP
003800
00FE00
018300
030180
030080
0E00F0
1C3038
387C0C
300C06
000C06
FFFC06
7FF00C
00001C
FF1FF8
FF9FE0
018000
0F8000
0F0000
ENDCHAR
STARTCHAR E311
ENCODING 58129
SWIDTH 562 0
DWIDTH 15 0
BBX 24 18 0 -4
BITMAP
001C00
007F00
00E180
0180C0
018040
070078
0F001C
0C0006
180003
000003
1FF803
1FF806
00000E
FFEFFC
FFCFF0
000000
0FFE00
07FE00
ENDCHAR
STARTCHAR E312
ENCODING 58130
SWIDTH 562 0
DWIDTH 15 0
BBX 22 15 0 -1
BITMAP
000E00
003F80
0190C0
07F040
0C3078
18180C
180E0C
780F84
C0018C
C000D8
8000F0
C000C0
400180
7FFF00
0FFC00
ENDCHAR
STARTCHAR E313
ENCODING 58131
SWIDTH 562 0
DWIDTH 15 0
BBX 25 18 0 -4
BITMAP
003C0000
00FF0000
01C38000
01818000
0300C000
0700F800
0E003C00
18000E00
00000000
00000000
1FFFFE00
1FFFFC00
00000000
FFFFF000
FFFFF000
00000000
0FFFFF80
07FFFF00
ENDCHAR
STARTCHAR E314
ENCODING 58132
SWIDTH 562 0
DWIDTH 15 0
BBX 21 20 0 -6
BITMAP
00E000
03F800
070C00
0C0600
0C0600
3803C0
7803E0
E00030
C00010
C00018
C1B218
C13630
633670
3B26E0
0B6480
006000
064C00
004000
000000
00C000
ENDCHAR
STARTCHAR E315
ENCODING 58133
SWIDTH 562 0
DWIDTH 15 0
BBX 14 18 0 -3
BITMAP
001C
0038
1F38
1E30
3C7C
3C7C
3818
7830
7E20
7E20
1C40
1800
1800
3000
2000
6000
4000
8000
ENDCHAR
STARTCHAR E316
ENCODING 58134
SWIDTH 562 0
DWIDTH 15 0
BBX 21 21 0 -7
BITMAP
00E000
03F800
070C00
0C0600
0C0600
3803C0
7803E0
600030
C00010
C00018
C18218
C10630
600070
3B24E0
0B6480
020000
064C00
024800
000000
00C000
008000
ENDCHAR
STARTCHAR E317
ENCODING 58135
SWIDTH 562 0
DWIDTH 15 0
BBX 21 21 0 -7
BITMAP
00E000
03F800
070C00
0C0600
0C0600
3803C0
7803E0
600030
C00010
C00018
C00018
C00030
618C70
3B99E0
133380
066700
00E600
18C000
009800
020000
020000
ENDCHAR
STARTCHAR E318
ENCODING 58136
SWIDTH 562 0
DWIDTH 15 0
BBX 21 20 0 -6
BITMAP
00E000
03F800
070C00
0C0600
0C0600
3C03C0
7803E0
600030
C00010
C00018
C1B218
C13630
633670
3B26E0
0B6480
026C00
064C00
00C000
00C000
00C000
ENDCHAR
STARTCHAR E319
ENCODING 58137
SWIDTH 562 0
DWIDTH 15 0
BBX 21 20 0 -6
BITMAP
00E000
03F800
070C00
0C0600
0C0200
3C03C0
7800E0
600030
C00018
C00018
C18218
C18630
610270
3820E0
086080
022C00
060C00
000000
00C000
00C000
ENDCHAR
STARTCHAR E31A
ENCODING 58138
SWIDTH 562 0
DWIDTH 15 0
BBX 21 20 0 -6
BITMAP
00E000
03F800
070C00
0C0600
0C0600
3803C0
7803E0
600030
C00010
C00018
C00018
C02030
602070
3B04E0
090480
002000
002000
030400
000000
002000
ENDCHAR
STARTCHAR E31B
ENCODING 58139
SWIDTH 562 0
DWIDTH 15 0
BBX 21 17 0 -3
BITMAP
00E000
03F800
070C00
0C0600
0C0600
3803C0
7803E0
603030
C11010
C30018
C38018
C31030
603870
3878E0
087C80
007800
003800
ENDCHAR
STARTCHAR E31C
ENCODING 58140
SWIDTH 562 0
DWIDTH 15 0
BBX 21 20 0 -6
BITMAP
00E000
03F800
070C00
0C0600
0C0600
3803C0
7803E0
600030
C00010
C00018
C70318
C70230
6E0270
3E20E0
0C6080
1F2C00
060C00
040000
04C000
08C000
ENDCHAR
STARTCHAR E31D
ENCODING 58141
SWIDTH 562 0
DWIDTH 15 0
BBX 21 21 0 -7
BITMAP
00E000
03F800
070C00
0C0600
0C0600
3803C0
7803E0
600030
C00010
C00018
C73218
C73630
6E3670
3E26E0
0C6480
1F6C00
066C00
064000
04C000
08C000
080000
ENDCHAR
STARTCHAR E31E
ENCODING 58142
SWIDTH 562 0
DWIDTH 15 0
BBX 21 7 0 2
BITMAP
3FFF00
000000
000000
FFFDF8
000000
07FF80
0FFFC0
ENDCHAR
STARTCHAR E31F
ENCODING 58143
SWIDTH 562 0
DWIDTH 15 0
BBX 24 20 0 -4
BITMAP
000070
0001F8
001B98
00FF18
01C39C
01818E
0300C7
0700FA
0E18FE
183C0C
102C06
000C06
FFFC06
FFF006
00000C
FF1FF8
FF9FE0
008000
058000
070000
ENDCHAR
STARTCHAR E320
ENCODING 58144
SWIDTH 562 0
DWIDTH 15 0
BBX 25 20 0 -4
BITMAP
00003C00
0000FC00
000ECC00
003F8C00
00E1C600
00C0C700
01806380
03807D80
07003F00
0C000300
08000300
00000300
1FFC0300
1FF80300
00000600
FFEFFC00
FFEFF800
00000000
0FFE0000
07FE0000
ENDCHAR
STARTCHAR E321
ENCODING 58145
SWIDTH 562 0
DWIDTH 15 0
BBX 22 22 0 -6
BITMAP
0001C0
0007E0
00EE40
03FC60
070C60
0C0638
0C061C
3803D8
7803F8
600030
C00010
C00018
C1B218
C13630
633670
3B26E0
0B6480
006000
066C00
004000
000000
00C000
ENDCHAR
ENDFONT
